<svg width="244" height="255" viewBox="0 0 244 255" fill="none" xmlns="http://www.w3.org/2000/svg">
<path d="M205.52 132.662H38.9594V202.826H205.52V132.662Z" fill="#45286C" stroke="#263238" stroke-linecap="round" stroke-linejoin="round"/>
<path d="M58.1087 136.908H42.4398V145.582H58.1087V136.908Z" fill="white" stroke="#263238" stroke-miterlimit="10"/>
<path d="M201.664 179.202H176.984V187.876H201.664V179.202Z" fill="white" stroke="#263238" stroke-miterlimit="10"/>
<path d="M201.671 147.741H186.436V156.415H201.671V147.741Z" fill="white" stroke="#263238" stroke-miterlimit="10"/>
<path d="M58.1087 168.506H42.4398V177.18H58.1087V168.506Z" fill="white" stroke="#263238" stroke-miterlimit="10"/>
<path d="M55.1266 158.055H42.4398V166.729H55.1266V158.055Z" fill="white" stroke="#263238" stroke-miterlimit="10"/>
<path d="M51.1119 147.482H42.4398V156.156H51.1119V147.482Z" fill="white" stroke="#263238" stroke-miterlimit="10"/>
<path d="M62.1884 147.482H53.5163V156.156H62.1884V147.482Z" fill="white" stroke="#263238" stroke-miterlimit="10"/>
<path d="M73.2578 147.482H64.5857V156.156H73.2578V147.482Z" fill="white" stroke="#263238" stroke-miterlimit="10"/>
<path d="M84.3273 147.482H75.6552V156.156H84.3273V147.482Z" fill="white" stroke="#263238" stroke-miterlimit="10"/>
<path d="M95.4039 147.482H86.7318V156.156H95.4039V147.482Z" fill="white" stroke="#263238" stroke-miterlimit="10"/>
<path d="M106.473 147.482H97.8011V156.156H106.473V147.482Z" fill="white" stroke="#263238" stroke-miterlimit="10"/>
<path d="M117.542 147.482H108.87V156.156H117.542V147.482Z" fill="white" stroke="#263238" stroke-miterlimit="10"/>
<path d="M128.619 147.482H119.947V156.156H128.619V147.482Z" fill="white" stroke="#263238" stroke-miterlimit="10"/>
<path d="M139.689 147.482H131.017V156.156H139.689V147.482Z" fill="white" stroke="#263238" stroke-miterlimit="10"/>
<path d="M150.765 147.482H142.093V156.156H150.765V147.482Z" fill="white" stroke="#263238" stroke-miterlimit="10"/>
<path d="M161.835 147.482H153.163V156.156H161.835V147.482Z" fill="white" stroke="#263238" stroke-miterlimit="10"/>
<path d="M172.904 147.482H164.232V156.156H172.904V147.482Z" fill="white" stroke="#263238" stroke-miterlimit="10"/>
<path d="M183.98 147.482H175.308V156.156H183.98V147.482Z" fill="white" stroke="#263238" stroke-miterlimit="10"/>
<path d="M51.1119 189.898H42.4398V198.572H51.1119V189.898Z" fill="white" stroke="#263238" stroke-miterlimit="10"/>
<path d="M62.1884 189.898H53.5163V198.572H62.1884V189.898Z" fill="white" stroke="#263238" stroke-miterlimit="10"/>
<path d="M73.2578 189.898H64.5857V198.572H73.2578V189.898Z" fill="white" stroke="#263238" stroke-miterlimit="10"/>
<path d="M86.2408 189.898H75.6552V198.572H86.2408V189.898Z" fill="white" stroke="#263238" stroke-miterlimit="10"/>
<path d="M141.602 189.898H88.6381V198.572H141.602V189.898Z" fill="white" stroke="#263238" stroke-miterlimit="10"/>
<path d="M179.15 189.898H170.478V198.572H179.15V189.898Z" fill="white" stroke="#263238" stroke-miterlimit="10"/>
<path d="M190.241 189.898H181.569V198.572H190.241V189.898Z" fill="white" stroke="#263238" stroke-miterlimit="10"/>
<path d="M157.235 189.898H143.768V198.572H157.235V189.898Z" fill="white" stroke="#263238" stroke-miterlimit="10"/>
<path d="M201.664 189.898H192.992V198.572H201.664V189.898Z" fill="white" stroke="#263238" stroke-miterlimit="10"/>
<path d="M66.2609 158.055H57.5888V166.729H66.2609V158.055Z" fill="white" stroke="#263238" stroke-miterlimit="10"/>
<path d="M77.3304 158.055H68.6583V166.729H77.3304V158.055Z" fill="white" stroke="#263238" stroke-miterlimit="10"/>
<path d="M88.4069 158.055H79.7348V166.729H88.4069V158.055Z" fill="white" stroke="#263238" stroke-miterlimit="10"/>
<path d="M99.4763 158.055H90.8042V166.729H99.4763V158.055Z" fill="white" stroke="#263238" stroke-miterlimit="10"/>
<path d="M110.553 158.055H101.881V166.729H110.553V158.055Z" fill="white" stroke="#263238" stroke-miterlimit="10"/>
<path d="M121.622 158.055H112.95V166.729H121.622V158.055Z" fill="white" stroke="#263238" stroke-miterlimit="10"/>
<path d="M132.692 158.055H124.02V166.729H132.692V158.055Z" fill="white" stroke="#263238" stroke-miterlimit="10"/>
<path d="M143.768 158.055H135.096V166.729H143.768V158.055Z" fill="white" stroke="#263238" stroke-miterlimit="10"/>
<path d="M154.838 158.055H146.165V166.729H154.838V158.055Z" fill="white" stroke="#263238" stroke-miterlimit="10"/>
<path d="M165.907 158.055H157.235V166.729H165.907V158.055Z" fill="white" stroke="#263238" stroke-miterlimit="10"/>
<path d="M176.984 158.055H168.312V166.729H176.984V158.055Z" fill="white" stroke="#263238" stroke-miterlimit="10"/>
<path d="M188.053 158.055H179.381V166.729H188.053V158.055Z" fill="white" stroke="#263238" stroke-miterlimit="10"/>
<path d="M201.664 158.055V177.309H192.992V166.729H190.45V158.055H201.664Z" fill="white" stroke="#263238" stroke-miterlimit="10"/>
<path d="M68.8028 168.628H60.1307V177.302H68.8028V168.628Z" fill="white" stroke="#263238" stroke-miterlimit="10"/>
<path d="M79.872 168.628H71.1999V177.302H79.872V168.628Z" fill="white" stroke="#263238" stroke-miterlimit="10"/>
<path d="M90.9417 168.628H82.2696V177.302H90.9417V168.628Z" fill="white" stroke="#263238" stroke-miterlimit="10"/>
<path d="M102.018 168.628H93.3461V177.302H102.018V168.628Z" fill="white" stroke="#263238" stroke-miterlimit="10"/>
<path d="M113.087 168.628H104.415V177.302H113.087V168.628Z" fill="white" stroke="#263238" stroke-miterlimit="10"/>
<path d="M124.164 168.628H115.492V177.302H124.164V168.628Z" fill="white" stroke="#263238" stroke-miterlimit="10"/>
<path d="M135.233 168.628H126.561V177.302H135.233V168.628Z" fill="white" stroke="#263238" stroke-miterlimit="10"/>
<path d="M146.303 168.628H137.631V177.302H146.303V168.628Z" fill="white" stroke="#263238" stroke-miterlimit="10"/>
<path d="M157.38 168.628H148.708V177.302H157.38V168.628Z" fill="white" stroke="#263238" stroke-miterlimit="10"/>
<path d="M168.449 168.628H159.777V177.302H168.449V168.628Z" fill="white" stroke="#263238" stroke-miterlimit="10"/>
<path d="M179.518 168.628H170.846V177.302H179.518V168.628Z" fill="white" stroke="#263238" stroke-miterlimit="10"/>
<path d="M190.595 168.628H181.923V177.302H190.595V168.628Z" fill="white" stroke="#263238" stroke-miterlimit="10"/>
<path d="M64.0947 179.202H55.4226V187.876H64.0947V179.202Z" fill="white" stroke="#263238" stroke-miterlimit="10"/>
<path d="M75.1642 179.202H66.4921V187.876H75.1642V179.202Z" fill="white" stroke="#263238" stroke-miterlimit="10"/>
<path d="M86.2408 179.202H77.5687V187.876H86.2408V179.202Z" fill="white" stroke="#263238" stroke-miterlimit="10"/>
<path d="M97.3102 179.202H88.6381V187.876H97.3102V179.202Z" fill="white" stroke="#263238" stroke-miterlimit="10"/>
<path d="M108.387 179.202H99.7147V187.876H108.387V179.202Z" fill="white" stroke="#263238" stroke-miterlimit="10"/>
<path d="M119.456 179.202H110.784V187.876H119.456V179.202Z" fill="white" stroke="#263238" stroke-miterlimit="10"/>
<path d="M130.526 179.202H121.854V187.876H130.526V179.202Z" fill="white" stroke="#263238" stroke-miterlimit="10"/>
<path d="M141.602 179.202H132.93V187.876H141.602V179.202Z" fill="white" stroke="#263238" stroke-miterlimit="10"/>
<path d="M152.672 179.202H144V187.876H152.672V179.202Z" fill="white" stroke="#263238" stroke-miterlimit="10"/>
<path d="M163.741 179.202H155.069V187.876H163.741V179.202Z" fill="white" stroke="#263238" stroke-miterlimit="10"/>
<path d="M174.817 179.202H166.145V187.876H174.817V179.202Z" fill="white" stroke="#263238" stroke-miterlimit="10"/>
<path d="M68.8028 137.428H60.1307V146.102H68.8028V137.428Z" fill="white" stroke="#263238" stroke-miterlimit="10"/>
<path d="M79.872 137.428H71.1999V146.102H79.872V137.428Z" fill="white" stroke="#263238" stroke-miterlimit="10"/>
<path d="M90.9417 137.428H82.2696V146.102H90.9417V137.428Z" fill="white" stroke="#263238" stroke-miterlimit="10"/>
<path d="M102.018 137.428H93.3461V146.102H102.018V137.428Z" fill="white" stroke="#263238" stroke-miterlimit="10"/>
<path d="M113.087 137.428H104.415V146.102H113.087V137.428Z" fill="white" stroke="#263238" stroke-miterlimit="10"/>
<path d="M124.164 137.428H115.492V146.102H124.164V137.428Z" fill="white" stroke="#263238" stroke-miterlimit="10"/>
<path d="M135.233 137.428H126.561V146.102H135.233V137.428Z" fill="white" stroke="#263238" stroke-miterlimit="10"/>
<path d="M146.303 137.428H137.631V146.102H146.303V137.428Z" fill="white" stroke="#263238" stroke-miterlimit="10"/>
<path d="M157.38 137.428H148.708V146.102H157.38V137.428Z" fill="white" stroke="#263238" stroke-miterlimit="10"/>
<path d="M168.449 137.428H159.777V146.102H168.449V137.428Z" fill="white" stroke="#263238" stroke-miterlimit="10"/>
<path d="M179.518 137.428H170.846V146.102H179.518V137.428Z" fill="white" stroke="#263238" stroke-miterlimit="10"/>
<path d="M190.595 137.428H181.923V146.102H190.595V137.428Z" fill="white" stroke="#263238" stroke-miterlimit="10"/>
<path d="M201.664 137.428H192.992V146.102H201.664V137.428Z" fill="white" stroke="#263238" stroke-miterlimit="10"/>
<path d="M52.9459 179.202H42.4398V187.876H52.9459V179.202Z" fill="white" stroke="#263238" stroke-miterlimit="10"/>
<path d="M38.9594 133.109L42.4398 131.947H203.26L205.549 133.095L38.9594 133.109Z" fill="#263238"/>
<path d="M184.811 216.238L184.898 184.308C185.244 183.022 185.526 178.285 186.262 174.984C187.519 169.452 182.58 162.778 182.233 162.562C180.847 161.695 177.901 161.71 177.901 161.71C177.901 161.71 175.013 158.416 172.435 157.376C170.663 156.747 168.775 156.513 166.904 156.69C164.919 155.051 162.705 153.71 160.333 152.711C159.404 152.36 158.397 152.271 157.421 152.454C156.446 152.638 155.539 153.086 154.802 153.751L151.552 158.806C151.078 159.524 150.862 160.382 150.943 161.238C151.023 162.095 151.393 162.898 151.993 163.515C153.538 165.032 155.517 164.324 156.513 164.324C157.892 164.324 158.412 162.764 158.412 162.764C158.412 162.764 158.751 170.889 158.412 171.929C158.058 172.962 155.473 175.381 155.473 175.381L146.808 163.948C143.834 159.912 141.231 155.614 139.032 151.107C138.781 150.558 138.453 150.047 138.057 149.591C136.54 147.879 133.298 147.373 132.454 150.551C132.246 151.568 132.293 152.62 132.591 153.613C136.201 164.288 140.808 172.355 145.003 180.762C147.494 185.752 146.57 185.695 147.812 187.948C147.668 188.049 147.74 188.237 147.581 188.331C146.974 190.757 146.548 193.191 145.935 195.618C145.426 192.571 144.495 189.611 143.169 186.821C143.519 185.131 143.648 183.403 143.552 181.679C143.443 179.938 142.667 178.305 141.386 177.122C140.668 176.541 139.787 176.198 138.866 176.14C138.206 176.096 137.554 176.304 137.04 176.72C136.526 177.136 136.188 177.731 136.093 178.386C135.949 179.707 135.707 181.015 135.371 182.3C134.819 183.978 134.153 185.617 133.378 187.204C133.378 190.432 135.371 189.905 136.822 202.862C137.949 212.973 150.946 219.625 158.022 226.912L166.403 251.673C176.947 246.711 181.288 244.23 190.282 237.407L184.811 216.238Z" fill="white"/>
<path d="M141.566 198.76C141.653 198.601 141.725 198.442 141.797 198.276C141.721 198.33 141.659 198.403 141.618 198.488C141.578 198.573 141.56 198.667 141.566 198.76Z" fill="#1A095A"/>
<path d="M162.383 154.083C161.392 153.308 160.214 152.809 158.968 152.638L162.383 154.083Z" fill="#1A095A"/>
<path d="M158.535 157.463L158.578 157.824C158.604 157.702 158.588 157.575 158.535 157.463Z" fill="#1A095A"/>
<g opacity="0.5">
<path opacity="0.5" d="M141.566 198.76C141.653 198.601 141.725 198.442 141.797 198.276C141.721 198.33 141.659 198.403 141.618 198.488C141.578 198.573 141.56 198.667 141.566 198.76Z" fill="white"/>
<path opacity="0.5" d="M162.383 154.083C161.392 153.308 160.214 152.809 158.968 152.638L162.383 154.083Z" fill="white"/>
<path opacity="0.5" d="M158.534 157.463L158.578 157.824C158.603 157.702 158.588 157.575 158.534 157.463Z" fill="white"/>
<path opacity="0.5" d="M162.513 188.785C162.188 187.976 160.614 185.651 159.697 187.261L162.513 188.785Z" fill="white"/>
</g>
<path d="M135.667 184.9C134.827 185.562 134.111 186.366 133.551 187.276L135.667 184.9Z" fill="white"/>
<path d="M166.403 251.672L158.094 226.89C151.018 219.603 138.021 212.937 136.894 202.84C135.45 189.883 133.45 190.41 133.45 187.182C134.225 185.595 134.891 183.956 135.443 182.278C135.78 180.993 136.021 179.685 136.165 178.364C136.26 177.709 136.598 177.114 137.112 176.698C137.626 176.282 138.278 176.074 138.938 176.118C139.859 176.176 140.74 176.519 141.458 177.1C142.74 178.283 143.516 179.916 143.624 181.657C143.72 183.381 143.592 185.109 143.241 186.799C144.568 189.589 145.498 192.549 146.007 195.596C146.621 193.169 147.047 190.735 147.653 188.309C147.812 188.215 147.74 188.027 147.884 187.926C146.642 185.673 147.567 185.759 145.075 180.74C140.88 172.333 136.281 164.266 132.663 153.591C132.365 152.598 132.318 151.546 132.526 150.529C133.371 147.351 136.613 147.857 138.129 149.569C138.525 150.025 138.853 150.536 139.104 151.085C141.303 155.592 143.906 159.89 146.881 163.927L155.545 175.359C155.545 175.359 158.13 172.94 158.484 171.907C158.824 170.867 158.484 162.742 158.484 162.742C158.484 162.742 157.964 164.302 156.585 164.302C155.589 164.302 153.61 165.024 152.065 163.493C151.46 162.887 151.079 162.092 150.986 161.24C150.892 160.388 151.092 159.529 151.552 158.806L154.78 153.75C155.518 153.086 156.424 152.638 157.4 152.454C158.375 152.271 159.383 152.359 160.311 152.71C162.683 153.71 164.897 155.05 166.882 156.69C168.754 156.513 170.641 156.747 172.413 157.376C175.013 158.423 177.879 161.709 177.879 161.709C177.879 161.709 180.818 161.709 182.212 162.562C182.558 162.778 187.497 169.452 186.241 174.984C185.519 178.284 185.223 183.022 184.876 184.308L184.789 216.237L190.592 237.407" stroke="#263238" stroke-miterlimit="10"/>
<path d="M167.698 157.817C168.969 162.527 169.629 167.382 169.662 172.261C169.621 173.079 169.709 173.898 169.922 174.688C170.034 175.081 170.245 175.438 170.534 175.727C170.824 176.015 171.182 176.224 171.575 176.334" stroke="#263238" stroke-miterlimit="10"/>
<path d="M177.908 162.562C180.074 167.083 177.858 177.179 178.016 177.894C178.085 178.254 178.229 178.594 178.439 178.893C178.65 179.192 178.922 179.443 179.237 179.628" stroke="#263238" stroke-miterlimit="10"/>
<path d="M159.293 157.195C159.04 158.64 158.831 160.301 158.571 161.738C157.73 161.015 157.042 160.131 156.546 159.139C156.051 158.147 155.757 157.067 155.683 155.96" stroke="#263238" stroke-miterlimit="10"/>
<path d="M145.458 195.733L143.898 196.419" stroke="#263238" stroke-miterlimit="10"/>
<path d="M145.855 196.983C145.606 198.188 145.606 199.432 145.855 200.637" stroke="#263238" stroke-miterlimit="10"/>
<path d="M154.982 183.484L156.708 186.597" stroke="#263238" stroke-miterlimit="10"/>
<path d="M158.303 172.095L160.022 169.668" stroke="#263238" stroke-miterlimit="10"/>
<path d="M182.471 183.484L181.952 185.391" stroke="#263238" stroke-miterlimit="10"/>
<path d="M178.269 178.306C178.75 176.688 179.258 175.07 179.793 173.453" stroke="#263238" stroke-miterlimit="10"/>
<path d="M183.323 169.676C183.78 169.436 184.313 169.388 184.806 169.541C185.299 169.694 185.711 170.036 185.952 170.492" stroke="#263238" stroke-miterlimit="10"/>
<path d="M172.976 161.384C173.575 161.216 174.207 161.201 174.814 161.339C175.421 161.478 175.983 161.767 176.449 162.179" stroke="#263238" stroke-miterlimit="10"/>
<path d="M140.815 166.202C141.375 165.587 142.073 165.114 142.851 164.82C143.629 164.526 144.465 164.421 145.292 164.512" stroke="#263238" stroke-miterlimit="10"/>
<path d="M134.295 152.58C134.811 152.208 135.395 151.941 136.015 151.795C136.634 151.649 137.277 151.626 137.905 151.728" stroke="#263238" stroke-miterlimit="10"/>
<path d="M135.667 184.9C134.827 185.562 134.111 186.366 133.551 187.276" stroke="#263238" stroke-miterlimit="10"/>
<path d="M136.331 181.614C137.472 180.805 139.292 182.625 140.339 181.693C140.524 181.484 140.654 181.232 140.716 180.959C140.777 180.686 140.769 180.402 140.692 180.133C140.538 179.596 140.468 179.038 140.483 178.479" stroke="#263238" stroke-miterlimit="10"/>
<path d="M168.528 176.609C169.918 179.493 170.2 182.788 169.322 185.868" stroke="#263238" stroke-miterlimit="10"/>
<path d="M176.919 181.065C177.143 182.43 176.888 183.831 176.197 185.03" stroke="#263238" stroke-miterlimit="10"/>
<path d="M104.347 180.659C104.036 179.215 102.007 179.439 102.007 179.439C95.1835 179.836 94.2665 190.532 94.2665 190.532L91.8187 197.863L91.0966 186.842L91.1688 172.636C91.1688 172.636 93.2339 159.043 92.3169 156.913C92.1074 156.325 91.7263 155.814 91.2228 155.446C90.7194 155.077 90.1169 154.869 89.4936 154.847C85.5222 153.85 85.2911 159.578 85.2911 159.578L81.9407 171.263L80.5254 183.866L79.3846 183.252C79.3846 183.252 78.843 169.884 79.0741 169.66C79.3051 169.436 80.6771 160.415 80.6771 160.415C80.6771 160.415 81.3991 158.74 82.3595 156.602C82.6309 156.002 82.7712 155.351 82.7712 154.692C82.7712 154.033 82.6309 153.382 82.3595 152.782C80.7493 149.495 77.3989 151.027 76.7057 152.782C75.8919 154.564 74.9757 156.298 73.9618 157.974L70.1348 168.439C70.2792 170.808 68.9217 182.487 68.9217 182.487L67.5426 181.866L65.3258 175.004L67.0154 167.977C67.0154 167.977 70.7052 163.933 70.0626 161.549C69.4199 159.166 66.3223 159.874 66.3223 159.874L60.0691 167.349H58.2278L53.8954 172.852C51.9287 178.755 51.5771 185.076 52.8772 191.161L53.8737 195.804V225.827C53.8737 225.827 50.906 230.637 50.906 231.092C50.906 231.302 48.0973 236.398 46.386 241.128C53.8426 246.004 61.892 250.122 71.5057 254.153C74.2424 246.447 78.908 235.917 80.6771 233.996C84.1863 230.175 91.0605 222.845 91.0605 222.845C91.0605 222.845 98.8661 210.3 99.7831 206.125C100.505 202.702 102.368 196.491 103.004 194.36C103.151 193.876 103.21 193.37 103.177 192.865C103.126 191.738 103.018 189.55 103.018 187.622C103.018 184.834 104.643 182.082 104.347 180.659Z" fill="white"/>
<path d="M46.386 241.128C48.5568 236.166 51.6028 229.245 51.6028 229.035C51.6028 228.58 54.5705 223.77 54.5705 223.77V193.754L53.5741 189.139C52.2749 183.071 52.6189 176.766 54.5705 170.874L58.903 165.371H60.7443L66.9974 157.896C66.9974 157.896 70.1312 157.174 70.7377 159.572C71.3443 161.969 67.6906 165.985 67.6906 165.985L66.0009 173.012L68.2177 179.873L69.5969 180.494C69.5969 180.494 70.9544 168.816 70.81 166.447L74.6369 155.982C75.6509 154.306 76.567 152.572 77.3808 150.789C78.1029 149.034 81.4244 147.503 83.0347 150.789C83.306 151.39 83.4464 152.041 83.4464 152.7C83.4464 153.358 83.306 154.01 83.0347 154.61C82.1104 156.777 81.3522 158.423 81.3522 158.423C81.3522 158.423 79.9803 167.437 79.7492 167.668C79.5182 167.899 80.0597 181.26 80.0597 181.26L81.2006 181.874L82.5798 169.271L85.9302 157.586C85.9302 157.586 86.1612 151.858 90.1326 152.855C90.756 152.877 91.3585 153.085 91.8619 153.453C92.3653 153.822 92.7465 154.333 92.9559 154.92C93.873 157.051 91.8078 170.643 91.8078 170.643L91.7356 184.849L92.4577 195.871L94.9055 188.54C94.9055 188.54 95.8226 177.844 102.646 177.447C102.646 177.447 104.675 177.237 104.986 178.667C105.296 180.097 103.657 182.842 103.657 185.593C103.657 187.522 103.765 189.71 103.816 190.837C103.849 191.341 103.79 191.848 103.643 192.332C103.007 194.462 101.18 200.673 100.422 204.097C99.5051 208.271 91.6995 220.816 91.6995 220.816C91.6995 220.816 84.8254 228.147 81.3161 231.967C79.547 233.888 74.2424 246.447 71.5057 254.153" stroke="#263238" stroke-miterlimit="10"/>
<path d="M69.4959 181.599C69.6877 182.317 69.6935 183.071 69.5129 183.792C69.3322 184.512 68.971 185.174 68.4633 185.716" fill="white"/>
<path d="M69.4959 181.599C69.6877 182.317 69.6935 183.071 69.5129 183.792C69.3322 184.512 68.971 185.174 68.4633 185.716" stroke="#263238" stroke-miterlimit="10"/>
<path d="M57.8489 191.696C58.8382 190.158 59.8058 188.049 59.5386 186.243C59.0187 182.697 57.3724 178.617 58.1305 175.106C58.5927 172.868 59.062 170.621 59.5241 168.383" fill="white"/>
<path d="M57.8489 191.696C58.8382 190.158 59.8058 188.049 59.5386 186.243C59.0187 182.697 57.3724 178.617 58.1305 175.106C58.5927 172.868 59.062 170.621 59.5241 168.383" stroke="#263238" stroke-miterlimit="10"/>
<path d="M86.6379 158.199C87.8211 157.887 89.065 157.887 90.2482 158.199C90.2482 157.867 90.2482 157.535 90.2482 157.195" stroke="#263238" stroke-miterlimit="10"/>
<path d="M77.1787 153.686C77.5266 153.926 77.9339 154.065 78.3558 154.089C78.7777 154.113 79.1981 154.02 79.5709 153.821C79.9436 153.622 80.2545 153.324 80.4693 152.96C80.6842 152.596 80.7948 152.18 80.789 151.757" stroke="#263238" stroke-miterlimit="10"/>
<path d="M103.253 178.761C102.255 179.018 101.377 179.615 100.772 180.45C100.167 181.284 99.8724 182.304 99.9385 183.333L101.708 183.86" stroke="#263238" stroke-miterlimit="10"/>
<path d="M80.0164 179.642C80.0959 180.855 79.9442 183.752 80.0164 184.958V179.642Z" fill="white"/>
<path d="M80.0164 179.642C80.0959 180.855 79.9442 183.752 80.0164 184.958" stroke="#263238" stroke-miterlimit="10"/>
<path d="M81.3451 181.318C81.2006 183.306 81.0538 185.293 80.9046 187.276C80.9046 187.023 80.9046 186.771 80.9046 186.518" fill="white"/>
<path d="M81.3451 181.318C81.2006 183.306 81.0538 185.293 80.9046 187.276C80.9046 187.023 80.9046 186.771 80.9046 186.518" stroke="#263238" stroke-miterlimit="10"/>
<path d="M92.3421 198.059C92.8662 200.254 92.6268 202.562 91.6633 204.602L92.3421 198.059Z" fill="white"/>
<path d="M92.3421 198.059C92.8662 200.254 92.6268 202.562 91.6633 204.602" stroke="#263238" stroke-miterlimit="10"/>
<path d="M74.0594 187.652C72.4853 189.378 72.7163 193.516 73.8283 195.798" stroke="#263238" stroke-miterlimit="10"/>
<path d="M85.6919 190.497C85.7009 192.437 85.0172 194.317 83.7639 195.798" stroke="#263238" stroke-miterlimit="10"/>
<path d="M62.5931 188.475C62.3314 190.235 62.7134 192.03 63.6689 193.531" stroke="#263238" stroke-miterlimit="10"/>
<path d="M55.8918 193.87C55.8228 195.244 56.2141 196.601 57.0038 197.727" stroke="#263238" stroke-miterlimit="10"/>
<path d="M65.0766 160.568C65.4913 160.379 65.9528 160.317 66.4027 160.391C66.8525 160.464 67.2706 160.669 67.6038 160.98L68.5136 159.796" stroke="#263238" stroke-miterlimit="10"/>
<path d="M72.4852 165.877C73.0941 165.511 73.8134 165.375 74.5136 165.493C75.2138 165.611 75.849 165.975 76.3049 166.519" stroke="#263238" stroke-miterlimit="10"/>
<path d="M84.0529 169.488C84.7017 169.198 85.4066 169.056 86.1169 169.071C86.8272 169.086 87.5254 169.258 88.1615 169.574" stroke="#263238" stroke-miterlimit="10"/>
<path d="M58.3109 175.547C58.6952 174.904 59.2562 174.386 59.9271 174.053C60.5979 173.72 61.3502 173.587 62.0945 173.669" stroke="#263238" stroke-miterlimit="10"/>
<path d="M53.4661 182.452C53.4894 181.984 53.6718 181.539 53.9831 181.19C54.2944 180.84 54.7158 180.608 55.1774 180.531" stroke="#263238" stroke-miterlimit="10"/>
<path d="M243.256 9.60892L1 10.75L4.66091 5.26113C5.52518 3.95533 6.69841 2.88317 8.07646 2.13983C9.4545 1.39648 10.9947 1.00496 12.5604 1H231.753C233.172 0.998981 234.572 1.31641 235.852 1.92889C237.132 2.54137 238.258 3.43329 239.147 4.5389L243.256 9.60892Z" fill="white" stroke="#263238" stroke-linecap="round" stroke-linejoin="round"/>
<path d="M126.337 45.9297H113.066C99.447 45.9297 88.4069 56.9721 88.4069 70.5936V83.8681C88.4069 97.4896 99.447 108.532 113.066 108.532H126.337C139.956 108.532 150.996 97.4896 150.996 83.8681V70.5936C150.996 56.9721 139.956 45.9297 126.337 45.9297Z" fill="#757575" stroke="#263238" stroke-linecap="round" stroke-linejoin="round"/>
<path d="M99.7795 82.5247V91.4225C99.7795 92.7633 100.312 94.0492 101.26 94.9973C102.208 95.9454 103.493 96.478 104.834 96.478H135.356C136.69 96.4781 137.971 95.9504 138.917 95.0101C139.864 94.0698 140.401 92.7931 140.411 91.4586C140.454 87.4502 140.663 82.5247 140.663 82.5247H99.7795Z" fill="#999999" stroke="#263238" stroke-linecap="round" stroke-linejoin="round"/>
<path d="M211.484 85.4931H32.9878C32.0698 85.4952 31.1724 85.2208 30.4125 84.7055C29.6527 84.1902 29.0655 83.458 28.7276 82.6042L1.19495 11.9057C1.0279 11.4783 0.967779 11.0166 1.01983 10.5606C1.07188 10.1047 1.23452 9.66836 1.4936 9.28962C1.75268 8.91088 2.10036 8.6012 2.50638 8.3875C2.91241 8.17381 3.36449 8.06258 3.8233 8.06348H240.663C241.119 8.06842 241.567 8.18392 241.968 8.40007C242.369 8.61622 242.712 8.92656 242.967 9.30444C243.222 9.68232 243.382 10.1164 243.432 10.5695C243.482 11.0226 243.422 11.4811 243.256 11.9057L215.723 82.5826C215.39 83.437 214.807 84.1714 214.052 84.6904C213.296 85.2095 212.401 85.4892 211.484 85.4931Z" fill="white" stroke="#263238" stroke-linecap="round" stroke-linejoin="round"/>
<path d="M212.813 79.3323H31.2331L6.24933 12.541H237.681L212.813 79.3323Z" fill="white"/>
<path d="M140.454 85.3992H99.9745V88.1725H140.454V85.3992Z" fill="#263238"/>
<path d="M186.291 76.4724H58.0655C57.3434 76.4724 56.6936 76.1547 56.5636 75.7502L38.324 17.7917C38.1219 17.1417 38.6923 16.6145 39.6021 16.6145H204.755C205.665 16.6145 206.235 17.1417 206.026 17.7917L187.793 75.7502C187.656 76.1474 186.992 76.4724 186.291 76.4724Z" fill="#45286C"/>
<path d="M185.006 75.1508H59.3653C59.1297 75.1524 58.9 75.0771 58.711 74.9364C58.5221 74.7956 58.3842 74.5971 58.3182 74.3708L43.4724 25.6496C43.4172 25.4836 43.4024 25.3067 43.4293 25.1338C43.4563 24.9609 43.5241 24.7969 43.6273 24.6556C43.7305 24.5143 43.8659 24.3996 44.0224 24.3213C44.1788 24.2429 44.3517 24.2031 44.5266 24.2052H199.83C200.005 24.2031 200.178 24.2429 200.334 24.3213C200.491 24.3996 200.626 24.5143 200.73 24.6556C200.833 24.7969 200.901 24.9609 200.927 25.1338C200.954 25.3067 200.94 25.4836 200.884 25.6496L186.053 74.3708C185.986 74.5965 185.848 74.7943 185.659 74.9349C185.47 75.0755 185.241 75.1512 185.006 75.1508Z" fill="#263238"/>
<path d="M76.8102 36.8728H52.7147C52.1153 36.8728 51.7254 37.1906 51.8409 37.595C51.9575 37.8277 52.1405 38.0206 52.3667 38.1492C52.593 38.2777 52.8523 38.3362 53.1118 38.3172H77.0702C77.6623 38.3172 78.0811 37.9995 78.0161 37.595C77.9511 37.1906 77.4023 36.8728 76.8102 36.8728Z" fill="white"/>
<path d="M77.6118 41.2712H57.1194C56.5345 41.2712 56.1518 41.5818 56.2529 41.9935C56.3632 42.2233 56.5398 42.4148 56.7598 42.5435C56.9798 42.6722 57.2333 42.7322 57.4876 42.7157H77.9006C78.4855 42.7157 78.8971 42.4051 78.8321 41.9935C78.7671 41.5818 78.1967 41.2712 77.6118 41.2712Z" fill="white"/>
<path opacity="0.5" d="M78.3919 45.5181H55.1411C54.5635 45.5181 54.188 45.8142 54.2891 46.1825C54.4052 46.4031 54.5833 46.5848 54.8014 46.7054C55.0195 46.8261 55.2681 46.8803 55.5166 46.8614H78.6229C79.1934 46.8614 79.605 46.5653 79.54 46.197C79.475 45.8286 78.9695 45.5181 78.3919 45.5181Z" fill="white"/>
<path d="M79.1427 49.6201H65.4883C64.9251 49.6201 64.5352 49.909 64.6219 50.2629C64.7085 50.6168 65.2356 50.9057 65.7988 50.9057H79.381C79.9442 50.9057 80.3486 50.6168 80.2836 50.2629C80.2186 49.909 79.7132 49.6201 79.1427 49.6201Z" fill="white"/>
<path d="M79.8721 53.5779H57.4012C56.8524 53.5779 56.477 53.8595 56.578 54.199C56.6791 54.5384 57.199 54.8201 57.755 54.8201H80.1393C80.6881 54.8201 81.0852 54.5457 81.0274 54.199C80.9697 53.8523 80.4281 53.5779 79.8721 53.5779Z" fill="white"/>
<path d="M80.5723 57.4128H62.4338C61.8851 57.4128 61.5168 57.6801 61.6034 58.0123C61.6901 58.3445 62.2028 58.6117 62.7443 58.6117H80.7962C81.3377 58.6117 81.7276 58.3445 81.6699 58.0123C81.6121 57.6801 81.1211 57.4128 80.5723 57.4128Z" fill="white"/>
<path d="M81.2513 61.1179H63.4089C62.8673 61.1179 62.5063 61.3779 62.5929 61.6957C62.6796 62.0135 63.1778 62.2807 63.7121 62.2807H81.4679C82.0022 62.2807 82.3849 62.0207 82.3272 61.6957C82.2694 61.3707 81.7928 61.1179 81.2513 61.1179Z" fill="white"/>
<path d="M81.9083 64.7H62.4123C61.8852 64.7 61.5241 64.9527 61.6108 65.2633C61.6974 65.5738 62.1884 65.8266 62.7155 65.8266H82.0888C82.6159 65.8266 82.9986 65.5738 82.9408 65.2633C82.8831 64.9527 82.4426 64.7 81.9083 64.7Z" fill="white"/>
<path opacity="0.5" d="M82.5507 68.1741H69.9578C69.4379 68.1741 69.0768 68.4196 69.1491 68.723C69.2213 69.0263 69.7051 69.2646 70.2177 69.2646H82.7313C83.2512 69.2646 83.6266 69.0191 83.5761 68.723C83.5255 68.4268 83.0706 68.1741 82.5507 68.1741Z" fill="white"/>
<path opacity="0.5" d="M75.973 32.3083H58.015C57.4085 32.3083 57.0041 32.6405 57.1125 33.0305C57.2287 33.265 57.4127 33.4593 57.6405 33.588C57.8684 33.7168 58.1297 33.7742 58.3905 33.7527H76.2402C76.8467 33.7527 77.2727 33.4205 77.2005 33.0305C77.1 32.7947 76.9266 32.5973 76.7056 32.4673C76.4847 32.3373 76.2279 32.2816 75.973 32.3083Z" fill="white"/>
<path d="M75.0992 27.5779H50.1011C49.4873 27.5779 49.0829 27.9173 49.2057 28.3434C49.3265 28.5882 49.5173 28.7916 49.7538 28.9279C49.9903 29.0642 50.262 29.1272 50.5343 29.109H75.3881C75.9946 29.109 76.4351 28.7696 76.3556 28.3434C76.2762 27.9173 75.7347 27.5779 75.0992 27.5779Z" fill="white"/>
<path d="M83.1647 71.5396H62.4485C61.9358 71.5396 61.5892 71.7779 61.6686 72.0668C61.748 72.3557 62.2318 72.594 62.7445 72.594H83.3597C83.8651 72.594 84.2406 72.3557 84.1901 72.0668C84.1395 71.7779 83.6774 71.5396 83.1647 71.5396Z" fill="white"/>
<path opacity="0.5" d="M85.2733 38.4763H89.9451L89.714 36.6924H85.0061L85.2733 38.4763Z" fill="white"/>
<path opacity="0.5" d="M85.9231 42.8168H90.5155L90.2916 41.0979H85.6631L85.9231 42.8168Z" fill="white"/>
<path opacity="0.5" d="M86.5513 47.0129H91.0643L90.8477 45.3518H86.3058L86.5513 47.0129Z" fill="white"/>
<path opacity="0.5" d="M87.1651 51.0644H91.5987L91.382 49.4539H86.9196L87.1651 51.0644Z" fill="white"/>
<path opacity="0.5" d="M87.75 54.9716H92.1113L91.9019 53.426H87.5189L87.75 54.9716Z" fill="white"/>
<path opacity="0.5" d="M88.3204 58.7565H92.6023L92.4074 57.2615H88.0894L88.3204 58.7565Z" fill="white"/>
<path opacity="0.5" d="M88.8693 62.4252H93.0862L92.8985 60.9663H88.6527L88.8693 62.4252Z" fill="white"/>
<path opacity="0.5" d="M89.3959 65.9641H93.5479L93.3673 64.563H89.1865L89.3959 65.9641Z" fill="white"/>
<path opacity="0.5" d="M89.916 69.4019H94.003L93.8225 68.0369H89.7139L89.916 69.4019Z" fill="white"/>
<path opacity="0.5" d="M84.5945 33.977H89.3529L89.1146 32.1208H84.3201L84.5945 33.977Z" fill="white"/>
<path opacity="0.5" d="M83.894 29.3042H88.7391L88.4936 27.3831H83.6051L83.894 29.3042Z" fill="white"/>
<path opacity="0.5" d="M90.4142 72.7243H94.4362L94.2629 71.4026H90.2193L90.4142 72.7243Z" fill="white"/>
<path d="M115.044 65.2633C115.044 64.9527 115.449 64.7 115.976 64.7H185.165C185.692 64.7 186.053 64.9527 185.959 65.2633C185.846 65.4525 185.681 65.6058 185.484 65.7054C185.288 65.8051 185.067 65.8471 184.847 65.8266H116.012C115.485 65.8266 115.051 65.5738 115.044 65.2633Z" fill="white"/>
<path d="M185.865 62.2807H147.552C147.018 62.2807 146.613 62.0207 146.65 61.6957C146.686 61.3707 147.148 61.1179 147.689 61.1179H186.212C186.746 61.1179 187.107 61.3779 187.013 61.6957C186.9 61.8943 186.73 62.0554 186.527 62.1593C186.323 62.2632 186.093 62.3054 185.865 62.2807Z" fill="white"/>
<path opacity="0.5" d="M138.461 62.2807H126.547C126.012 62.2807 125.579 62.0207 125.586 61.6957C125.594 61.3707 126.027 61.1179 126.568 61.1179H138.555C139.089 61.1179 139.508 61.3779 139.479 61.6957C139.45 62.0135 138.995 62.2807 138.461 62.2807Z" fill="white"/>
<path d="M163.329 58.6117H109.289C108.748 58.6117 108.293 58.3445 108.271 58.0123C108.249 57.6801 108.675 57.4128 109.224 57.4128H163.553C164.094 57.4128 164.492 57.6801 164.427 58.0123C164.362 58.3445 163.878 58.6117 163.329 58.6117Z" fill="white"/>
<path opacity="0.5" d="M97.9962 57.4128H101.845C102.386 57.4128 102.856 57.6801 102.885 58.0123C102.913 58.3445 102.495 58.6117 101.953 58.6117H98.1189C97.5774 58.6117 97.108 58.3445 97.0719 58.0123C97.0358 57.6801 97.4474 57.4128 97.9962 57.4128Z" fill="white"/>
<path d="M171.149 54.199C171.077 54.5457 170.572 54.8201 170.016 54.8201H119.095C118.539 54.8201 118.091 54.5457 118.084 54.199C118.077 53.8523 118.525 53.5779 119.073 53.5779H170.276C170.832 53.5779 171.221 53.8595 171.149 54.199Z" fill="white"/>
<path d="M97.5846 53.5779H112.026C112.582 53.5779 113.044 53.8595 113.059 54.199C113.073 54.5384 112.633 54.8201 112.084 54.8201H97.7146C97.1658 54.8201 96.6893 54.5457 96.6459 54.199C96.6026 53.8523 97.0286 53.5779 97.5846 53.5779Z" fill="white"/>
<path d="M97.1584 49.6201H152.715C153.278 49.6201 153.697 49.909 153.646 50.2629C153.596 50.6168 153.105 50.9057 152.541 50.9057H97.2956C96.7396 50.9057 96.2486 50.6168 96.2125 50.2629C96.1764 49.909 96.5952 49.6201 97.1584 49.6201Z" fill="white"/>
<path d="M133.226 46.8611C132.656 46.8611 132.208 46.565 132.222 46.1967C132.237 45.8283 132.713 45.5322 133.291 45.5322H162.6C163.178 45.5322 163.589 45.8283 163.524 46.1967C163.459 46.565 162.947 46.8611 162.376 46.8611H133.226Z" fill="white"/>
<path d="M96.7252 45.5181H122.092C122.669 45.5181 123.131 45.8142 123.131 46.1825C123.131 46.5508 122.669 46.8614 122.092 46.8614H96.8696C96.292 46.8614 95.8009 46.5653 95.7576 46.197C95.7143 45.8286 96.1476 45.5181 96.7252 45.5181Z" fill="white"/>
<path d="M191.497 42.6507H121.666C121.088 42.6507 120.611 42.3402 120.611 41.9285C120.611 41.5169 121.081 41.2063 121.666 41.2063H191.887C192.472 41.2063 192.855 41.5169 192.746 41.9285C192.632 42.1583 192.453 42.3493 192.23 42.4777C192.008 42.6061 191.753 42.6663 191.497 42.6507Z" fill="white"/>
<path d="M192.71 38.2958H131.334C130.742 38.2958 130.273 37.978 130.287 37.5735C130.302 37.1691 130.793 36.8513 131.392 36.8513H193.187C193.779 36.8513 194.169 37.1691 194.053 37.5735C193.931 37.8173 193.736 38.0173 193.496 38.1466C193.256 38.2758 192.981 38.3279 192.71 38.2958Z" fill="white"/>
<path opacity="0.5" d="M194.039 33.789H181.157C180.551 33.789 180.139 33.4567 180.233 33.0667C180.346 32.8308 180.528 32.6351 180.755 32.506C180.982 32.3769 181.244 32.3205 181.504 32.3445H194.443C195.05 32.3445 195.447 32.6767 195.324 33.0667C195.202 33.2982 195.016 33.4894 194.788 33.6176C194.56 33.7457 194.3 33.8052 194.039 33.789Z" fill="white"/>
<path d="M172.167 33.7889H124.922C124.323 33.7889 123.832 33.4567 123.839 33.0667C123.846 32.6767 124.33 32.3445 124.937 32.3445H172.492C173.099 32.3445 173.525 32.6767 173.438 33.0667C173.33 33.306 173.149 33.5048 172.92 33.6346C172.692 33.7644 172.428 33.8184 172.167 33.7889Z" fill="white"/>
<path d="M99.137 68.1741H142.772C143.292 68.1741 143.689 68.4196 143.653 68.723C143.617 69.0263 143.183 69.2646 142.664 69.2646H99.2597C98.7398 69.2646 98.2921 69.0191 98.2633 68.723C98.2344 68.4268 98.6171 68.1741 99.137 68.1741Z" fill="white"/>
<path d="M99.4981 71.5396H166.535C167.041 71.5396 167.409 71.7779 167.344 72.0668C167.279 72.3557 166.824 72.594 166.312 72.594H99.6136C99.1009 72.594 98.6605 72.3557 98.6316 72.0668C98.6027 71.7779 98.9854 71.5396 99.4981 71.5396Z" fill="white"/>
<path d="M169.821 29.109H135.667C135.053 29.109 134.576 28.7696 134.598 28.3434C134.62 27.9173 135.132 27.5779 135.753 27.5779H170.11C170.731 27.5779 171.164 27.9173 171.085 28.3434C170.983 28.5889 170.805 28.7954 170.578 28.9331C170.351 29.0708 170.086 29.1324 169.821 29.109Z" fill="white"/>
<path opacity="0.5" d="M126.02 29.109H94.9705C94.3567 29.109 93.8224 28.7696 93.7718 28.3434C93.7213 27.9173 94.1834 27.5779 94.8044 27.5779H126.034C126.648 27.5779 127.146 27.9173 127.139 28.3434C127.132 28.7696 126.633 29.109 126.02 29.109Z" fill="white"/>
<path opacity="0.5" d="M152.448 68.1741C152.968 68.1741 153.358 68.4196 153.314 68.723C153.271 69.0263 152.816 69.2646 152.296 69.2646H148.924C148.411 69.2646 148.021 69.0191 148.058 68.723C148.094 68.4268 148.541 68.1741 149.061 68.1741H152.448Z" fill="white"/>
<path opacity="0.5" d="M111.066 65.2633C111.066 65.5738 110.669 65.8266 110.141 65.8266H105.549C105.022 65.8266 104.574 65.5738 104.553 65.2633C104.531 64.9527 104.935 64.7 105.462 64.7H110.076C110.611 64.7 111.051 64.9527 111.066 65.2633Z" fill="white"/>
<path opacity="0.5" d="M166.485 50.2629C166.42 50.6168 165.914 50.9057 165.351 50.9057H159.979C159.416 50.9057 159.011 50.6168 159.062 50.2629C159.112 49.909 159.625 49.6201 160.188 49.6201H165.589C166.153 49.6201 166.557 49.909 166.485 50.2629Z" fill="white"/>
<path opacity="0.5" d="M183.244 53.5779C183.8 53.5779 184.176 53.8596 184.082 54.199C183.971 54.4055 183.801 54.5745 183.594 54.685C183.388 54.7955 183.153 54.8425 182.919 54.8201H178.637C178.081 54.8201 177.706 54.5457 177.785 54.199C177.895 53.9925 178.063 53.8232 178.269 53.7126C178.474 53.602 178.708 53.5551 178.941 53.5779H183.244Z" fill="white"/>
<path opacity="0.5" d="M113.21 42.6507C112.632 42.6507 112.149 42.3402 112.127 41.9285C112.105 41.5169 112.575 41.2063 113.16 41.2063H117.716C118.301 41.2063 118.777 41.5169 118.785 41.9285C118.792 42.3402 118.322 42.6507 117.745 42.6507H113.21Z" fill="white"/>
<path d="M51.1839 20.4133C51.2853 20.6548 51.3233 20.9182 51.2944 21.1785C51.2655 21.4388 51.1706 21.6874 51.0188 21.9008C50.8669 22.1142 50.6631 22.2852 50.4266 22.3978C50.1902 22.5103 49.9289 22.5606 49.6676 22.5439C49.0367 22.5071 48.4305 22.2855 47.9247 21.9067C47.4188 21.5278 47.0355 21.0085 46.8226 20.4133C46.7159 20.1712 46.6731 19.9058 46.6983 19.6424C46.7235 19.379 46.8159 19.1265 46.9666 18.9091C47.1173 18.6916 47.3214 18.5165 47.5591 18.4006C47.7969 18.2846 48.0604 18.2316 48.3245 18.2467C48.9633 18.2796 49.5775 18.5038 50.0874 18.8901C50.5973 19.2765 50.9793 19.8072 51.1839 20.4133Z" fill="white"/>
<path d="M57.0329 20.4497C57.1237 20.697 57.1513 20.9631 57.1131 21.2238C57.075 21.4844 56.9724 21.7315 56.8146 21.9424C56.6568 22.1533 56.4488 22.3215 56.2095 22.4316C55.9702 22.5418 55.7072 22.5904 55.4444 22.573C54.8215 22.542 54.2227 22.3223 53.7275 21.9431C53.2323 21.5638 52.8641 21.043 52.6716 20.4497C52.5761 20.2012 52.5442 19.9328 52.5789 19.6689C52.6136 19.405 52.7137 19.1539 52.8702 18.9386C53.0266 18.7233 53.2344 18.5505 53.4747 18.436C53.7149 18.3215 53.98 18.2689 54.2457 18.283C54.8771 18.3122 55.4839 18.5362 55.983 18.9241C56.482 19.312 56.8488 19.8449 57.0329 20.4497Z" fill="white"/>
<path d="M62.9754 20.4133C63.0563 20.6686 63.0735 20.9399 63.0254 21.2035C62.9772 21.467 62.8652 21.7147 62.6992 21.9249C62.5332 22.1351 62.3182 22.3015 62.0731 22.4094C61.8279 22.5173 61.5601 22.5634 61.293 22.5438C60.6758 22.5157 60.0829 22.2951 59.5973 21.9131C59.1117 21.531 58.7578 21.0066 58.5852 20.4133C58.5001 20.1589 58.4785 19.8875 58.5222 19.6229C58.5659 19.3582 58.6735 19.1082 58.8358 18.8947C58.9981 18.6811 59.21 18.5104 59.4533 18.3975C59.6965 18.2845 59.9637 18.2327 60.2315 18.2466C60.8609 18.2651 61.4675 18.4859 61.9617 18.8761C62.4558 19.2663 62.8113 19.8053 62.9754 20.4133Z" fill="white"/>
<path d="M57.8919 108.323H42.6634C41.7059 108.323 40.7876 108.703 40.1105 109.38C39.4334 110.057 39.053 110.976 39.053 111.934V119.351C39.053 120.309 39.4334 121.227 40.1105 121.904C40.7876 122.582 41.7059 122.962 42.6634 122.962H46.642L49.6603 129.801L53.9133 122.962H57.8919C58.8495 122.962 59.7678 122.582 60.4448 121.904C61.1219 121.227 61.5023 120.309 61.5023 119.351V111.905C61.4947 110.952 61.1109 110.041 60.4347 109.37C59.7584 108.699 58.8445 108.322 57.8919 108.323Z" fill="white" stroke="#263238" stroke-linecap="round" stroke-linejoin="round"/>
<path d="M48.1585 112.584C48.1585 112.392 48.2346 112.208 48.37 112.073C48.5054 111.937 48.6891 111.861 48.8806 111.861C49.0636 111.861 49.24 111.93 49.3741 112.055C49.5082 112.179 49.5898 112.35 49.6027 112.533C49.6027 112.725 49.5266 112.908 49.3912 113.044C49.2558 113.179 49.0721 113.255 48.8806 113.255C48.6975 113.256 48.5211 113.187 48.3871 113.062C48.253 112.937 48.1713 112.766 48.1585 112.584ZM48.3174 114.093H49.4799V119.047H48.2957L48.3174 114.093Z" fill="#263238"/>
<path d="M52.2743 113.819V114.115H53.639V115.046H52.3177V119.033H51.184V115.046H50.3392V114.115H51.184V113.797C51.1655 113.562 51.1991 113.327 51.2823 113.107C51.3655 112.887 51.4963 112.688 51.6653 112.524C51.8344 112.361 52.0375 112.236 52.2601 112.161C52.4827 112.085 52.7194 112.059 52.9531 112.085C53.3233 112.067 53.6906 112.16 54.0073 112.352L53.6824 113.226C53.4932 113.096 53.2693 113.026 53.0397 113.024C52.5271 113.024 52.2743 113.306 52.2743 113.819Z" fill="#263238"/>
<path d="M104.264 109.363H89.0279C88.0704 109.363 87.1521 109.743 86.475 110.42C85.7979 111.097 85.4175 112.016 85.4175 112.974V120.384C85.4175 121.341 85.7979 122.26 86.475 122.937C87.1521 123.614 88.0704 123.995 89.0279 123.995H93.0138L96.0248 130.834L100.278 123.995H104.264C105.221 123.995 106.139 123.614 106.817 122.937C107.494 122.26 107.874 121.341 107.874 120.384V112.945C107.866 111.992 107.483 111.081 106.806 110.41C106.13 109.739 105.216 109.363 104.264 109.363Z" fill="white" stroke="#263238" stroke-linecap="round" stroke-linejoin="round"/>
<path d="M92.2341 117.964H88.3422C88.4184 118.326 88.6244 118.646 88.9211 118.866C89.2178 119.085 89.5847 119.189 89.9524 119.156C90.2017 119.165 90.4502 119.122 90.6816 119.028C90.913 118.935 91.1222 118.794 91.2954 118.614L91.9164 119.337C91.5414 119.709 91.0678 119.968 90.5513 120.081C90.0347 120.194 89.4966 120.157 89.0001 119.975C88.5036 119.793 88.0693 119.474 87.7481 119.053C87.4269 118.633 87.2322 118.13 87.1868 117.603C87.1767 117.266 87.236 116.93 87.3612 116.616C87.4863 116.303 87.6746 116.018 87.9143 115.78C88.1541 115.543 88.4401 115.357 88.7547 115.234C89.0692 115.112 89.4057 115.055 89.743 115.068C90.0807 115.054 90.4175 115.112 90.7316 115.236C91.0458 115.361 91.3302 115.55 91.5664 115.792C91.8027 116.034 91.9855 116.323 92.103 116.64C92.2205 116.957 92.2701 117.295 92.2486 117.632C92.2486 117.712 92.2414 117.856 92.2341 117.964ZM88.3349 117.199H91.1438C91.1091 116.856 90.9447 116.539 90.6843 116.314C90.4239 116.088 90.0872 115.971 89.743 115.985C89.3985 115.972 89.0618 116.09 88.8006 116.315C88.5393 116.54 88.373 116.856 88.3349 117.199Z" fill="#263238"/>
<path d="M93.3606 113.19H94.5087V120.073H93.3461L93.3606 113.19Z" fill="#263238"/>
<path d="M95.476 119.582L95.9165 118.701C96.4361 119.019 97.0329 119.189 97.6422 119.192C98.3643 119.192 98.682 118.99 98.682 118.643C98.682 117.697 95.6204 118.585 95.6204 116.614C95.6204 115.675 96.4653 115.061 97.7866 115.061C98.4306 115.051 99.0674 115.197 99.6424 115.487L99.1947 116.368C98.7568 116.114 98.2568 115.986 97.7506 116C97.0285 116 96.7108 116.231 96.7108 116.556C96.7108 117.56 99.7724 116.664 99.7724 118.607C99.7724 119.531 98.9203 120.138 97.5267 120.138C96.8053 120.143 96.0962 119.95 95.476 119.582Z" fill="#263238"/>
<path d="M105.455 117.964H101.563C101.639 118.326 101.845 118.646 102.142 118.866C102.439 119.085 102.806 119.189 103.173 119.156C103.423 119.165 103.671 119.122 103.903 119.028C104.134 118.935 104.343 118.794 104.516 118.614L105.137 119.337C104.762 119.709 104.289 119.968 103.772 120.081C103.256 120.194 102.718 120.157 102.221 119.975C101.725 119.793 101.29 119.474 100.969 119.053C100.648 118.633 100.453 118.13 100.408 117.603C100.398 117.266 100.457 116.93 100.582 116.616C100.707 116.303 100.896 116.018 101.135 115.78C101.375 115.543 101.661 115.357 101.976 115.234C102.29 115.112 102.627 115.055 102.964 115.068C103.302 115.054 103.639 115.112 103.953 115.236C104.267 115.361 104.551 115.55 104.787 115.792C105.024 116.034 105.206 116.323 105.324 116.64C105.442 116.957 105.491 117.295 105.47 117.632C105.47 117.712 105.462 117.856 105.455 117.964ZM101.556 117.199H104.365C104.33 116.856 104.166 116.539 103.905 116.314C103.645 116.088 103.308 115.971 102.964 115.985C102.619 115.972 102.283 116.09 102.022 116.315C101.76 116.54 101.594 116.856 101.556 117.199Z" fill="#263238"/>
<path d="M149.22 108.922H133.984C133.027 108.922 132.108 109.302 131.431 109.98C130.754 110.657 130.374 111.575 130.374 112.533V119.95C130.374 120.908 130.754 121.826 131.431 122.504C132.108 123.181 133.027 123.561 133.984 123.561H137.97L140.981 130.401L145.234 123.561H149.22C150.178 123.561 151.096 123.181 151.773 122.504C152.45 121.826 152.83 120.908 152.83 119.95V112.504C152.823 111.551 152.439 110.64 151.763 109.969C151.087 109.298 150.173 108.922 149.22 108.922Z" fill="white" stroke="#263238" stroke-linecap="round" stroke-linejoin="round"/>
<path d="M137.479 114.418V114.75H138.844V115.682H137.515V119.669H136.389V115.682H135.573V114.75H136.389V114.433C136.37 114.198 136.404 113.962 136.487 113.742C136.57 113.522 136.701 113.323 136.87 113.16C137.039 112.996 137.242 112.872 137.465 112.796C137.687 112.72 137.924 112.695 138.158 112.721C138.526 112.703 138.891 112.796 139.205 112.988L138.88 113.862C138.695 113.729 138.473 113.656 138.244 113.653C137.732 113.616 137.479 113.891 137.479 114.418Z" fill="#263238"/>
<path d="M139.14 117.155C139.12 116.628 139.258 116.107 139.536 115.659C139.814 115.212 140.22 114.857 140.701 114.642C141.182 114.426 141.717 114.36 142.236 114.45C142.755 114.541 143.236 114.785 143.615 115.152C143.995 115.518 144.256 115.989 144.366 116.505C144.475 117.02 144.428 117.557 144.23 118.046C144.033 118.535 143.693 118.953 143.256 119.248C142.818 119.542 142.303 119.699 141.775 119.698C141.432 119.718 141.088 119.666 140.766 119.547C140.443 119.427 140.149 119.242 139.901 119.004C139.653 118.765 139.458 118.477 139.327 118.159C139.196 117.841 139.132 117.499 139.14 117.155ZM143.248 117.155C143.229 116.875 143.128 116.606 142.957 116.382C142.787 116.158 142.555 115.989 142.29 115.895C142.025 115.801 141.739 115.787 141.466 115.853C141.192 115.92 140.945 116.065 140.753 116.27C140.561 116.476 140.433 116.733 140.385 117.01C140.337 117.287 140.371 117.572 140.482 117.83C140.594 118.088 140.779 118.308 141.013 118.463C141.248 118.617 141.523 118.7 141.804 118.701C142.003 118.701 142.199 118.661 142.381 118.582C142.563 118.503 142.727 118.388 142.863 118.243C142.998 118.098 143.103 117.926 143.169 117.739C143.235 117.552 143.262 117.353 143.248 117.155Z" fill="#263238"/>
<path d="M148.389 114.62V115.725C148.3 115.719 148.211 115.719 148.122 115.725C147.921 115.709 147.719 115.739 147.53 115.811C147.342 115.884 147.172 115.998 147.033 116.145C146.895 116.292 146.791 116.468 146.73 116.66C146.668 116.853 146.65 117.056 146.678 117.256V119.661H145.516V114.678H146.62V115.4C146.822 115.128 147.092 114.913 147.402 114.776C147.712 114.64 148.052 114.586 148.389 114.62Z" fill="#263238"/>
<path d="M193.526 108.323H178.269C177.311 108.323 176.393 108.703 175.716 109.38C175.039 110.057 174.659 110.976 174.659 111.934V119.351C174.659 120.309 175.039 121.227 175.716 121.904C176.393 122.582 177.311 122.962 178.269 122.962H182.255L185.266 129.801L189.519 122.962H193.505C194.462 122.962 195.381 122.582 196.058 121.904C196.735 121.227 197.115 120.309 197.115 119.351V111.905C197.107 110.956 196.727 110.048 196.055 109.378C195.384 108.707 194.475 108.328 193.526 108.323Z" fill="white" stroke="#263238" stroke-linecap="round" stroke-linejoin="round"/>
<path d="M183.93 113.833H188.205V114.75H183.93V113.833ZM183.93 116.079H188.205V117.011H183.93V116.079Z" fill="#263238"/>
<path d="M81.1138 99.7498H65.8781C64.9205 99.7498 64.0022 100.13 63.3252 100.807C62.6481 101.485 62.2677 102.403 62.2677 103.361V110.771C62.2677 111.729 62.6481 112.647 63.3252 113.324C64.0022 114.002 64.9205 114.382 65.8781 114.382H69.8639L72.875 121.221L77.128 114.382H81.1138C82.0713 114.382 82.9897 114.002 83.6667 113.324C84.3438 112.647 84.7242 111.729 84.7242 110.771V103.332C84.7166 102.379 84.3328 101.468 83.6566 100.797C82.9803 100.126 82.0664 99.7497 81.1138 99.7498Z" fill="white" stroke="#263238" stroke-linecap="round" stroke-linejoin="round"/>
<path d="M69.9145 102.826H72.124V103.758H71.0698V110.583H72.124V111.515H69.9145V102.826Z" fill="#263238"/>
<path d="M75.0125 111.515V110.583H76.0595V103.758H75.0125V102.826H77.1788V111.493L75.0125 111.515Z" fill="#263238"/>
<path d="M126.403 98.9915H111.167C110.209 98.9915 109.291 99.3719 108.614 100.049C107.937 100.726 107.556 101.645 107.556 102.603V109.984C107.556 110.941 107.937 111.86 108.614 112.537C109.291 113.214 110.209 113.595 111.167 113.595H115.153L118.171 120.434L122.424 113.595H126.403C127.36 113.595 128.278 113.214 128.956 112.537C129.633 111.86 130.013 110.941 130.013 109.984V102.574C130.005 101.621 129.622 100.71 128.945 100.039C128.269 99.3679 127.355 98.9914 126.403 98.9915Z" fill="white" stroke="#263238" stroke-linecap="round" stroke-linejoin="round"/>
<path d="M115.687 106.38C116.055 106.503 116.236 106.755 116.236 107.326V109.095C116.219 109.191 116.225 109.289 116.253 109.381C116.281 109.474 116.331 109.559 116.397 109.629C116.464 109.699 116.546 109.753 116.637 109.785C116.728 109.818 116.825 109.829 116.922 109.818H117.116V110.749H116.647C116.438 110.78 116.225 110.763 116.024 110.699C115.823 110.635 115.639 110.525 115.487 110.378C115.335 110.232 115.218 110.052 115.147 109.854C115.075 109.655 115.05 109.443 115.073 109.233V107.326C115.073 107.015 114.914 106.878 114.654 106.878H114.351V105.932H114.654C114.914 105.932 115.073 105.795 115.073 105.484V103.57C115.049 103.361 115.074 103.148 115.146 102.95C115.218 102.752 115.335 102.572 115.487 102.426C115.639 102.28 115.823 102.171 116.024 102.108C116.226 102.045 116.439 102.029 116.647 102.061H117.116V102.993H116.893C116.796 102.98 116.698 102.989 116.606 103.022C116.515 103.054 116.432 103.108 116.365 103.178C116.298 103.249 116.249 103.334 116.221 103.427C116.194 103.521 116.189 103.619 116.207 103.715V105.477C116.236 106.012 116.055 106.264 115.687 106.38Z" fill="#263238"/>
<path d="M122.763 105.91V106.856H122.445C122.193 106.856 122.034 106.993 122.034 107.304V109.211C122.056 109.421 122.03 109.634 121.957 109.832C121.884 110.031 121.767 110.21 121.615 110.356C121.462 110.503 121.278 110.612 121.077 110.677C120.875 110.741 120.662 110.758 120.453 110.727H119.983V109.796H120.178C120.277 109.812 120.378 109.805 120.473 109.774C120.568 109.743 120.654 109.691 120.725 109.62C120.795 109.549 120.848 109.463 120.878 109.368C120.909 109.273 120.916 109.172 120.9 109.073V107.304C120.9 106.733 121.066 106.481 121.435 106.358C121.066 106.242 120.9 105.99 120.9 105.412V103.65C120.918 103.551 120.912 103.449 120.882 103.353C120.852 103.257 120.799 103.17 120.728 103.099C120.657 103.028 120.57 102.976 120.474 102.946C120.379 102.916 120.277 102.909 120.178 102.927H119.983V102.039H120.453C120.661 102.007 120.875 102.023 121.076 102.086C121.278 102.15 121.462 102.259 121.615 102.404C121.767 102.55 121.885 102.729 121.957 102.928C122.03 103.126 122.056 103.338 122.034 103.548V105.462C122.034 105.773 122.193 105.91 122.445 105.91H122.763Z" fill="#263238"/>
<path d="M171.214 97.4893H155.979C155.021 97.4893 154.103 97.8697 153.426 98.5469C152.749 99.2241 152.368 100.143 152.368 101.1V108.51C152.368 109.468 152.749 110.387 153.426 111.064C154.103 111.741 155.021 112.122 155.979 112.122H159.957L162.976 118.961L167.229 112.122H171.214C172.172 112.122 173.09 111.741 173.767 111.064C174.444 110.387 174.825 109.468 174.825 108.51V101.071C174.817 100.119 174.433 99.2077 173.757 98.5367C173.081 97.8657 172.167 97.4892 171.214 97.4893Z" fill="white" stroke="#263238" stroke-linecap="round" stroke-linejoin="round"/>
<path d="M162.99 102.971C162.98 102.865 162.992 102.757 163.025 102.656C163.059 102.555 163.113 102.461 163.185 102.382C163.257 102.303 163.344 102.24 163.442 102.197C163.539 102.153 163.645 102.131 163.752 102.131C163.859 102.131 163.964 102.153 164.062 102.197C164.159 102.24 164.247 102.303 164.319 102.382C164.39 102.461 164.445 102.555 164.478 102.656C164.512 102.757 164.524 102.865 164.514 102.971C164.524 103.077 164.512 103.185 164.478 103.286C164.445 103.387 164.39 103.481 164.319 103.56C164.247 103.639 164.159 103.702 164.062 103.745C163.964 103.788 163.859 103.811 163.752 103.811C163.645 103.811 163.539 103.788 163.442 103.745C163.344 103.702 163.257 103.639 163.185 103.56C163.113 103.481 163.059 103.387 163.025 103.286C162.992 103.185 162.98 103.077 162.99 102.971ZM164.514 106.51C164.494 106.786 164.42 107.056 164.297 107.304L163.82 108.619H163.098L163.474 107.174C163.34 107.118 163.226 107.022 163.147 106.899C163.069 106.777 163.029 106.634 163.033 106.488C163.033 106.288 163.113 106.096 163.254 105.954C163.396 105.813 163.588 105.733 163.788 105.733C163.988 105.733 164.18 105.813 164.321 105.954C164.463 106.096 164.542 106.288 164.542 106.488L164.514 106.51Z" fill="#263238"/>
<path d="M111.658 227.085H126.886C127.844 227.085 128.762 226.704 129.439 226.027C130.116 225.35 130.496 224.431 130.496 223.474V216.085C130.487 215.134 130.102 214.225 129.426 213.555C128.75 212.886 127.837 212.51 126.886 212.51H122.908L121.745 205.671L115.636 212.51H111.658C110.706 212.51 109.793 212.886 109.117 213.555C108.441 214.225 108.057 215.134 108.047 216.085V223.503C108.055 224.455 108.439 225.366 109.115 226.037C109.791 226.708 110.705 227.085 111.658 227.085Z" fill="white" stroke="#263238" stroke-linecap="round" stroke-linejoin="round"/>
<path d="M117.008 218.274L113.809 219.473L117.008 220.672V221.639L112.734 219.978V218.967L117.008 217.306V218.274Z" fill="#263238"/>
<path d="M120.388 214.901H121.42L118.337 223.647H117.326L120.388 214.901Z" fill="#263238"/>
<path d="M125.919 218.967V219.971L121.644 221.632V220.664L124.836 219.473L121.637 218.281V217.306L125.919 218.967Z" fill="#263238"/>
<path d="M14.813 173.099H30.0415C30.999 173.099 31.9173 172.719 32.5944 172.041C33.2715 171.364 33.6519 170.446 33.6519 169.488V162.107C33.6519 161.149 33.2715 160.231 32.5944 159.553C31.9173 158.876 30.999 158.496 30.0415 158.496H26.0629L26.9294 151.656L18.7916 158.496H14.813C13.8554 158.496 12.9371 158.876 12.2601 159.553C11.583 160.231 11.2026 161.149 11.2026 162.107V169.517C11.2102 170.47 11.594 171.381 12.2702 172.052C12.9465 172.723 13.8604 173.099 14.813 173.099Z" fill="white" stroke="#263238" stroke-linecap="round" stroke-linejoin="round"/>
<path d="M19.3262 168.397C19.3262 168.206 19.4022 168.022 19.5377 167.886C19.6731 167.751 19.8567 167.675 20.0482 167.675C20.2398 167.675 20.4234 167.751 20.5588 167.886C20.6942 168.022 20.7703 168.206 20.7703 168.397C20.7703 168.589 20.6942 168.772 20.5588 168.908C20.4234 169.043 20.2398 169.119 20.0482 169.119C19.8567 169.119 19.6731 169.043 19.5377 168.908C19.4022 168.772 19.3262 168.589 19.3262 168.397ZM19.4128 162.562H20.7848L20.5537 166.895H19.615L19.4128 162.562Z" fill="#263238"/>
<path d="M21.9617 164.223H26.2364V165.154H21.9617V164.223ZM21.9617 166.469H26.2364V167.4H21.9617V166.469Z" fill="#263238"/>
</svg>
