<svg width="254" height="235" viewBox="0 0 254 235" fill="none" xmlns="http://www.w3.org/2000/svg">
<path d="M214.416 72.376C217.111 71.6937 219.501 70.1565 221.33 68.0383L225.751 69.6599L227.957 65.5161L224.454 62.1777C224.839 60.8057 225.044 59.3528 225.044 57.8435C225.044 56.3382 224.839 54.8819 224.454 53.5133L227.957 50.1708L225.751 46.027L221.33 47.6486C219.501 45.5311 217.111 43.9939 214.416 43.3143L213.498 38.3543H211.293" stroke="#1A2E35" stroke-width="1.33333" stroke-miterlimit="10"/>
<path d="M209.088 38.3542L208.173 43.3143C205.478 43.9938 203.085 45.5304 201.256 47.6485L196.836 46.0269L194.63 50.1707L198.132 53.5125C197.75 54.8811 197.542 56.3374 197.542 57.8434C197.542 59.3528 197.75 60.805 198.132 62.177L194.63 65.5161L196.836 69.6599L201.256 68.0383C203.085 70.1557 205.478 71.693 208.173 72.3759L209.088 77.3359H213.498L214.416 72.3759" stroke="#1A2E35" stroke-width="1.33333" stroke-miterlimit="10"/>
<path d="M211.014 65.8228C203.151 65.2262 201.673 52.8071 209.534 50.6257" stroke="#1A2E35" stroke-width="1.33333" stroke-miterlimit="10"/>
<path d="M215.987 52.3341C219.9 56.2235 218.662 63.8132 213.446 65.5273" stroke="#1A2E35" stroke-width="1.33333" stroke-miterlimit="10"/>
<path d="M212.19 50.4487C212.872 50.5412 213.541 50.7398 214.169 51.0432" stroke="#1A2E35" stroke-width="1.33333" stroke-miterlimit="10"/>
<path d="M237.843 76.1512L238.771 74.9439C240.469 75.4506 242.301 75.4214 244.031 74.7997L246.116 77.2437" stroke="#1A2E35" stroke-width="1.33333" stroke-miterlimit="10"/>
<path d="M234.417 57.2912L234.82 58.4816C233.522 59.8678 232.665 61.6234 232.31 63.4947L229.313 64.2327L229.387 67.382L232.414 67.9527C232.633 68.8635 232.978 69.7593 233.455 70.6041C233.934 71.4517 234.51 72.1904 235.16 72.8182L234.251 75.9988L236.803 77.5034" stroke="#1A2E35" stroke-width="1.33333" stroke-miterlimit="10"/>
<path d="M246.116 77.2446L248.593 75.5999L247.537 72.4723C248.833 71.084 249.688 69.3298 250.044 67.4586L253.04 66.7205L252.965 63.5712L249.941 63.0026C249.723 62.0884 249.376 61.1959 248.899 60.3491C248.421 59.5029 247.845 58.7615 247.195 58.1371L248.102 54.9544L245.551 53.4498L243.582 56.0087C241.883 55.502 240.054 55.5299 238.325 56.1536L236.239 53.7103L233.762 55.355" stroke="#1A2E35" stroke-width="1.33333" stroke-miterlimit="10"/>
<path d="M245.748 64.3178C246.604 68.227 243.183 71.9885 239.565 70.4009C236.115 68.8874 235.614 63.3996 238.814 61.2903" stroke="#1A2E35" stroke-width="1.33333" stroke-miterlimit="10"/>
<path d="M242.789 60.812C243.511 61.0786 244.171 61.5296 244.69 62.1377" stroke="#1A2E35" stroke-width="1.33333" stroke-miterlimit="10"/>
<path d="M44.0422 141.665L48.7515 146.774C48.3671 148.568 48.8143 150.531 50.1042 151.93C51.3941 153.329 53.2019 153.814 54.8568 153.397L51.8989 150.187L52.7003 146.942L55.6927 146.072L58.6506 149.281C59.0357 147.486 58.5886 145.524 57.2993 144.125C56.0088 142.726 54.2003 142.241 52.546 142.659L48.2085 137.954" stroke="#1A2E35" stroke-width="1.33333" stroke-miterlimit="10"/>
<path d="M41.3169 130.478L36.9944 125.789C37.3788 123.995 36.9317 122.033 35.6424 120.633C34.3525 119.235 32.544 118.75 30.8891 119.167L33.8471 122.376L33.0457 125.622L30.0532 126.492L27.0947 123.282C26.7109 125.078 27.1574 127.039 28.4473 128.438C29.7372 129.838 31.5457 130.323 33.2006 129.905L37.523 134.594" stroke="#1A2E35" stroke-width="1.33333" stroke-miterlimit="10"/>
<path d="M46.1701 135.411L52.1976 128.873C52.4936 128.551 52.8335 128.281 53.206 128.073L54.4194 127.392L58.7845 121.981L56.056 119.022L51.0676 123.757L50.4405 125.074C50.248 125.477 49.9997 125.845 49.7031 126.167L44.9229 131.352" stroke="#1A2E35" stroke-width="1.33333" stroke-miterlimit="10"/>
<path d="M30.1299 152.558C31.0116 153.064 31.9183 153.068 32.7505 152.166L43.1951 140.836C43.7746 140.208 43.9445 139.539 43.8391 138.869L45.6502 136.905L45.7605 137.024C46.0214 137.307 46.4484 137.307 46.7087 137.024C46.9695 136.741 46.9695 136.278 46.7087 135.995L43.1362 132.12C42.8759 131.837 42.4489 131.837 42.188 132.12C41.9272 132.403 41.9272 132.866 42.188 133.149L42.2984 133.269L40.488 135.233C39.8691 135.119 39.2533 135.304 38.6739 135.933L28.2292 147.262C27.6805 147.857 27.4955 148.489 27.567 149.123" stroke="#1A2E35" stroke-width="1.33333" stroke-miterlimit="10"/>
<path d="M27.9842 150.325C28.2074 150.722 28.5065 151.113 28.8533 151.49C29.2647 151.936 29.6948 152.308 30.13 152.559" stroke="#1A2E35" stroke-width="1.33333" stroke-miterlimit="10"/>
<path d="M31.1979 149.123L33.0208 147.146" stroke="#1A2E35" stroke-width="1.33333" stroke-miterlimit="10"/>
<path d="M35.4875 144.47L43.1981 135.928" stroke="#1A2E35" stroke-width="1.33333" stroke-miterlimit="10"/>
<path d="M203.784 0.000694275H36.6018V117.814H203.784V0.000694275Z" fill="white"/>
<path d="M203.784 0.000694275H36.6022V117.814H54.2777H82.3026H203.784V0.000694275Z" fill="#C4C4C4"/>
<path d="M36.6024 15.4128H203.785V0.000145912H36.6024V15.4128Z" fill="white"/>
<path d="M36.6024 15.4128H203.785V0.000145912H36.6024V15.4128Z" fill="#767676"/>
<path d="M198.661 12.958H192.26C191.354 12.958 190.619 12.1615 190.619 11.1786V4.23509C190.619 3.2522 191.354 2.45568 192.26 2.45568H198.661C199.567 2.45568 200.301 3.2522 200.301 4.23509V11.1786C200.301 12.1615 199.567 12.958 198.661 12.958Z" fill="white"/>
<path d="M186.78 12.958H180.41C179.496 12.958 178.754 12.1533 178.754 11.1609V4.2521C178.754 3.25968 179.496 2.45568 180.41 2.45568H186.78C187.695 2.45568 188.437 3.25968 188.437 4.2521V11.1609C188.437 12.1533 187.695 12.958 186.78 12.958Z" fill="white"/>
<path d="M174.93 12.958H168.53C167.623 12.958 166.888 12.1615 166.888 11.1779V4.23577C166.888 3.2522 167.623 2.45568 168.53 2.45568H174.93C175.836 2.45568 176.571 3.2522 176.571 4.23577V11.1779C176.571 12.1615 175.836 12.958 174.93 12.958Z" fill="white"/>
<path d="M42.8734 25.7631V107.464C42.8734 109.424 44.3376 111.012 46.1436 111.012H194.243C196.049 111.012 197.514 109.424 197.514 107.464V25.7631C197.514 23.8041 196.049 22.2152 194.243 22.2152H46.1436C44.3376 22.2152 42.8734 23.8041 42.8734 25.7631Z" fill="#424242"/>
<path d="M42.8734 25.7631V107.464C42.8734 109.424 44.3376 111.012 46.1436 111.012H194.243C196.049 111.012 197.514 109.424 197.514 107.464V25.7631C197.514 23.8041 196.049 22.2152 194.243 22.2152H46.1436C44.3376 22.2152 42.8734 23.8041 42.8734 25.7631Z" stroke="#424242" stroke-width="1.33333" stroke-miterlimit="10" stroke-linecap="round" stroke-linejoin="round"/>
<path d="M193.383 9.95898L197.537 5.45333" stroke="#424242" stroke-width="1.33333" stroke-miterlimit="10" stroke-linecap="round" stroke-linejoin="round"/>
<path d="M193.383 5.45333L197.537 9.95898" stroke="#424242" stroke-width="1.33333" stroke-miterlimit="10" stroke-linecap="round" stroke-linejoin="round"/>
<path d="M186.364 10.7102H180.826V6.74327H186.364V10.7102Z" stroke="#424242" stroke-width="1.33333" stroke-miterlimit="10" stroke-linecap="round" stroke-linejoin="round"/>
<path d="M174.498 10.7107H168.96" stroke="#424242" stroke-width="1.33333" stroke-miterlimit="10" stroke-linecap="round" stroke-linejoin="round"/>
<path d="M187.788 82.5776H176.798C176.105 82.5776 175.544 81.9682 175.544 81.2172C175.544 80.4663 176.105 79.8568 176.798 79.8568H187.788C188.48 79.8568 189.042 80.4663 189.042 81.2172C189.042 81.9682 188.48 82.5776 187.788 82.5776Z" fill="#E1FFCA"/>
<path d="M187.788 91.9873H157.105C156.413 91.9873 155.851 91.3778 155.851 90.6269C155.851 89.876 156.413 89.2665 157.105 89.2665H187.788C188.48 89.2665 189.042 89.876 189.042 90.6269C189.042 91.3778 188.48 91.9873 187.788 91.9873Z" fill="#E1FFCA"/>
<path d="M187.788 101.396H120.193C119.501 101.396 118.939 100.787 118.939 100.036C118.939 99.2851 119.501 98.6757 120.193 98.6757H187.788C188.48 98.6757 189.042 99.2851 189.042 100.036C189.042 100.787 188.48 101.396 187.788 101.396Z" fill="#E1FFCA"/>
<path d="M54.4728 73.168H49.3533C48.6604 73.168 48.0992 72.5585 48.0992 71.8076C48.0992 71.0566 48.6604 70.4472 49.3533 70.4472H54.4728C55.1651 70.4472 55.727 71.0566 55.727 71.8076C55.727 72.5585 55.1651 73.168 54.4728 73.168Z" fill="#C4C4C4"/>
<path d="M54.4728 82.5776H49.3533C48.6604 82.5776 48.0992 81.9682 48.0992 81.2172C48.0992 80.4663 48.6604 79.8568 49.3533 79.8568H54.4728C55.1651 79.8568 55.727 80.4663 55.727 81.2172C55.727 81.9682 55.1651 82.5776 54.4728 82.5776Z" fill="#C4C4C4"/>
<path d="M54.4728 91.9873H49.3533C48.6604 91.9873 48.0992 91.3778 48.0992 90.6269C48.0992 89.876 48.6604 89.2665 49.3533 89.2665H54.4728C55.1651 89.2665 55.727 89.876 55.727 90.6269C55.727 91.3778 55.1651 91.9873 54.4728 91.9873Z" fill="#C4C4C4"/>
<path d="M54.4728 101.396H49.3533C48.6604 101.396 48.0992 100.787 48.0992 100.036C48.0992 99.2851 48.6604 98.6757 49.3533 98.6757H54.4728C55.1651 98.6757 55.727 99.2851 55.727 100.036C55.727 100.787 55.1651 101.396 54.4728 101.396Z" fill="#C4C4C4"/>
<g opacity="0.699997">
<g opacity="0.699997">
<path opacity="0.699997" d="M54.4734 73.1675H49.354C48.661 73.1675 48.0998 72.558 48.0998 71.8071C48.0998 71.0561 48.661 70.4467 49.354 70.4467H54.4734C55.1657 70.4467 55.7276 71.0561 55.7276 71.8071C55.7276 72.558 55.1657 73.1675 54.4734 73.1675Z" fill="#C4C4C4"/>
</g>
</g>
<g opacity="0.699997">
<g opacity="0.699997">
<path opacity="0.699997" d="M54.4728 82.5776H49.3533C48.6604 82.5776 48.0992 81.9682 48.0992 81.2172C48.0992 80.4663 48.6604 79.8568 49.3533 79.8568H54.4728C55.1651 79.8568 55.727 80.4663 55.727 81.2172C55.727 81.9682 55.1651 82.5776 54.4728 82.5776Z" fill="#C4C4C4"/>
</g>
</g>
<g opacity="0.699997">
<g opacity="0.699997">
<path opacity="0.699997" d="M54.4728 91.9873H49.3533C48.6604 91.9873 48.0992 91.3778 48.0992 90.6269C48.0992 89.876 48.6604 89.2665 49.3533 89.2665H54.4728C55.1651 89.2665 55.727 89.876 55.727 90.6269C55.727 91.3778 55.1651 91.9873 54.4728 91.9873Z" fill="#C4C4C4"/>
</g>
</g>
<g opacity="0.699997">
<g opacity="0.699997">
<path opacity="0.699997" d="M54.4728 101.396H49.3533C48.6604 101.396 48.0992 100.787 48.0992 100.036C48.0992 99.2851 48.6604 98.6757 49.3533 98.6757H54.4728C55.1651 98.6757 55.727 99.2851 55.727 100.036C55.727 100.787 55.1651 101.396 54.4728 101.396Z" fill="#C4C4C4"/>
</g>
</g>
<path d="M157.105 63.7588H49.3531C48.6608 63.7588 48.099 63.1493 48.099 62.3984C48.099 61.6474 48.6608 61.038 49.3531 61.038H157.105C157.797 61.038 158.359 61.6474 158.359 62.3984C158.359 63.1493 157.797 63.7588 157.105 63.7588Z" fill="#C4C4C4"/>
<path d="M187.788 44.9397H176.798C176.105 44.9397 175.544 44.3302 175.544 43.5793C175.544 42.8283 176.105 42.2189 176.798 42.2189H187.788C188.48 42.2189 189.042 42.8283 189.042 43.5793C189.042 44.3302 188.48 44.9397 187.788 44.9397Z" fill="#C4C4C4"/>
<path d="M172.199 44.9397H161.704C161.011 44.9397 160.449 44.3302 160.449 43.5793C160.449 42.8283 161.011 42.2189 161.704 42.2189H172.199C172.891 42.2189 173.453 42.8283 173.453 43.5793C173.453 44.3302 172.891 44.9397 172.199 44.9397Z" fill="#C4C4C4"/>
<path d="M157.105 44.9397H49.3529C48.6606 44.9397 48.0988 44.3302 48.0988 43.5793C48.0988 42.8283 48.6606 42.2189 49.3529 42.2189H157.105C157.797 42.2189 158.359 42.8283 158.359 43.5793C158.359 44.3302 157.797 44.9397 157.105 44.9397Z" fill="#C4C4C4"/>
<path d="M187.788 73.168H176.798C176.105 73.168 175.543 72.5585 175.543 71.8076C175.543 71.0566 176.105 70.4472 176.798 70.4472H187.788C188.48 70.4472 189.042 71.0566 189.042 71.8076C189.042 72.5585 188.48 73.168 187.788 73.168Z" fill="#E1FFCA"/>
<path d="M172.2 73.168H60.1165C59.4242 73.168 58.8624 72.5585 58.8624 71.8076C58.8624 71.0566 59.4242 70.4472 60.1165 70.4472H172.2C172.892 70.4472 173.454 71.0566 173.454 71.8076C173.454 72.5585 172.892 73.168 172.2 73.168Z" fill="#E1FFCA"/>
<path d="M92.3066 82.5776H60.1167C59.4238 82.5776 58.8625 81.9682 58.8625 81.2172C58.8625 80.4663 59.4238 79.8568 60.1167 79.8568H92.3066C92.9989 79.8568 93.5607 80.4663 93.5607 81.2172C93.5607 81.9682 92.9989 82.5776 92.3066 82.5776Z" fill="#E1FFCA"/>
<path d="M92.3064 91.9873H60.1165C59.4236 91.9873 58.8624 91.3778 58.8624 90.6269C58.8624 89.876 59.4236 89.2665 60.1165 89.2665H92.3064C92.9987 89.2665 93.5606 89.876 93.5606 90.6269C93.5606 91.3778 92.9987 91.9873 92.3064 91.9873Z" fill="#E1FFCA"/>
<path d="M92.3064 101.396H60.1165C59.4236 101.396 58.8624 100.787 58.8624 100.036C58.8624 99.2851 59.4236 98.6757 60.1165 98.6757H92.3064C92.9987 98.6757 93.5606 99.2851 93.5606 100.036C93.5606 100.787 92.9987 101.396 92.3064 101.396Z" fill="#E1FFCA"/>
<path d="M71.167 222.073C71.167 222.073 67.8773 228.213 69.1728 228.436C70.4678 228.657 73.178 223.348 73.178 223.348L80.6083 221.212L75.0116 220.585L71.167 222.073Z" fill="white"/>
<path d="M71.167 222.073C71.167 222.073 67.8773 228.213 69.1728 228.436C70.4678 228.657 73.178 223.348 73.178 223.348L80.6083 221.212L75.0116 220.585L71.167 222.073Z" stroke="#1A2E35" stroke-width="1.33333" stroke-miterlimit="10" stroke-linecap="round" stroke-linejoin="round"/>
<g opacity="0.300003">
<g opacity="0.300003">
<path opacity="0.300003" d="M71.1665 222.074C71.1665 222.074 67.8769 228.214 69.1724 228.436C70.4673 228.657 73.1776 223.349 73.1776 223.349L80.6078 221.212L75.0112 220.586L71.1665 222.074Z" fill="black"/>
</g>
<g opacity="0.300003">
<path opacity="0.300003" d="M71.1665 222.074C71.1665 222.074 67.8769 228.214 69.1724 228.436C70.4673 228.657 73.1776 223.349 73.1776 223.349L80.6078 221.212L75.0112 220.586L71.1665 222.074Z" stroke="#1A2E35" stroke-width="1.33333" stroke-miterlimit="10" stroke-linecap="round" stroke-linejoin="round"/>
</g>
</g>
<path d="M73.6682 217.887C73.6682 217.887 69.068 216.699 67.7981 219.042C66.5277 221.387 62.8034 228.323 64.1999 229.117C65.5958 229.912 66.8124 227.347 66.8124 227.347L73.6682 217.887Z" fill="white"/>
<path d="M73.6682 217.887C73.6682 217.887 69.068 216.699 67.7981 219.042C66.5277 221.387 62.8034 228.323 64.1999 229.117C65.5958 229.912 66.8124 227.347 66.8124 227.347L73.6682 217.887Z" stroke="#1A2E35" stroke-width="1.33333" stroke-miterlimit="10" stroke-linecap="round" stroke-linejoin="round"/>
<path d="M92.4938 225C92.4938 225 87.8766 226.892 83.0612 226.074L77.8238 227.962C77.8238 227.962 73.2217 230.421 71.0808 229.181C68.94 227.942 76.5371 225.208 76.5371 225.208C76.5371 225.208 81.6472 222.809 80.1208 222.234C78.5945 221.657 72.8304 221.766 71.6966 222.709C70.5629 223.652 67.5936 229.757 65.4509 229.409C63.3082 229.061 66.3564 225.736 67.1258 224.456C67.8959 223.175 69.6229 218.072 73.1232 217.86C76.6242 217.647 88.4033 218.301 88.4033 218.301L102.255 216.696L105.523 225.242L92.4938 225Z" fill="white"/>
<path d="M92.4938 225C92.4938 225 87.8766 226.892 83.0612 226.074L77.8238 227.962C77.8238 227.962 73.2217 230.421 71.0808 229.181C68.94 227.942 76.5371 225.208 76.5371 225.208C76.5371 225.208 81.6472 222.809 80.1208 222.234C78.5945 221.657 72.8304 221.766 71.6966 222.709C70.5629 223.652 67.5936 229.757 65.4509 229.409C63.3082 229.061 66.3564 225.736 67.1258 224.456C67.8959 223.175 69.6229 218.072 73.1232 217.86C76.6242 217.647 88.4033 218.301 88.4033 218.301L102.255 216.696L105.523 225.242L92.4938 225Z" stroke="#1A2E35" stroke-width="1.33333" stroke-miterlimit="10" stroke-linecap="round" stroke-linejoin="round"/>
<path d="M99.7233 227.116C100.393 227.574 101.34 227.865 102.365 227.072C102.365 227.072 103.865 227.78 104.877 226.572C105.889 225.364 105.978 214.802 103.178 213.612C102.37 213.269 100.353 213.304 100.021 214.53C100.021 214.53 98.2804 213.881 97.9857 215.905C97.7091 217.81 99.453 219.583 98.8692 225.062C98.7827 225.872 99.1207 226.704 99.7233 227.116Z" fill="#1A095A"/>
<path d="M99.7233 227.116C100.393 227.574 101.34 227.865 102.365 227.072C102.365 227.072 103.865 227.78 104.877 226.572C105.889 225.364 105.978 214.802 103.178 213.612C102.37 213.269 100.353 213.304 100.021 214.53C100.021 214.53 98.2804 213.881 97.9857 215.905C97.7091 217.81 99.453 219.583 98.8692 225.062C98.7827 225.872 99.1207 226.704 99.7233 227.116Z" stroke="#1A2E35" stroke-width="1.33333" stroke-miterlimit="10" stroke-linecap="round" stroke-linejoin="round"/>
<g opacity="0.300003">
<g opacity="0.300003">
<path opacity="0.300003" d="M99.7234 227.116C100.393 227.574 101.34 227.865 102.365 227.072C102.365 227.072 103.865 227.78 104.877 226.572C105.889 225.364 105.979 214.802 103.178 213.612C102.37 213.269 100.353 213.304 100.021 214.53C100.021 214.53 98.2805 213.881 97.9857 215.905C97.7092 217.81 99.4531 219.583 98.8693 225.062C98.7828 225.872 99.1208 226.704 99.7234 227.116Z" fill="black"/>
</g>
<g opacity="0.300003">
<path opacity="0.300003" d="M99.7234 227.116C100.393 227.574 101.34 227.865 102.365 227.072C102.365 227.072 103.865 227.78 104.877 226.572C105.889 225.364 105.979 214.802 103.178 213.612C102.37 213.269 100.353 213.304 100.021 214.53C100.021 214.53 98.2805 213.881 97.9857 215.905C97.7092 217.81 99.4531 219.583 98.8693 225.062C98.7828 225.872 99.1208 226.704 99.7234 227.116Z" stroke="#1A2E35" stroke-width="1.33333" stroke-miterlimit="10" stroke-linecap="round" stroke-linejoin="round"/>
</g>
</g>
<path d="M102.919 224.653C102.919 224.653 103.001 220.074 101.264 216.309" stroke="#1A2E35" stroke-width="1.33333" stroke-miterlimit="10" stroke-linecap="round" stroke-linejoin="round"/>
<path d="M168.846 220.816C168.383 224.686 167.855 228.877 167.253 233.427H113.425L113.682 225.904C110.465 226.748 104.213 226.23 104.213 226.23V215.109C108.013 212.777 108.578 213.429 108.578 213.429C108.578 213.429 108.772 186.289 111.049 179.514C112.015 176.644 113.707 174.597 115.5 173.161V173.155C116.065 172.699 116.635 172.304 117.2 171.964C117.231 171.943 117.256 171.93 117.282 171.91C117.909 171.549 118.667 171.169 119.533 170.774C119.608 170.739 119.689 170.705 119.771 170.671C128.199 166.937 146.592 162.604 163.73 170.55C164.927 171.107 174.71 176.174 175.544 183.501C176.02 187.676 173.399 208.45 168.846 220.816Z" fill="#1A095A"/>
<g opacity="0.199997">
<g opacity="0.199997">
<path opacity="0.199997" d="M160.319 187.357L154.951 214.38C154.117 213.667 151.715 213.619 148.661 213.931C149.332 213.123 149.878 212.245 150.285 211.292C158.4 192.247 160.175 187.738 160.319 187.357Z" fill="black"/>
</g>
</g>
<g opacity="0.199997">
<g opacity="0.199997">
<path opacity="0.199997" d="M170.126 217.048C168.572 223.061 167.888 228.537 167.254 233.427H113.426L113.921 224.762C117.276 224.244 123.164 223.714 129.278 222.537C130.056 226.04 129.422 228.87 129.422 228.87C129.422 228.87 154.179 232.202 162.488 230.033C164.859 229.414 167.004 225.822 168.841 220.878C169.286 219.673 169.713 218.388 170.126 217.048Z" fill="black"/>
</g>
</g>
<g opacity="0.300003">
<g opacity="0.300003">
<path opacity="0.300003" d="M109.222 213.942C109.222 213.942 108.016 212.776 104.21 215.112V226.233C104.21 226.233 110.483 225.99 112.944 224.544C115.061 225.965 114.685 199.937 115.061 185.916C111.989 186.832 111.743 193.175 111.268 199.141C110.613 207.364 109.222 213.942 109.222 213.942Z" fill="black"/>
</g>
</g>
<path d="M168.846 220.815C168.383 224.686 167.855 228.876 167.253 233.426H113.425L113.682 225.903C110.465 226.747 104.213 226.23 104.213 226.23V215.108C108.013 212.776 108.578 213.429 108.578 213.429C108.578 213.429 108.772 186.288 111.049 179.513C112.015 176.644 113.707 174.596 115.5 173.16V173.154C116.065 172.699 116.635 172.304 117.2 171.964C117.231 171.943 117.256 171.929 117.282 171.909C117.909 171.548 118.667 171.168 119.533 170.774C119.608 170.739 119.689 170.705 119.771 170.671C128.199 166.937 146.592 162.604 163.73 170.549C164.927 171.106 174.71 176.174 175.544 183.5C176.02 187.676 173.399 208.449 168.846 220.815Z" stroke="#1A2E35" stroke-width="1.33333" stroke-miterlimit="10" stroke-linecap="round" stroke-linejoin="round"/>
<path d="M175.544 183.501C175.562 183.663 175.582 183.854 175.587 184.065C175.864 189.289 173.242 209.001 168.84 220.878C167.003 225.823 164.858 229.414 162.488 230.033C154.179 232.203 129.422 228.87 129.422 228.87C129.422 228.87 130.651 223.36 127.572 218.191C127.572 218.191 151.878 211.743 154.951 214.381L160.33 187.33" stroke="#1A2E35" stroke-width="1.33333" stroke-miterlimit="10" stroke-linecap="round" stroke-linejoin="round"/>
<path d="M156.643 215.855C156.643 215.855 158.95 216.856 160.949 219.858" stroke="#1A2E35" stroke-width="1.33333" stroke-miterlimit="10" stroke-linecap="round" stroke-linejoin="round"/>
<path d="M94.7223 216.826C94.7223 216.826 92.4579 216.308 91.5348 217.427C90.5716 218.595 86.6636 224.986 87.9981 226.213C89.3319 227.44 92.0478 220.708 92.0478 220.708L94.7223 216.826Z" fill="white"/>
<path d="M94.7223 216.826C94.7223 216.826 92.4579 216.308 91.5348 217.427C90.5716 218.595 86.6636 224.986 87.9981 226.213C89.3319 227.44 92.0478 220.708 92.0478 220.708L94.7223 216.826Z" stroke="#1A2E35" stroke-width="1.33333" stroke-miterlimit="10" stroke-linecap="round" stroke-linejoin="round"/>
<path d="M99.2768 216.709C99.2768 216.709 94.2414 215.536 93.1132 217.205C91.9858 218.873 85.6403 227.493 89.5878 227.771L95.8931 220.096L99.2768 216.709Z" fill="white"/>
<path d="M99.2768 216.709C99.2768 216.709 94.2414 215.536 93.1132 217.205C91.9858 218.873 85.6403 227.493 89.5878 227.771L95.8931 220.096L99.2768 216.709Z" stroke="#1A2E35" stroke-width="1.33333" stroke-miterlimit="10" stroke-linecap="round" stroke-linejoin="round"/>
<path d="M110.653 225.879C110.653 225.879 105.48 227.103 103.378 227.548C101.276 227.992 97.38 230.939 95.0729 229.772C92.7665 228.604 102.609 224.267 102.609 224.267L105.992 222.789L110.653 225.879Z" fill="#C4C4C4"/>
<path d="M110.653 225.879C110.653 225.879 105.48 227.103 103.378 227.548C101.276 227.992 97.38 230.939 95.0729 229.772C92.7665 228.604 102.609 224.267 102.609 224.267L105.992 222.789L110.653 225.879Z" stroke="#1A2E35" stroke-width="1.33333" stroke-miterlimit="10" stroke-linecap="round" stroke-linejoin="round"/>
<path d="M114.841 192.299C114.915 190.172 114.988 188.043 115.061 185.916" stroke="#1A2E35" stroke-width="1.33333" stroke-miterlimit="10" stroke-linecap="round" stroke-linejoin="round"/>
<path d="M113.426 233.427C114.385 220.551 114.742 195.197 114.742 195.197" stroke="#1A2E35" stroke-width="1.33333" stroke-miterlimit="10" stroke-linecap="round" stroke-linejoin="round"/>
<path d="M129.421 218.929H111.58C111.58 218.929 97.7385 214.424 95.4315 217.927C93.1245 221.431 88.2031 226.769 89.5871 227.771C90.9717 228.771 96.8155 221.515 96.8155 221.515L101.891 221.567C101.891 221.567 97.5843 223.6 96.6618 224.601C95.7394 225.602 93.7396 228.437 94.8163 228.939C95.893 229.438 99.2761 225.769 99.2761 225.769C99.2761 225.769 104.352 224.434 105.582 225.101C106.812 225.769 111.734 228.437 118.347 226.435L131.96 228.271L129.421 218.929Z" fill="white"/>
<path d="M129.421 218.929H111.58C111.58 218.929 97.7385 214.424 95.4315 217.927C93.1245 221.431 88.2031 226.769 89.5871 227.771C90.9717 228.771 96.8155 221.515 96.8155 221.515L101.891 221.567C101.891 221.567 97.5843 223.6 96.6618 224.601C95.7394 225.602 93.7396 228.437 94.8163 228.939C95.893 229.438 99.2761 225.769 99.2761 225.769C99.2761 225.769 104.352 224.434 105.582 225.101C106.812 225.769 111.734 228.437 118.347 226.435L131.96 228.271L129.421 218.929Z" stroke="#1A2E35" stroke-width="1.33333" stroke-miterlimit="10" stroke-linecap="round" stroke-linejoin="round"/>
<path d="M158.468 196.696C157.979 193.608 157.955 190.424 158.412 187.329" stroke="#1A2E35" stroke-width="1.33333" stroke-miterlimit="10" stroke-linecap="round" stroke-linejoin="round"/>
<path d="M162.515 180.474C162.515 180.474 171.17 168.106 175.544 183.5" stroke="#1A2E35" stroke-width="1.33333" stroke-miterlimit="10" stroke-linecap="round" stroke-linejoin="round"/>
<path d="M125.761 217.404C126.305 216.781 127.156 216.244 128.33 216.736C128.33 216.736 129.62 215.646 130.878 216.543C132.135 217.442 134.639 227.647 132.199 229.554C131.496 230.105 129.534 230.614 128.932 229.517C128.932 229.517 127.394 230.614 126.645 228.732C125.94 226.962 127.224 224.774 125.404 219.624C125.135 218.863 125.271 217.966 125.761 217.404Z" fill="#1A095A"/>
<g opacity="0.300003">
<g opacity="0.300003">
<path opacity="0.300003" d="M125.761 217.404C126.306 216.781 127.156 216.244 128.33 216.736C128.33 216.736 129.62 215.646 130.878 216.543C132.136 217.442 134.64 227.647 132.2 229.554C131.496 230.105 129.534 230.614 128.932 229.517C128.932 229.517 127.394 230.614 126.645 228.732C125.941 226.962 127.224 224.774 125.404 219.624C125.135 218.863 125.272 217.966 125.761 217.404Z" fill="black"/>
</g>
</g>
<path d="M125.761 217.404C126.306 216.78 127.156 216.243 128.33 216.735C128.33 216.735 129.62 215.646 130.878 216.543C132.136 217.441 134.64 227.647 132.2 229.554C131.496 230.105 129.534 230.613 128.932 229.516C128.932 229.516 127.394 230.613 126.645 228.731C125.941 226.961 127.224 224.774 125.404 219.623C125.135 218.862 125.272 217.966 125.761 217.404Z" stroke="#1A2E35" stroke-width="1.33333" stroke-miterlimit="10" stroke-linecap="round" stroke-linejoin="round"/>
<path d="M129.722 222.702C129.93 224.285 129.982 225.901 129.773 227.488" stroke="#1A2E35" stroke-width="1.33333" stroke-miterlimit="10" stroke-linecap="round" stroke-linejoin="round"/>
<path d="M137.566 192.156C137.527 192.886 136.95 193.445 136.276 193.402C135.603 193.36 135.089 192.734 135.127 192.003C135.166 191.272 135.744 190.715 136.417 190.757C137.091 190.799 137.605 191.425 137.566 192.156Z" fill="white"/>
<path d="M137.566 192.156C137.527 192.886 136.95 193.445 136.276 193.402C135.603 193.36 135.089 192.734 135.127 192.003C135.166 191.272 135.744 190.715 136.417 190.757C137.091 190.799 137.605 191.425 137.566 192.156Z" stroke="#1A2E35" stroke-width="1.33333" stroke-miterlimit="10" stroke-linecap="round" stroke-linejoin="round"/>
<path d="M136.687 212.693C136.648 213.424 136.071 213.982 135.397 213.94C134.723 213.898 134.209 213.272 134.247 212.54C134.287 211.81 134.864 211.252 135.538 211.294C136.211 211.336 136.726 211.963 136.687 212.693Z" fill="white"/>
<path d="M136.687 212.693C136.648 213.424 136.071 213.982 135.397 213.94C134.723 213.898 134.209 213.272 134.247 212.54C134.287 211.81 134.864 211.252 135.538 211.294C136.211 211.336 136.726 211.963 136.687 212.693Z" stroke="#1A2E35" stroke-width="1.33333" stroke-miterlimit="10" stroke-linecap="round" stroke-linejoin="round"/>
<path d="M147.883 166.997L146.987 153.293L133.915 156.577L133.218 167.582C132.393 167.694 131.608 167.819 130.842 167.948L134.039 176.262L140.289 177.151L150.286 167.159C149.474 167.094 148.671 167.037 147.883 166.997Z" fill="white"/>
<path d="M133.721 161.43C133.807 171.179 144.311 168.188 147.217 158.45L146.987 153.293L133.915 156.575L133.721 161.43Z" fill="#1A2E35"/>
<path d="M147.884 166.996L146.987 153.292L133.915 156.576L133.218 167.581C132.394 167.693 131.608 167.818 130.843 167.947L134.039 176.261L140.29 177.15L150.286 167.158C149.475 167.093 148.671 167.036 147.884 166.996Z" stroke="#1A2E35" stroke-width="1.33333" stroke-miterlimit="10" stroke-linecap="round" stroke-linejoin="round"/>
<path d="M125.71 141.725C125.71 141.725 120.935 132.758 120.227 128.029C118.042 113.425 127.763 118.354 127.763 118.354C127.763 118.354 134.636 111.68 143.196 112.848C151.755 114.016 154.01 117.967 159.771 120.395C159.771 120.395 155.446 144.211 149.91 149.55C144.373 154.888 125.71 141.725 125.71 141.725Z" fill="#1A2E35"/>
<path d="M125.71 141.725C125.71 141.725 120.935 132.758 120.227 128.029C118.042 113.425 127.763 118.354 127.763 118.354C127.763 118.354 134.636 111.68 143.196 112.848C151.755 114.016 154.01 117.967 159.771 120.395C159.771 120.395 155.446 144.211 149.91 149.55C144.373 154.888 125.71 141.725 125.71 141.725Z" stroke="#1A2E35" stroke-width="1.33333" stroke-miterlimit="10" stroke-linecap="round" stroke-linejoin="round"/>
<path d="M128.225 120.522C128.225 120.522 126.071 114.85 131.531 110.513" stroke="#1A2E35" stroke-width="1.33333" stroke-miterlimit="10" stroke-linecap="round" stroke-linejoin="round"/>
<path d="M137.62 117.114C144.011 114.05 146.858 119.174 153.991 120.522" stroke="#C4C4C4" stroke-width="1.33333" stroke-miterlimit="10"/>
<path d="M132.685 120.522C133.246 119.719 133.978 119.055 134.757 118.511" stroke="#C4C4C4" stroke-width="1.33333" stroke-miterlimit="10"/>
<path d="M139.243 122.744C139.243 122.744 142.007 119.863 147.493 123.606C150.499 125.656 152.971 125.949 152.971 125.949" stroke="#C4C4C4" stroke-width="1.33333" stroke-miterlimit="10"/>
<path d="M147.697 128.974C139.742 129.197 131.531 125.304 131.531 125.304C124.121 130.152 125.221 138.037 125.221 138.037C126.915 156.878 129.204 161.894 137.32 161.894C145.384 161.894 152.032 152.399 152.56 138.805C149.489 138.963 147.697 128.974 147.697 128.974Z" fill="white"/>
<path d="M147.697 128.974C139.742 129.197 131.531 125.304 131.531 125.304C124.121 130.152 125.221 138.037 125.221 138.037C126.915 156.878 129.204 161.894 137.32 161.894C145.384 161.894 152.032 152.399 152.56 138.805C149.489 138.963 147.697 128.974 147.697 128.974Z" stroke="#1A2E35" stroke-width="1.33333" stroke-miterlimit="10" stroke-linecap="round" stroke-linejoin="round"/>
<path d="M151.878 138.037C152.325 137.412 152.891 137.037 153.508 137.037C154.951 137.037 156.019 139.095 155.507 141.625C155.005 144.1 154.337 146.213 152.893 146.213C152.214 146.213 151.732 145.76 151.411 145.017" fill="white"/>
<path d="M151.878 138.037C152.325 137.412 152.891 137.037 153.508 137.037C154.951 137.037 156.019 139.095 155.507 141.625C155.005 144.1 154.337 146.213 152.893 146.213C152.214 146.213 151.732 145.76 151.411 145.017" stroke="#1A2E35" stroke-width="1.33333" stroke-miterlimit="10" stroke-linecap="round" stroke-linejoin="round"/>
<path d="M136.071 147.285C136.071 147.285 137.042 148.729 135.181 149.811C133.321 150.894 131.834 150.872 131.359 149.635C130.883 148.397 132.955 138.086 132.955 138.086" stroke="#1A2E35" stroke-width="1.33333" stroke-linecap="round" stroke-linejoin="round"/>
<path d="M132.64 139.722C131.636 139.171 127.617 137.266 123.81 139.864L124.055 143.864C124.055 143.864 125.459 144.701 128.683 144.701C130.138 144.701 131.153 144.531 131.824 144.347" stroke="#1A2E35" stroke-width="1.33333" stroke-linecap="round" stroke-linejoin="round"/>
<path d="M135.97 139.866L137.136 144.036C137.136 144.036 137.613 144.716 140.842 144.716C144.072 144.716 145.131 143.88 145.131 143.88L145.037 139.881C145.037 139.881 140.353 136.867 135.97 139.866Z" stroke="#1A2E35" stroke-width="1.33333" stroke-linecap="round" stroke-linejoin="round"/>
<path d="M132.897 139.867H135.97" stroke="#1A2E35" stroke-width="1.33333" stroke-linecap="round" stroke-linejoin="round"/>
<path d="M133.551 153.591C133.551 153.591 136.056 154.488 138.662 153.423C140.767 152.563 141.842 150.824 141.842 150.824" stroke="#1A2E35" stroke-width="1.33333" stroke-linecap="round" stroke-linejoin="round"/>
<path d="M138.658 135.921C142.692 134.117 144.471 136.282 144.471 136.282" stroke="#1A2E35" stroke-width="1.33333" stroke-linecap="round" stroke-linejoin="round"/>
<path d="M128.018 135.744C129.431 135.008 131.108 135.218 132.33 136.282" stroke="#1A2E35" stroke-width="1.33333" stroke-linecap="round" stroke-linejoin="round"/>
<path d="M140.265 138.962C140.639 138.962 140.903 139.61 140.903 140.435C140.903 141.26 140.591 141.908 140.225 141.908C139.858 141.908 139.593 141.231 139.593 140.435C139.606 139.632 139.891 138.962 140.265 138.962Z" fill="#1A2E35"/>
<path d="M130.252 138.778C130.618 138.778 130.884 139.426 130.884 140.251C130.884 141.076 130.571 141.725 130.205 141.725C129.838 141.725 129.573 141.047 129.573 140.251C129.594 139.456 129.885 138.778 130.252 138.778Z" fill="#1A2E35"/>
<path d="M123.564 131.268C123.708 132.065 123.89 132.863 124.19 133.609" stroke="#C4C4C4" stroke-width="1.33333" stroke-miterlimit="10"/>
<path d="M128.378 122.284C124.415 121.127 122.846 123.711 123.14 127.789" stroke="#C4C4C4" stroke-width="1.33333" stroke-miterlimit="10"/>
<path d="M132.571 166.946L137.401 176.372L148.996 166.446L152.559 166.989L145.058 181.378C144.768 181.923 144.118 182.098 143.627 181.762L137.214 177.373L132.212 180.689C131.573 181.113 130.745 180.672 130.663 179.865L129.421 167.586L132.571 166.946Z" fill="#1A095A"/>
<g opacity="0.300003">
<g opacity="0.300003">
<path opacity="0.300003" d="M132.146 166.882L137.401 176.373L149.198 166.273L152.751 166.882L145.058 181.379C144.768 181.923 144.118 182.098 143.627 181.763L137.213 177.374L132.212 180.69C131.573 181.113 130.745 180.672 130.663 179.865L129.421 167.587L132.146 166.882Z" fill="black"/>
</g>
</g>
<path d="M132.57 166.947L137.401 176.373L148.996 166.447L152.559 166.989L145.057 181.378C144.768 181.924 144.117 182.098 143.627 181.763L137.213 177.373L132.212 180.689C131.573 181.113 130.745 180.672 130.663 179.865L129.421 167.587L132.57 166.947Z" stroke="#1A2E35" stroke-width="1.33333" stroke-miterlimit="10" stroke-linecap="round" stroke-linejoin="round"/>
<path d="M92.2022 233.426H60.6745C59.9922 233.426 59.4391 232.826 59.4391 232.086V230.206C59.4391 229.466 59.9922 228.866 60.6745 228.866H92.2022V233.426Z" fill="#1A2E35"/>
<path d="M92.2022 233.426H60.6745C59.9922 233.426 59.4391 232.826 59.4391 232.086V230.206C59.4391 229.466 59.9922 228.866 60.6745 228.866H92.2022V233.426Z" stroke="#1A2E35" stroke-width="1.33333" stroke-miterlimit="10" stroke-linecap="round" stroke-linejoin="round"/>
<path d="M119.334 233.426H92.2022V228.866L119.39 230.811C119.842 230.843 120.193 231.25 120.193 231.74V232.494C120.193 233.009 119.808 233.426 119.334 233.426Z" fill="#1A095A"/>
<path d="M119.334 233.426H92.2022V228.866L119.39 230.811C119.842 230.843 120.193 231.25 120.193 231.74V232.494C120.193 233.009 119.808 233.426 119.334 233.426Z" stroke="#1A2E35" stroke-width="1.33333" stroke-miterlimit="10" stroke-linecap="round" stroke-linejoin="round"/>
<path d="M145.053 140.536L151.878 138.038L151.069 139.146" stroke="#1A2E35" stroke-width="1.33333" stroke-linecap="round" stroke-linejoin="round"/>
<path d="M188.755 149.051C188.755 149.051 180.899 123.031 200.656 121.205C220.413 119.38 222.744 139.354 224.556 149.368C225.972 157.195 239.467 171.516 229.023 182.202C218.119 193.36 191.569 189.638 190.044 173.773C188.517 157.907 189.907 154.659 188.755 149.051Z" fill="#1A2E35"/>
<path d="M188.755 149.051C188.755 149.051 180.899 123.031 200.656 121.205C220.413 119.38 222.744 139.354 224.556 149.368C225.972 157.195 239.467 171.516 229.023 182.202C218.119 193.36 191.569 189.638 190.044 173.773C188.517 157.907 189.907 154.659 188.755 149.051Z" stroke="#1A2E35" stroke-width="1.33333" stroke-miterlimit="10" stroke-linecap="round" stroke-linejoin="round"/>
<path d="M211.81 153.194C211.81 153.194 210.946 164.734 216.436 174.661C216.436 174.661 209.04 177.274 201.327 174.789C201.65 171.725 201.493 168.624 200.863 165.616L200.6 164.359L206.207 159.098L211.81 153.194Z" fill="white"/>
<path d="M198.238 161.894C199.258 168.106 200.197 169.458 205.046 168.351C208.642 167.529 211.708 161.678 211.881 157.429C211.607 154.845 211.626 151.621 211.626 151.621L206.207 159.098L198.238 161.894Z" fill="#1A2E35"/>
<path d="M211.811 153.194C211.811 153.194 210.946 164.734 216.436 174.661C216.436 174.661 209.04 177.274 201.328 174.789C201.65 171.725 201.493 168.624 200.864 165.616L200.6 164.359L206.207 159.098L211.811 153.194Z" stroke="#1A2E35" stroke-width="1.33333" stroke-miterlimit="10" stroke-linecap="round" stroke-linejoin="round"/>
<path d="M156.792 219.237C156.792 219.237 145.85 213.781 145.24 218.302C144.63 222.822 147.3 229.752 157.32 226.334L178.343 229.34C178.343 229.34 181.943 221.564 178.095 217.326C178.095 217.326 159.572 220.451 156.792 219.237Z" fill="white"/>
<path d="M156.792 219.237C156.792 219.237 145.85 213.781 145.24 218.302C144.63 222.822 147.3 229.752 157.32 226.334L178.343 229.34C178.343 229.34 181.943 221.564 178.095 217.326C178.095 217.326 159.572 220.451 156.792 219.237Z" stroke="#1A2E35" stroke-width="1.33333" stroke-miterlimit="10" stroke-linecap="round" stroke-linejoin="round"/>
<path d="M139.933 224.11C139.933 224.11 138.199 224.712 137.946 225.956C137.693 227.199 137.128 228.964 137.795 228.97C138.461 228.974 139.267 226.494 139.267 226.494L140.953 226.019L139.933 224.11Z" fill="white"/>
<path d="M139.933 224.11C139.933 224.11 138.199 224.712 137.946 225.956C137.693 227.199 137.128 228.964 137.795 228.97C138.461 228.974 139.267 226.494 139.267 226.494L140.953 226.019L139.933 224.11Z" stroke="#1A2E35" stroke-width="1.33333" stroke-miterlimit="10" stroke-linecap="round" stroke-linejoin="round"/>
<path d="M153.088 229.868L141.714 231.161L140.017 213.586L151.391 212.293L153.088 229.868Z" fill="white"/>
<path d="M153.088 229.868L141.714 231.161L140.017 213.586L151.391 212.293L153.088 229.868Z" stroke="#1A2E35" stroke-width="1.33333" stroke-miterlimit="10" stroke-linecap="round" stroke-linejoin="round"/>
<path d="M138.318 213.778L140.015 231.354L141.714 231.162L140.017 213.586L138.318 213.778Z" fill="#1A095A"/>
<path d="M138.318 213.778L140.015 231.354L141.714 231.162L140.017 213.586L138.318 213.778Z" stroke="#1A2E35" stroke-width="1.33333" stroke-miterlimit="10" stroke-linecap="round" stroke-linejoin="round"/>
<path d="M148.334 209.749C146.976 209.903 145.987 211.227 146.129 212.7C146.135 212.765 146.153 212.824 146.163 212.886L146.738 212.821L147.346 212.752C147.332 212.691 147.317 212.63 147.311 212.566C147.237 211.8 147.751 211.111 148.458 211.03C149.164 210.951 149.799 211.509 149.873 212.275C149.923 212.789 149.705 213.262 149.345 213.546C149.423 213.832 149.655 214.201 150.303 214.346C150.832 213.791 151.137 212.994 151.055 212.141C150.913 210.668 149.692 209.594 148.334 209.749Z" fill="white"/>
<path d="M148.334 209.749C146.976 209.903 145.987 211.227 146.129 212.7C146.135 212.765 146.153 212.824 146.163 212.886L146.738 212.821L147.346 212.752C147.332 212.691 147.317 212.63 147.311 212.566C147.237 211.8 147.751 211.111 148.458 211.03C149.164 210.951 149.799 211.509 149.873 212.275C149.923 212.789 149.705 213.262 149.345 213.546C149.423 213.832 149.655 214.201 150.303 214.346C150.832 213.791 151.137 212.994 151.055 212.141C150.913 210.668 149.692 209.594 148.334 209.749Z" stroke="#1A2E35" stroke-width="1.33333" stroke-miterlimit="10" stroke-linecap="round" stroke-linejoin="round"/>
<path d="M142.161 217.229L146.075 216.784" stroke="#1A2E35" stroke-width="1.33333" stroke-miterlimit="10" stroke-linecap="round" stroke-linejoin="round"/>
<path d="M142.348 219.166L149.956 218.301" stroke="#1A2E35" stroke-width="1.33333" stroke-miterlimit="10" stroke-linecap="round" stroke-linejoin="round"/>
<path d="M142.535 221.103L146.338 220.67" stroke="#1A2E35" stroke-width="1.33333" stroke-miterlimit="10" stroke-linecap="round" stroke-linejoin="round"/>
<path d="M142.722 223.04L149.074 222.317" stroke="#1A2E35" stroke-width="1.33333" stroke-miterlimit="10" stroke-linecap="round" stroke-linejoin="round"/>
<path d="M142.909 224.977L146.712 224.544" stroke="#1A2E35" stroke-width="1.33333" stroke-miterlimit="10" stroke-linecap="round" stroke-linejoin="round"/>
<path d="M143.096 226.913L151.442 225.965" stroke="#1A2E35" stroke-width="1.33333" stroke-miterlimit="10" stroke-linecap="round" stroke-linejoin="round"/>
<path d="M143.283 228.85L147.198 228.406" stroke="#1A2E35" stroke-width="1.33333" stroke-miterlimit="10" stroke-linecap="round" stroke-linejoin="round"/>
<path d="M146.229 209.988C144.871 210.143 143.881 211.466 144.024 212.94C144.03 213.005 144.048 213.065 144.058 213.128L144.633 213.063L144.633 213.061L145.242 212.991C145.227 212.93 145.212 212.869 145.205 212.806C145.132 212.039 145.646 211.35 146.352 211.27C147.059 211.19 147.694 211.748 147.768 212.514C147.818 213.028 147.6 213.501 147.24 213.785C147.318 214.071 147.55 214.44 148.198 214.585C148.726 214.03 149.032 213.233 148.95 212.38C148.807 210.907 147.587 209.833 146.229 209.988Z" fill="white"/>
<path d="M146.229 209.988C144.871 210.143 143.881 211.466 144.024 212.94C144.03 213.005 144.048 213.065 144.058 213.128L144.633 213.063L144.633 213.061L145.242 212.991C145.227 212.93 145.212 212.869 145.205 212.806C145.132 212.039 145.646 211.35 146.352 211.27C147.059 211.19 147.694 211.748 147.768 212.514C147.818 213.028 147.6 213.501 147.24 213.785C147.318 214.071 147.55 214.44 148.198 214.585C148.726 214.03 149.032 213.233 148.95 212.38C148.807 210.907 147.587 209.833 146.229 209.988Z" stroke="#1A2E35" stroke-width="1.33333" stroke-miterlimit="10" stroke-linecap="round" stroke-linejoin="round"/>
<path d="M144.124 210.227C142.766 210.381 141.777 211.706 141.919 213.179C141.926 213.243 141.943 213.302 141.954 213.364L142.528 213.299L143.136 213.23C143.123 213.169 143.107 213.108 143.101 213.044C143.027 212.278 143.541 211.589 144.248 211.508C144.954 211.429 145.59 211.987 145.664 212.753C145.713 213.267 145.496 213.74 145.136 214.024C145.213 214.31 145.445 214.679 146.092 214.824C146.622 214.269 146.928 213.472 146.845 212.619C146.703 211.146 145.482 210.073 144.124 210.227Z" fill="white"/>
<path d="M144.124 210.227C142.766 210.381 141.777 211.706 141.919 213.179C141.926 213.243 141.943 213.302 141.954 213.364L142.528 213.299L143.136 213.23C143.123 213.169 143.107 213.108 143.101 213.044C143.027 212.278 143.541 211.589 144.248 211.508C144.954 211.429 145.59 211.987 145.664 212.753C145.713 213.267 145.496 213.74 145.136 214.024C145.213 214.31 145.445 214.679 146.092 214.824C146.622 214.269 146.928 213.472 146.845 212.619C146.703 211.146 145.482 210.073 144.124 210.227Z" stroke="#1A2E35" stroke-width="1.33333" stroke-miterlimit="10" stroke-linecap="round" stroke-linejoin="round"/>
<path d="M142.019 210.467C140.661 210.621 139.672 211.945 139.814 213.419C139.82 213.483 139.837 213.542 139.848 213.604L140.423 213.539L141.031 213.47C141.018 213.409 141.002 213.348 140.996 213.284C140.922 212.517 141.436 211.828 142.143 211.749C142.849 211.669 143.485 212.226 143.558 212.993C143.607 213.506 143.39 213.98 143.031 214.264C143.108 214.55 143.34 214.919 143.987 215.063C144.517 214.508 144.823 213.712 144.74 212.859C144.598 211.386 143.377 210.312 142.019 210.467Z" fill="white"/>
<path d="M142.019 210.467C140.661 210.621 139.672 211.945 139.814 213.419C139.82 213.483 139.837 213.542 139.848 213.604L140.423 213.539L141.031 213.47C141.018 213.409 141.002 213.348 140.996 213.284C140.922 212.517 141.436 211.828 142.143 211.749C142.849 211.669 143.485 212.226 143.558 212.993C143.607 213.506 143.39 213.98 143.031 214.264C143.108 214.55 143.34 214.919 143.987 215.063C144.517 214.508 144.823 213.712 144.74 212.859C144.598 211.386 143.377 210.312 142.019 210.467Z" stroke="#1A2E35" stroke-width="1.33333" stroke-miterlimit="10" stroke-linecap="round" stroke-linejoin="round"/>
<path d="M138.891 213.523C138.817 212.756 139.331 212.067 140.038 211.988C140.745 211.907 141.379 212.465 141.453 213.232C141.503 213.745 141.285 214.219 140.925 214.503C141.003 214.789 141.235 215.158 141.883 215.302C142.412 214.748 142.718 213.951 142.635 213.098C142.493 211.624 141.272 210.552 139.914 210.705C138.556 210.86 137.567 212.184 137.709 213.658C137.773 214.313 138.058 214.881 138.465 215.306L138.318 213.778L138.927 213.709C138.912 213.648 138.897 213.587 138.891 213.523Z" fill="white"/>
<path d="M138.891 213.523C138.817 212.756 139.331 212.067 140.038 211.988C140.745 211.907 141.379 212.465 141.453 213.232C141.503 213.745 141.285 214.219 140.925 214.503C141.003 214.789 141.235 215.158 141.883 215.302C142.412 214.748 142.718 213.951 142.635 213.098C142.493 211.624 141.272 210.552 139.914 210.705C138.556 210.86 137.567 212.184 137.709 213.658C137.773 214.313 138.058 214.881 138.465 215.306L138.318 213.778L138.927 213.709C138.912 213.648 138.897 213.587 138.891 213.523Z" stroke="#1A2E35" stroke-width="1.33333" stroke-miterlimit="10" stroke-linecap="round" stroke-linejoin="round"/>
<path d="M137.002 218.501C137.1 218.736 137.223 218.984 137.374 219.243C137.374 219.243 136.929 220.677 137.823 222.015C137.823 222.015 137.876 223.952 138.509 224.258C139.142 224.564 140.151 224.935 140.132 224.397C140.114 223.86 139.817 222.223 138.68 221.863C138.68 221.863 139.991 222.146 139.843 221.353C139.695 220.56 139.451 219.424 138.648 219.099L138.215 218.892C138.215 218.892 139.252 219.099 139.169 218.243C139.086 217.389 138.992 216.397 138.398 216.157C138.261 216.1 138.102 216.051 137.939 216.01C137.058 215.785 136.494 217.285 137.002 218.501Z" fill="white"/>
<path d="M137.002 218.501C137.1 218.736 137.223 218.984 137.374 219.243C137.374 219.243 136.929 220.677 137.823 222.015C137.823 222.015 137.876 223.952 138.509 224.258C139.142 224.564 140.151 224.935 140.132 224.397C140.114 223.86 139.817 222.223 138.68 221.863C138.68 221.863 139.991 222.146 139.843 221.353C139.695 220.56 139.451 219.424 138.648 219.099L138.215 218.892C138.215 218.892 139.252 219.099 139.169 218.243C139.086 217.389 138.992 216.397 138.398 216.157C138.261 216.1 138.102 216.051 137.939 216.01C137.058 215.785 136.494 217.285 137.002 218.501Z" stroke="#1A2E35" stroke-width="1.33333" stroke-miterlimit="10" stroke-linecap="round" stroke-linejoin="round"/>
<path d="M155.565 219.085C155.565 219.085 154.345 216.15 152.34 214.619C150.334 213.089 149.593 210.108 148.775 210.833C147.958 211.558 148.701 214.712 149.963 215.793C151.226 216.874 149.815 219.291 152.934 222.271" fill="white"/>
<path d="M155.565 219.085C155.565 219.085 154.345 216.15 152.34 214.619C150.334 213.089 149.593 210.108 148.775 210.833C147.958 211.558 148.701 214.712 149.963 215.793C151.226 216.874 149.815 219.291 152.934 222.271" stroke="#1A2E35" stroke-width="1.33333" stroke-miterlimit="10" stroke-linecap="round" stroke-linejoin="round"/>
<path d="M229.228 227.665C228.952 229.516 228.658 231.434 228.344 233.427H185.339C185.269 232.801 185.678 231.543 186.066 229.352C181.275 231.114 172.916 228.38 172.916 228.38C173.957 225.407 173.236 217.857 173.236 217.857L178.114 216.735C178.114 216.735 180.141 193.73 181.683 187.139C183.319 180.147 192.275 172.512 222.393 174.766C222.393 174.766 236.29 174.481 238.447 184.473C240.46 193.791 229.805 227.237 229.228 227.665Z" fill="#1A095A"/>
<g opacity="0.199997">
<g opacity="0.199997">
<path opacity="0.199997" d="M186.067 229.353C182.737 230.578 177.689 229.632 174.918 228.939C175.638 228.34 176.09 227.116 176.259 225.565C178.516 225.183 180.775 221.292 182.261 203.607C182.611 199.459 183.364 196.853 184.33 195.098C183.521 198.655 183.17 202.641 184.217 207.261C184.756 209.634 186.449 215.347 186.6 217.715C186.944 223.109 186.512 226.844 186.067 229.353Z" fill="black"/>
</g>
</g>
<g opacity="0.199997">
<g opacity="0.199997">
<path opacity="0.199997" d="M229.222 227.672C228.952 229.523 228.658 231.441 228.345 233.427H185.34C186.11 230.869 188.005 218.694 185.333 211.293C185.226 210.994 194.57 206.736 200.828 208.477C227.354 215.857 218.217 192.077 225.792 187.752L219.258 215.552L215.69 216.782C223.415 217.299 221.183 229.863 221.183 229.863C224.807 230.502 227.792 228.747 229.222 227.672Z" fill="black"/>
</g>
</g>
<path d="M229.228 227.665C228.953 229.516 228.658 231.434 228.345 233.427H185.34C185.27 232.801 185.678 231.543 186.066 229.352C181.276 231.114 172.917 228.38 172.917 228.38C173.958 225.407 173.236 217.857 173.236 217.857L178.115 216.735C178.115 216.735 180.141 193.73 181.684 187.139C183.32 180.147 192.276 172.512 222.394 174.766C222.394 174.766 236.291 174.481 238.448 184.473C240.461 193.791 229.805 227.237 229.228 227.665Z" stroke="#1A2E35" stroke-width="1.33333" stroke-miterlimit="10" stroke-linecap="round" stroke-linejoin="round"/>
<path d="M174.021 216.56C174.021 216.56 175.65 217.505 176.181 221.661C176.713 225.819 175.895 229.396 173.767 229.339C171.638 229.281 171.27 228.377 171.7 227.523C172.128 226.669 173.067 225.515 172.357 221.961C171.467 217.505 169.637 217.911 169.637 217.911C169.637 217.911 172.08 215.376 174.021 216.56Z" fill="#1A095A"/>
<path d="M174.021 216.56C174.021 216.56 175.65 217.505 176.181 221.661C176.713 225.819 175.895 229.396 173.767 229.339C171.638 229.281 171.27 228.377 171.7 227.523C172.128 226.669 173.067 225.515 172.357 221.961C171.467 217.505 169.637 217.911 169.637 217.911C169.637 217.911 172.08 215.376 174.021 216.56V216.56Z" stroke="#1A2E35" stroke-width="1.33333" stroke-miterlimit="10" stroke-linecap="round" stroke-linejoin="round"/>
<g opacity="0.199997">
<g opacity="0.199997">
<path opacity="0.199997" d="M176.26 225.564C176.09 227.115 175.639 228.339 174.918 228.938C174.592 229.21 174.209 229.353 173.77 229.339C171.638 229.285 171.268 228.38 171.701 227.523C172.127 226.673 173.068 225.516 172.359 221.959C171.469 217.503 169.637 217.911 169.637 217.911C169.637 217.911 172.083 215.374 174.021 216.558C174.021 216.558 175.651 217.503 176.184 221.659C176.36 223.067 176.385 224.407 176.26 225.564Z" fill="black"/>
</g>
</g>
<path d="M214.989 166.446C214.989 166.446 204.176 170.003 199.258 168.106L198.239 175.226C198.239 175.226 203.02 179.747 218.35 174.19L214.989 166.446Z" fill="#1A095A"/>
<path d="M214.989 166.446C214.989 166.446 204.176 170.003 199.258 168.106L198.239 175.226C198.239 175.226 203.02 179.747 218.35 174.19L214.989 166.446Z" stroke="#1A2E35" stroke-width="1.33333" stroke-miterlimit="10" stroke-linecap="round" stroke-linejoin="round"/>
<path d="M176.572 214.482C177.857 219.022 179.007 222.667 177.871 223.045C176.735 223.424 175.801 219.707 174.516 215.167C173.23 210.627 172.081 206.982 173.216 206.603C174.353 206.225 175.287 209.941 176.572 214.482Z" fill="#1A095A"/>
<path d="M176.572 214.482C177.857 219.022 179.007 222.667 177.871 223.045C176.735 223.424 175.801 219.707 174.516 215.167C173.23 210.627 172.081 206.982 173.216 206.603C174.353 206.225 175.287 209.941 176.572 214.482Z" stroke="#1A2E35" stroke-width="1.33333" stroke-miterlimit="10" stroke-linecap="round" stroke-linejoin="round"/>
<path d="M174.352 214.591L176.41 213.906C176.108 212.834 175.826 211.82 175.553 210.905L173.508 211.586C173.757 212.509 174.047 213.52 174.352 214.591Z" fill="#1A2E35"/>
<path d="M174.164 208.756C174.164 208.756 175.126 206.666 176.01 208.142C176.894 209.616 177.076 214.101 177.699 214.107" stroke="#1A2E35" stroke-width="1.33333" stroke-miterlimit="10" stroke-linecap="round" stroke-linejoin="round"/>
<path d="M186.919 186.534C186.136 189.139 185.051 191.948 184.33 195.098C183.521 198.654 183.17 202.641 184.217 207.26C184.756 209.633 186.449 215.347 186.6 217.714C186.945 223.108 186.512 226.843 186.067 229.353C185.678 231.543 185.27 232.801 185.339 233.426" stroke="#1A2E35" stroke-width="1.33333" stroke-miterlimit="10" stroke-linecap="round" stroke-linejoin="round"/>
<path d="M213.537 217.556C213.537 217.556 196.044 220.148 190.145 220.294C189.238 220.317 186.531 219.953 186.531 219.953L182.338 216.911C182.338 216.911 179.105 216.392 177.521 216.786L175.715 219.345C175.715 219.345 173.461 220.133 174.749 221.986C174.749 221.986 174.253 223.408 175.342 224.483C175.342 224.483 175.441 226.094 176.432 226.738C176.432 226.738 176.63 228.242 177.719 228.672C178.808 229.101 185.64 227.919 187.719 227.275C189.799 226.631 209.997 230.068 217.919 229.853C217.919 229.853 224.701 221.261 213.537 217.556Z" fill="white"/>
<path d="M213.537 217.556C213.537 217.556 196.044 220.148 190.145 220.294C189.238 220.317 186.531 219.953 186.531 219.953L182.338 216.911C182.338 216.911 179.105 216.392 177.521 216.786L175.715 219.345C175.715 219.345 173.461 220.133 174.749 221.986C174.749 221.986 174.253 223.408 175.342 224.483C175.342 224.483 175.441 226.094 176.432 226.738C176.432 226.738 176.63 228.242 177.719 228.672C178.808 229.101 185.64 227.919 187.719 227.275C189.799 226.631 209.997 230.068 217.919 229.853C217.919 229.853 224.701 221.261 213.537 217.556V217.556Z" stroke="#1A2E35" stroke-width="1.33333" stroke-miterlimit="10" stroke-linecap="round" stroke-linejoin="round"/>
<path d="M213.811 145.701C213.811 145.701 209.193 147.656 206.46 142.256C205.276 139.915 202.878 135.033 202.878 135.033C202.196 136.947 203.033 139.861 203.033 139.861C201.47 139.117 198.444 138.941 198.444 138.941C197.371 136.992 197.058 132.575 197.058 132.575C195.572 135.267 196.002 139.13 196.002 139.13C192.827 139.608 190.866 140.78 189.42 142.154C189.814 143.889 189.957 146.593 189.825 152.215C189.654 159.56 192.907 161.571 196.076 164.316C199.245 167.061 207.936 168.484 210.932 154.129C210.932 154.129 217.217 151.594 214.142 146.268C214.038 146.087 213.927 145.898 213.811 145.701Z" fill="white"/>
<path d="M213.811 145.701C213.811 145.701 209.193 147.656 206.46 142.256C205.276 139.915 202.878 135.033 202.878 135.033C202.196 136.947 203.033 139.861 203.033 139.861C201.47 139.117 198.444 138.941 198.444 138.941C197.371 136.992 197.058 132.575 197.058 132.575C195.572 135.267 196.002 139.13 196.002 139.13C192.827 139.608 190.866 140.78 189.42 142.154C189.814 143.889 189.957 146.593 189.825 152.215C189.654 159.56 192.907 161.571 196.076 164.316C199.245 167.061 207.936 168.484 210.932 154.129C210.932 154.129 217.217 151.594 214.142 146.268C214.038 146.087 213.927 145.898 213.811 145.701Z" stroke="#1A2E35" stroke-width="1.33333" stroke-miterlimit="10" stroke-linecap="round" stroke-linejoin="round"/>
<path d="M208.669 136.891C210.645 141.284 214.086 144.667 218.493 145.911" stroke="#C4C4C4" stroke-width="1.33333" stroke-miterlimit="10"/>
<path d="M207.02 131.452C207.152 132.345 207.368 133.223 207.624 134.081" stroke="#C4C4C4" stroke-width="1.33333" stroke-miterlimit="10"/>
<path d="M210.152 131.779C210.152 131.779 213.712 139.152 219.281 139.329" stroke="#C4C4C4" stroke-width="1.33333" stroke-miterlimit="10"/>
<path d="M221.072 150.533C221.072 150.533 230.131 166.447 230.131 175.708" stroke="#C4C4C4" stroke-width="1.33333" stroke-miterlimit="10"/>
<path d="M218.673 154.775C218.673 154.775 220.916 163.653 224.516 168.106" stroke="#C4C4C4" stroke-width="1.33333" stroke-miterlimit="10"/>
<path d="M190.199 131.697C189.948 132.894 189.763 134.216 189.664 135.677" stroke="#C4C4C4" stroke-width="1.33333" stroke-miterlimit="10"/>
<path d="M197.615 123.357C197.615 123.357 193.399 124.217 190.644 129.608" stroke="#C4C4C4" stroke-width="1.33333" stroke-miterlimit="10"/>
<path d="M192.277 164.573C192.277 164.573 192.138 171.713 195.496 175.723" stroke="#C4C4C4" stroke-width="1.33333" stroke-miterlimit="10"/>
<path d="M198.239 142.713C202.807 141.742 204.813 144.267 204.813 144.267" stroke="#1A2E35" stroke-width="1.33333" stroke-linecap="round" stroke-linejoin="round"/>
<path d="M190.623 144.805C191.642 143.686 193.045 143.08 194.494 143.133" stroke="#1A2E35" stroke-width="1.33333" stroke-linecap="round" stroke-linejoin="round"/>
<path d="M201.22 159.342C202.628 158.467 203.414 156.199 203.414 156.199L203.12 156.371C201.281 157.442 199.276 158.137 197.206 158.422C198.528 159.93 200.284 159.923 201.22 159.342Z" stroke="#1A2E35" stroke-width="1.33333" stroke-linecap="round" stroke-linejoin="round"/>
<path d="M195.622 154.611C195.026 154.532 193.325 153.657 193.183 152.41C193.141 152.035 193.391 151.693 193.762 151.397C195.233 150.225 196.12 148.379 195.99 146.404C195.98 146.264 195.975 146.182 195.975 146.182" stroke="#1A2E35" stroke-width="1.33333" stroke-linecap="round" stroke-linejoin="round"/>
<path d="M201.468 144.705C201.901 144.647 202.345 145.428 202.46 146.441C202.575 147.454 202.318 148.322 201.885 148.38C201.452 148.438 201.008 147.663 200.893 146.65C200.777 145.632 201.035 144.763 201.468 144.705Z" fill="#1A2E35"/>
<path d="M193.93 147.637C194.043 148.632 193.79 149.484 193.366 149.54C192.942 149.598 192.506 148.837 192.393 147.842C192.28 146.847 192.532 145.995 192.957 145.938C193.381 145.882 193.817 146.642 193.93 147.637Z" fill="#1A2E35"/>
<path d="M207.966 145.561C207.966 145.561 207.379 143.763 208.047 142.813" stroke="#1A2E35" stroke-width="1.33333" stroke-linecap="round" stroke-linejoin="round"/>
<path d="M229.224 227.675C227.796 228.748 224.808 230.504 221.186 229.862C221.186 229.862 223.414 217.3 215.691 216.783L219.256 215.551L225.79 187.751" stroke="#1A2E35" stroke-width="1.33333" stroke-miterlimit="10" stroke-linecap="round" stroke-linejoin="round"/>
<path d="M221.186 215.551C221.186 215.551 225.322 216.732 226.485 220.597" stroke="#1A2E35" stroke-width="1.33333" stroke-miterlimit="10" stroke-linecap="round" stroke-linejoin="round"/>
<path d="M204.299 170.812C208.229 170.809 212.128 169.85 215.709 168.106" stroke="#1A2E35" stroke-width="1.33333" stroke-miterlimit="10" stroke-linecap="round" stroke-linejoin="round"/>
<path d="M198.966 170.148C199.847 170.406 200.755 170.56 201.663 170.664" stroke="#1A2E35" stroke-width="1.33333" stroke-miterlimit="10" stroke-linecap="round" stroke-linejoin="round"/>
<path d="M216.592 178.12C217.707 177.689 218.879 177.191 220.107 176.618" stroke="#1A2E35" stroke-width="1.33333" stroke-miterlimit="10" stroke-linecap="round" stroke-linejoin="round"/>
<path d="M197.231 178.222C197.231 178.222 201.436 182.554 212.567 179.462" stroke="#1A2E35" stroke-width="1.33333" stroke-miterlimit="10" stroke-linecap="round" stroke-linejoin="round"/>
<path d="M200.865 199.754C200.865 199.754 201.526 210.213 208.669 214.107" stroke="#1A2E35" stroke-width="1.33333" stroke-miterlimit="10" stroke-linecap="round" stroke-linejoin="round"/>
<path d="M213.361 217.724C213.361 217.724 214.771 214.363 218.967 216.022C218.967 216.022 222.939 217.504 224.128 221.934C225.316 226.364 223.831 230.311 220.934 230.472C218.038 230.634 217.51 230.392 217.997 229.425C218.484 228.458 219.49 225.833 218.223 222.547C216.421 217.871 213.361 217.724 213.361 217.724Z" fill="#1A095A"/>
<g opacity="0.199997">
<g opacity="0.199997">
<path opacity="0.199997" d="M213.361 217.724C213.361 217.724 214.771 214.362 218.967 216.021C218.967 216.021 222.939 217.503 224.128 221.933C225.316 226.364 223.831 230.311 220.934 230.472C218.039 230.633 217.51 230.392 217.997 229.424C218.485 228.458 219.49 225.832 218.224 222.546C216.421 217.871 213.361 217.724 213.361 217.724Z" fill="black"/>
</g>
</g>
<path d="M213.361 217.724C213.361 217.724 214.771 214.362 218.967 216.021C218.967 216.021 222.939 217.503 224.128 221.933C225.315 226.364 223.831 230.311 220.934 230.472C218.038 230.633 217.51 230.392 217.997 229.424C218.484 228.458 219.489 225.832 218.223 222.546C216.421 217.871 213.361 217.724 213.361 217.724Z" stroke="#1A2E35" stroke-width="1.33333" stroke-miterlimit="10" stroke-linecap="round" stroke-linejoin="round"/>
<path d="M21.2288 203.892C21.2288 203.892 19.0722 183.886 0.000213623 191.947C0.000213623 191.947 16.2265 191.816 18.9713 206.89L21.4953 206.598L21.2288 203.892Z" fill="#E1FFCA"/>
<g opacity="0.100006">
<g opacity="0.100006">
<path opacity="0.100006" d="M21.2286 203.892C21.2286 203.892 19.072 183.885 0 191.946C0 191.946 16.2263 191.816 18.9711 206.89L21.4951 206.598L21.2286 203.892Z" fill="black"/>
</g>
</g>
<path d="M21.4878 203.556C21.4878 203.556 19.8386 182.223 16.2467 165.643C16.2467 165.643 27.2206 178.234 24.7123 201.944L21.4878 203.556Z" fill="#E1FFCA"/>
<g opacity="0.100006">
<g opacity="0.100006">
<path opacity="0.100006" d="M21.4877 203.556C21.4877 203.556 19.8385 182.223 16.2466 165.643C16.2466 165.643 27.2205 178.234 24.7121 201.944L21.4877 203.556Z" fill="black"/>
</g>
</g>
<path d="M20.4238 217.678C20.4238 217.678 17.2608 188.293 6.73212 178.203C6.73212 178.203 25.5615 183.283 22.7716 214.49L20.4238 217.678Z" fill="#E1FFCA"/>
<path d="M23.7334 216.446C23.7334 216.446 28.3456 187.288 39.3584 177.826C39.3584 177.826 20.3045 181.802 21.5461 213.128L23.7334 216.446Z" fill="#E1FFCA"/>
<path d="M33.3963 206.908H11.1349V211.103H11.8762V225.909C11.8762 230.061 14.979 233.426 18.8066 233.426H25.7246C29.5523 233.426 32.6551 230.061 32.6551 225.909V211.103H33.3963V206.908Z" fill="white"/>
<path d="M33.3963 206.908H11.1349V211.103H11.8762V225.909C11.8762 230.061 14.979 233.426 18.8066 233.426H25.7246C29.5523 233.426 32.6551 230.061 32.6551 225.909V211.103H33.3963V206.908Z" stroke="#1A2E35" stroke-width="1.33333" stroke-miterlimit="10"/>
<path d="M26.4969 210.905H29.4624H26.4969Z" fill="white"/>
<path d="M26.4969 210.905H29.4624" stroke="#1A2E35" stroke-width="1.33333" stroke-miterlimit="10"/>
<path d="M14.8933 210.905H23.4825H14.8933Z" fill="white"/>
<path d="M14.8933 210.905H23.4825" stroke="#1A2E35" stroke-width="1.33333" stroke-miterlimit="10"/>
<path d="M108.752 214.953L103.046 164.547C102.865 162.947 101.522 161.649 100.045 161.649H93.4968L101.057 217.852H106.408C107.883 217.852 108.933 216.554 108.752 214.953Z" fill="#E1FFCA"/>
<path d="M108.752 214.953L103.046 164.547C102.865 162.947 101.522 161.649 100.045 161.649H93.4968L101.057 217.852H106.408C107.883 217.852 108.933 216.554 108.752 214.953Z" stroke="#1A2E35" stroke-width="1.33333" stroke-miterlimit="10" stroke-linecap="round" stroke-linejoin="round"/>
<path d="M104.993 217.852H39.2372C37.7617 217.852 36.4185 216.554 36.2366 214.953L30.5315 164.548C30.3502 162.946 31.3993 161.649 32.8755 161.649H98.6305C100.107 161.649 101.45 162.946 101.631 164.548L107.337 214.953C107.518 216.554 106.469 217.852 104.993 217.852Z" fill="#1A2E35"/>
<g opacity="0.100006">
<g opacity="0.100006">
<path opacity="0.100006" d="M104.993 217.851H39.2373C37.7618 217.851 36.4186 216.553 36.2368 214.952L30.5316 164.547C30.3504 162.946 31.3995 161.648 32.8756 161.648H98.6306C100.107 161.648 101.451 162.946 101.631 164.547L107.337 214.952C107.518 216.553 106.469 217.851 104.993 217.851Z" fill="white"/>
</g>
</g>
<path d="M104.993 217.852H39.2372C37.7617 217.852 36.4185 216.554 36.2366 214.953L30.5315 164.548C30.3502 162.946 31.3993 161.649 32.8755 161.649H98.6305C100.107 161.649 101.45 162.946 101.631 164.548L107.337 214.953C107.518 216.554 106.469 217.852 104.993 217.852Z" stroke="#1A2E35" stroke-width="1.33333" stroke-miterlimit="10" stroke-linecap="round" stroke-linejoin="round"/>
<path d="M74.3324 229.306L76.958 196.841C77.0207 196.061 76.4538 195.391 75.732 195.391H59.1313C58.4936 195.391 57.9618 195.919 57.906 196.609L55.0459 231.975C54.9826 232.755 55.5495 233.427 56.2712 233.427H89.1547C89.8344 233.427 90.3856 232.829 90.3856 232.092C90.3856 231.355 89.8344 230.758 89.1547 230.758H75.5583C74.8359 230.758 74.2691 230.086 74.3324 229.306Z" fill="#1A2E35"/>
<path d="M74.3324 229.306L76.958 196.841C77.0207 196.061 76.4538 195.391 75.732 195.391H59.1313C58.4936 195.391 57.9618 195.919 57.906 196.609L55.0459 231.975C54.9826 232.755 55.5495 233.427 56.2712 233.427H89.1547C89.8344 233.427 90.3856 232.829 90.3856 232.092C90.3856 231.355 89.8344 230.758 89.1547 230.758H75.5583C74.8359 230.758 74.2691 230.086 74.3324 229.306Z" stroke="#1A2E35" stroke-width="1.33333" stroke-miterlimit="10" stroke-linecap="round" stroke-linejoin="round"/>
<path d="M90.3854 232.092C90.3854 231.354 89.8348 230.757 89.1551 230.757H75.5581C74.8363 230.757 74.2694 230.086 74.3321 229.306L76.9577 196.842C77.021 196.063 76.4567 195.393 75.7368 195.391C75.1009 195.393 74.5717 195.921 74.5159 196.608L71.6557 231.975C71.5924 232.756 72.1599 233.426 72.8811 233.426H89.1551C89.8348 233.426 90.3854 232.828 90.3854 232.092Z" fill="#1A095A"/>
<path d="M90.3854 232.092C90.3854 231.354 89.8348 230.757 89.1551 230.757H75.5581C74.8363 230.757 74.2694 230.086 74.3321 229.306L76.9577 196.842C77.021 196.063 76.4567 195.393 75.7368 195.391C75.1009 195.393 74.5717 195.921 74.5159 196.608L71.6557 231.975C71.5924 232.756 72.1599 233.426 72.8811 233.426H89.1551C89.8348 233.426 90.3854 232.828 90.3854 232.092Z" stroke="#1A2E35" stroke-width="1.33333" stroke-miterlimit="10" stroke-linecap="round" stroke-linejoin="round"/>
<path d="M14.9926 233.426H250.148" stroke="#1A2E35" stroke-width="1.33333" stroke-miterlimit="10" stroke-linecap="round" stroke-linejoin="round"/>
<path d="M234.418 109.902H222.054C220.45 109.902 219.148 111.314 219.148 113.055V119.58C219.148 121.32 220.45 122.731 222.054 122.731H225.286L226.229 128.751L231.186 122.731H234.418C236.023 122.731 237.324 121.32 237.324 119.58V113.055C237.324 111.314 236.023 109.902 234.418 109.902Z" fill="white"/>
<path d="M234.418 109.902H222.054C220.45 109.902 219.148 111.314 219.148 113.055V119.58C219.148 121.32 220.45 122.731 222.054 122.731H225.286L226.229 128.751L231.186 122.731H234.418C236.023 122.731 237.324 121.32 237.324 119.58V113.055C237.324 111.314 236.023 109.902 234.418 109.902Z" stroke="#1A2E35" stroke-width="1.33333" stroke-miterlimit="10" stroke-linecap="round" stroke-linejoin="round"/>
<path d="M215.467 90.6021H203.103C201.499 90.6021 200.198 92.0135 200.198 93.7542V100.279C200.198 102.02 201.499 103.431 203.103 103.431H206.335L208.783 109.451L212.236 103.431H215.467C217.072 103.431 218.373 102.02 218.373 100.279V93.7542C218.373 92.0135 217.072 90.6021 215.467 90.6021Z" fill="white"/>
<path d="M215.467 90.6021H203.103C201.499 90.6021 200.198 92.0135 200.198 93.7542V100.279C200.198 102.02 201.499 103.431 203.103 103.431H206.335L208.783 109.451L212.236 103.431H215.467C217.072 103.431 218.373 102.02 218.373 100.279V93.7542C218.373 92.0135 217.072 90.6021 215.467 90.6021Z" stroke="#1A2E35" stroke-width="1.33333" stroke-miterlimit="10" stroke-linecap="round" stroke-linejoin="round"/>
<path d="M191.409 97.3756H179.734C178.218 97.3756 176.989 98.7081 176.989 100.352V106.514C176.989 108.158 178.218 109.491 179.734 109.491H182.785L185.969 115.176L188.358 109.491H191.409C192.925 109.491 194.154 108.158 194.154 106.514V100.352C194.154 98.7081 192.925 97.3756 191.409 97.3756Z" fill="white"/>
<path d="M191.409 97.3756H179.734C178.218 97.3756 176.989 98.7081 176.989 100.352V106.514C176.989 108.158 178.218 109.491 179.734 109.491H182.785L185.969 115.176L188.358 109.491H191.409C192.925 109.491 194.154 108.158 194.154 106.514V100.352C194.154 98.7081 192.925 97.3756 191.409 97.3756Z" stroke="#1A2E35" stroke-width="1.33333" stroke-miterlimit="10" stroke-linecap="round" stroke-linejoin="round"/>
<path d="M182.35 101.381V103.314H182.742C183.005 103.314 183.147 103.183 183.147 102.776V101.919C183.147 101.511 183.005 101.381 182.742 101.381H182.35ZM183.975 101.977V102.719C183.975 103.633 183.568 104.13 182.742 104.13H182.35V106.275H181.523V100.565H182.742C183.568 100.565 183.975 101.062 183.975 101.977Z" fill="#1A2E35"/>
<path d="M185.224 106.275H184.398V100.564H185.224V103.012H186.165V100.564H187.007V106.275H186.165V103.828H185.224V106.275Z" fill="#1A2E35"/>
<path d="M188.438 101.38V103.314H188.829C189.092 103.314 189.235 103.183 189.235 102.775V101.919C189.235 101.511 189.092 101.38 188.829 101.38H188.438ZM190.062 101.976V102.718C190.062 103.632 189.656 104.13 188.829 104.13H188.438V106.275H187.61V100.565H188.829C189.656 100.565 190.062 101.062 190.062 101.976Z" fill="#1A2E35"/>
<path d="M207.513 97.898V98.6564C207.513 99.5699 207.092 100.092 206.28 100.092C205.467 100.092 205.046 99.5699 205.046 98.6564V95.6866C205.046 94.7731 205.467 94.2514 206.28 94.2514C207.092 94.2514 207.513 94.7731 207.513 95.6866V96.241H206.731V95.6295C206.731 95.2214 206.566 95.067 206.302 95.067C206.039 95.067 205.874 95.2214 205.874 95.6295V98.7135C205.874 99.1216 206.039 99.2686 206.302 99.2686C206.566 99.2686 206.731 99.1216 206.731 98.7135V97.898H207.513Z" fill="#1A2E35"/>
<path d="M209.5 96.8539H210.507V97.4905H209.5V98.6074H208.913V97.4905H207.906V96.8539H208.913V95.7526H209.5V96.8539Z" fill="#1A2E35"/>
<path d="M212.48 96.8534H213.487V97.49H212.48V98.6069H211.893V97.49H210.885V96.8534H211.893V95.7521H212.48V96.8534Z" fill="#1A2E35"/>
<path d="M222.439 116.942V116.073L225.79 114.735V115.615L223.488 116.507L225.79 117.399V118.28L222.439 116.942Z" fill="#1A2E35"/>
<path d="M229.089 112.606H230.066L227.229 120.409H226.253L229.089 112.606Z" fill="#1A2E35"/>
<path d="M230.528 118.28V117.399L232.83 116.508L230.528 115.615V114.735L233.879 116.073V116.942L230.528 118.28Z" fill="#1A2E35"/>
</svg>
