<svg width="232" height="202" viewBox="0 0 232 202" fill="none" xmlns="http://www.w3.org/2000/svg">
<path d="M181.879 131.606C178.224 134.645 179.435 152.379 168.132 144.742C156.829 137.104 176.108 132.575 175.006 128.246C173.462 122.184 147.97 129.467 152.246 117.859C156.523 106.25 171.763 123.708 175.77 119.387C179.45 115.416 161.106 101.057 169.66 98.613C178.213 96.1685 176.372 116.944 181.879 116.943C186.164 116.941 185.367 97.0852 193.246 104.112C201.125 111.138 183.902 118.06 186.157 122.421C187.869 125.735 201.43 117.553 200.82 125.191C200.209 132.828 185.724 128.41 181.879 131.606Z" fill="#45286C"/>
<path d="M179.435 122.524C179.435 122.524 187.684 132.523 186.767 159.711" stroke="#1A2E35" stroke-width="1.33333" stroke-miterlimit="10" stroke-linecap="round" stroke-linejoin="round"/>
<path d="M163.366 136.671C164.828 133.73 176.943 131.722 170.01 125.338C163.078 118.954 163.1 132.636 160.013 132.583C155.693 132.51 156.534 114.213 149.409 118.936C142.285 123.658 156.447 131.126 154.179 134.507C152.095 137.613 139.523 127.565 139.241 133.704C138.958 139.844 152.633 135.3 153.508 139.003C154.189 141.885 140.713 144.507 146.691 148.686C152.668 152.865 154.582 140.185 157.872 141.007C160.372 141.632 157.029 152.051 162.067 150.424C167.104 148.799 161.829 139.763 163.366 136.671Z" fill="#45286C"/>
<g opacity="0.300003">
<g opacity="0.300003">
<path opacity="0.300003" d="M163.366 136.671C164.827 133.73 176.943 131.722 170.01 125.338C163.077 118.954 163.1 132.636 160.013 132.583C155.693 132.51 156.533 114.213 149.409 118.936C142.285 123.658 156.447 131.126 154.179 134.507C152.095 137.613 139.523 127.565 139.241 133.704C138.958 139.844 152.633 135.3 153.508 139.003C154.189 141.885 140.713 144.507 146.691 148.686C152.668 152.865 154.582 140.185 157.872 141.007C160.372 141.632 157.029 152.051 162.066 150.424C167.104 148.799 161.829 139.763 163.366 136.671Z" fill="black"/>
</g>
</g>
<path d="M157.135 136.799C157.135 136.799 180.608 134.355 182.924 159.711" stroke="#1A2E35" stroke-width="1.33333" stroke-miterlimit="10" stroke-linecap="round" stroke-linejoin="round"/>
<path d="M201.884 134.05C205.54 137.089 204.328 154.823 215.631 147.186C226.935 139.548 207.656 135.019 208.758 130.69C210.301 124.628 235.794 131.911 231.517 120.303C227.24 108.694 212 126.152 207.994 121.83C204.314 117.86 222.658 103.501 214.104 101.057C205.55 98.6129 207.392 119.389 201.884 119.386C197.599 119.385 198.397 99.529 190.518 106.555C182.638 113.582 199.862 120.504 197.608 124.864C195.894 128.179 182.333 119.997 182.944 127.634C183.555 135.271 198.04 130.854 201.884 134.05Z" fill="#45286C"/>
<g opacity="0.300003">
<g opacity="0.300003">
<path opacity="0.300003" d="M201.884 134.05C205.54 137.089 204.328 154.823 215.631 147.186C226.935 139.548 207.656 135.019 208.758 130.69C210.301 124.628 235.794 131.911 231.517 120.303C227.24 108.694 212 126.152 207.994 121.83C204.314 117.86 222.658 103.501 214.104 101.057C205.55 98.6129 207.392 119.389 201.884 119.386C197.599 119.385 198.397 99.529 190.518 106.555C182.638 113.582 199.862 120.504 197.608 124.864C195.894 128.179 182.333 119.997 182.944 127.634C183.555 135.271 198.04 130.854 201.884 134.05Z" fill="white"/>
</g>
</g>
<path d="M204.486 124.967C204.486 124.967 193.794 139.243 191.35 163.072" stroke="#1A2E35" stroke-width="1.33333" stroke-miterlimit="10" stroke-linecap="round" stroke-linejoin="round"/>
<path d="M196.831 200.346H180.163C176.972 200.346 174.312 197.904 174.042 194.724L171.421 163.931C171.117 160.346 173.945 157.267 177.543 157.267H199.451C203.049 157.267 205.877 160.346 205.572 163.931L202.951 194.724C202.681 197.904 200.022 200.346 196.831 200.346Z" fill="#1A095A"/>
<path d="M196.831 200.346H180.163C176.972 200.346 174.312 197.904 174.042 194.724L171.421 163.931C171.117 160.346 173.945 157.267 177.543 157.267H199.451C203.049 157.267 205.877 160.346 205.572 163.931L202.951 194.724C202.681 197.904 200.022 200.346 196.831 200.346Z" stroke="#1A2E35" stroke-width="1.33333" stroke-miterlimit="10" stroke-linecap="round" stroke-linejoin="round"/>
<path d="M72.0263 156.12C77.596 156.12 93.6881 152.484 93.6881 152.484H50.3644C50.3644 152.484 66.4565 156.12 72.0263 156.12Z" fill="#1A2E35"/>
<path d="M72.0263 156.12C77.596 156.12 93.6881 152.484 93.6881 152.484H50.3644C50.3644 152.484 66.4565 156.12 72.0263 156.12Z" stroke="#1A2E35" stroke-width="1.33333" stroke-miterlimit="10" stroke-linecap="round" stroke-linejoin="round"/>
<path d="M67.0619 161.106H76.9893V154.302H67.0619V161.106Z" fill="#868686" stroke="#1A2E35" stroke-width="1.33333" stroke-miterlimit="10" stroke-linecap="round" stroke-linejoin="round"/>
<path d="M65.5939 190.368H78.4588V161.107H65.5939V190.368Z" fill="#C4C4C4" stroke="#1A2E35" stroke-width="1.33333" stroke-miterlimit="10" stroke-linecap="round" stroke-linejoin="round"/>
<path d="M47.863 143.806H56.2234C55.2946 138.046 54.6092 132.176 54.1864 126.357H45.8255C46.2482 132.176 46.9342 138.046 47.863 143.806Z" fill="#868686"/>
<path d="M47.863 143.806H56.2234C55.2946 138.046 54.6092 132.176 54.1864 126.357H45.8255C46.2482 132.176 46.9342 138.046 47.863 143.806Z" stroke="#1A2E35" stroke-width="1.33333" stroke-miterlimit="10" stroke-linecap="round" stroke-linejoin="round"/>
<path d="M35.1635 74.8229H71.203C75.4393 74.8229 78.2112 78.3992 77.3923 82.615C75.0848 95.5898 73.7212 108.417 73.2719 121.592C73.2037 125.41 70.2983 128.359 66.4781 128.359H36.1394C32.3191 128.359 28.8799 125.41 28.3895 121.592C26.9281 108.557 26.4003 95.7317 26.8085 82.615C27.009 78.3992 30.9265 74.8229 35.1635 74.8229Z" fill="#868686"/>
<path d="M35.1635 74.8229H71.203C75.4393 74.8229 78.2112 78.3992 77.3923 82.615C75.0848 95.5898 73.7212 108.417 73.2719 121.592C73.2037 125.41 70.2983 128.359 66.4781 128.359H36.1394C32.3191 128.359 28.8799 125.41 28.3895 121.592C26.9281 108.557 26.4003 95.7317 26.8085 82.615C27.009 78.3992 30.9265 74.8229 35.1635 74.8229Z" stroke="#1A2E35" stroke-width="1.33333" stroke-miterlimit="10" stroke-linecap="round" stroke-linejoin="round"/>
<path d="M33.2005 82.6149C32.7917 95.7316 33.3201 108.557 34.7816 121.592C35.2719 125.41 38.7111 128.36 42.5314 128.36H66.4778C70.2987 128.36 73.204 125.41 73.2716 121.592C73.7216 108.416 75.0852 95.5896 77.3927 82.6149C78.2115 78.3997 75.4396 74.8228 71.2033 74.8228H41.5555C37.3179 74.8228 33.401 78.3997 33.2005 82.6149Z" fill="#C4C4C4"/>
<path d="M33.2005 82.6149C32.7917 95.7316 33.3201 108.557 34.7816 121.592C35.2719 125.41 38.7111 128.36 42.5314 128.36H66.4778C70.2987 128.36 73.204 125.41 73.2716 121.592C73.7216 108.416 75.0852 95.5897 77.3927 82.6149C78.2115 78.3997 75.4396 74.8228 71.2033 74.8228H41.5555C37.3179 74.8228 33.401 78.3997 33.2005 82.6149Z" stroke="#1A2E35" stroke-width="1.33333" stroke-miterlimit="10" stroke-linecap="round" stroke-linejoin="round"/>
<path d="M50.3641 195.621C50.3641 196.307 50.9964 196.818 51.6673 196.672C55.6096 195.812 67.4182 193.325 72.026 193.325C76.6331 193.325 88.4424 195.812 92.3846 196.672C93.0556 196.818 93.6878 196.307 93.6878 195.621C93.6878 194.29 92.7615 193.141 91.4601 192.861C86.8451 191.87 76.3155 189.714 72.026 189.714C67.7371 189.714 57.2069 191.87 52.5919 192.861C51.2905 193.141 50.3641 194.29 50.3641 195.621Z" fill="#1A2E35"/>
<path d="M50.3641 195.621C50.3641 196.307 50.9964 196.818 51.6673 196.672C55.6096 195.812 67.4182 193.325 72.026 193.325C76.6331 193.325 88.4424 195.812 92.3846 196.672C93.0556 196.818 93.6878 196.307 93.6878 195.621C93.6878 194.29 92.7615 193.141 91.4601 192.861C86.8451 191.87 76.3155 189.714 72.026 189.714C67.7371 189.714 57.2069 191.87 52.5919 192.861C51.2905 193.141 50.3641 194.29 50.3641 195.621Z" stroke="#1A2E35" stroke-width="1.33333" stroke-miterlimit="10" stroke-linecap="round" stroke-linejoin="round"/>
<path d="M93.6883 199.155C94.7971 199.155 95.6951 198.257 95.6951 197.149C95.6951 196.041 94.7971 195.142 93.6883 195.142C92.5802 195.142 91.6822 196.041 91.6822 197.149C91.6822 198.257 92.5802 199.155 93.6883 199.155ZM93.6883 193.444C95.7349 193.444 97.3932 195.103 97.3932 197.149C97.3932 199.195 95.7349 200.854 93.6883 200.854C91.6423 200.854 89.9834 199.195 89.9834 197.149C89.9834 195.103 91.6423 193.444 93.6883 193.444Z" fill="#868686"/>
<path d="M93.6883 199.155C94.7971 199.155 95.6951 198.257 95.6951 197.149C95.6951 196.041 94.7971 195.142 93.6883 195.142C92.5802 195.142 91.6822 196.041 91.6822 197.149C91.6822 198.257 92.5802 199.155 93.6883 199.155ZM93.6883 193.444C95.7349 193.444 97.3932 195.103 97.3932 197.149C97.3932 199.195 95.7349 200.854 93.6883 200.854C91.6423 200.854 89.9834 199.195 89.9834 197.149C89.9834 195.103 91.6423 193.444 93.6883 193.444Z" stroke="#1A2E35" stroke-width="1.33333" stroke-miterlimit="10" stroke-linecap="round" stroke-linejoin="round"/>
<path d="M72.0261 199.155C73.1343 199.155 74.0323 198.257 74.0323 197.149C74.0323 196.041 73.1343 195.142 72.0261 195.142C70.9179 195.142 70.0193 196.041 70.0193 197.149C70.0193 198.257 70.9179 199.155 72.0261 199.155ZM72.0261 193.444C74.0721 193.444 75.731 195.103 75.731 197.149C75.731 199.195 74.0721 200.854 72.0261 200.854C69.9795 200.854 68.3212 199.195 68.3212 197.149C68.3212 195.103 69.9795 193.444 72.0261 193.444Z" fill="#868686"/>
<path d="M72.0261 199.155C73.1343 199.155 74.0323 198.257 74.0323 197.149C74.0323 196.041 73.1343 195.142 72.0261 195.142C70.9179 195.142 70.0193 196.041 70.0193 197.149C70.0193 198.257 70.9179 199.155 72.0261 199.155ZM72.0261 193.444C74.0721 193.444 75.731 195.103 75.731 197.149C75.731 199.195 74.0721 200.854 72.0261 200.854C69.9795 200.854 68.3212 199.195 68.3212 197.149C68.3212 195.103 69.9795 193.444 72.0261 193.444Z" stroke="#1A2E35" stroke-width="1.33333" stroke-miterlimit="10" stroke-linecap="round" stroke-linejoin="round"/>
<path d="M50.8135 199.155C51.9222 199.155 52.8202 198.257 52.8202 197.149C52.8202 196.041 51.9222 195.142 50.8135 195.142C49.7053 195.142 48.8073 196.041 48.8073 197.149C48.8073 198.257 49.7053 199.155 50.8135 199.155ZM50.8135 193.444C52.8601 193.444 54.519 195.103 54.519 197.149C54.519 199.195 52.8601 200.854 50.8135 200.854C48.7675 200.854 47.1086 199.195 47.1086 197.149C47.1086 195.103 48.7675 193.444 50.8135 193.444Z" fill="#868686"/>
<path d="M50.8135 199.155C51.9222 199.155 52.8202 198.257 52.8202 197.149C52.8202 196.041 51.9222 195.142 50.8135 195.142C49.7053 195.142 48.8073 196.041 48.8073 197.149C48.8073 198.257 49.7053 199.155 50.8135 199.155ZM50.8135 193.444C52.8601 193.444 54.519 195.103 54.519 197.149C54.519 199.195 52.8601 200.854 50.8135 200.854C48.7675 200.854 47.1086 199.195 47.1086 197.149C47.1086 195.103 48.7675 193.444 50.8135 193.444Z" stroke="#1A2E35" stroke-width="1.33333" stroke-miterlimit="10" stroke-linecap="round" stroke-linejoin="round"/>
<path d="M61.0445 142.634C75.625 143.085 89.8559 142.456 104.339 140.72C107.288 140.324 109.672 142.342 109.672 145.301V146.008C109.672 148.968 107.288 151.748 104.339 152.144C89.8559 153.88 75.625 154.509 61.0445 154.058V142.634Z" fill="#C4C4C4"/>
<path d="M61.0445 142.634C75.625 143.085 89.8559 142.456 104.339 140.72C107.288 140.324 109.672 142.342 109.672 145.301V146.008C109.672 148.968 107.288 151.748 104.339 152.144C89.8559 153.88 75.625 154.509 61.0445 154.058V142.634Z" stroke="#1A2E35" stroke-width="1.33333" stroke-miterlimit="10" stroke-linecap="round" stroke-linejoin="round"/>
<path d="M38.3375 151.955C47.3114 153.077 56.2074 153.824 65.2436 154.212C67.446 154.274 69.2329 152.51 69.2329 150.313V146.844C69.2329 144.648 67.446 142.85 65.2436 142.788C56.2074 142.4 47.3114 141.653 38.3375 140.531C36.1495 140.225 34.3795 141.724 34.3795 143.92V147.389C34.3795 149.586 36.1495 151.649 38.3375 151.955Z" fill="#868686"/>
<path d="M38.3375 151.955C47.3114 153.077 56.2074 153.824 65.2436 154.212C67.446 154.274 69.2329 152.51 69.2329 150.313V146.844C69.2329 144.648 67.446 142.85 65.2436 142.788C56.2074 142.4 47.3114 141.653 38.3375 140.531C36.1495 140.225 34.3795 141.724 34.3795 143.92V147.389C34.3795 149.586 36.1495 151.649 38.3375 151.955Z" stroke="#1A2E35" stroke-width="1.33333" stroke-miterlimit="10" stroke-linecap="round" stroke-linejoin="round"/>
<path d="M98.4236 198.929C98.4502 196.911 98.8639 192.873 101.238 187.665L104.338 176.493L114 180.62L111.282 189.175C111.282 189.175 119.589 193.138 122.656 194.208C124.699 194.919 130.808 196.321 130.506 198.938C130.506 199.716 129.876 200.347 129.097 200.347H99.8331C99.0505 200.347 98.4134 199.712 98.4236 198.929Z" fill="white"/>
<path d="M98.4236 198.929C98.4502 196.911 98.8639 192.873 101.238 187.665L104.338 176.493L114 180.62L111.282 189.175C111.282 189.175 119.589 193.138 122.656 194.208C124.699 194.919 130.808 196.321 130.506 198.938C130.506 199.716 129.876 200.347 129.097 200.347H99.8331C99.0505 200.347 98.4134 199.712 98.4236 198.929Z" stroke="#1A2E35" stroke-width="1.33333" stroke-miterlimit="10" stroke-linecap="round" stroke-linejoin="round"/>
<path d="M103.74 192.396C105.25 193.503 113.302 194.912 111.282 193.302C109.263 191.691 111.282 189.175 111.282 189.175C111.282 189.175 119.589 193.138 122.656 194.207C124.699 194.919 130.809 196.321 130.507 198.938C130.507 199.716 129.876 200.347 129.097 200.347H99.833C99.0503 200.347 98.4138 199.711 98.4235 198.929C98.4458 197.225 98.749 194.075 100.273 190C101.936 190.021 102.23 191.289 103.74 192.396Z" fill="#1A095A"/>
<path d="M103.74 192.396C105.25 193.503 113.302 194.912 111.282 193.302C109.263 191.691 111.282 189.175 111.282 189.175C111.282 189.175 119.589 193.138 122.656 194.207C124.699 194.919 130.809 196.321 130.507 198.938C130.507 199.716 129.876 200.347 129.097 200.347H99.833C99.0503 200.347 98.4138 199.711 98.4235 198.929C98.4458 197.225 98.749 194.075 100.273 190C101.936 190.021 102.23 191.289 103.74 192.396Z" stroke="#1A2E35" stroke-width="1.33333" stroke-miterlimit="10" stroke-linecap="round" stroke-linejoin="round"/>
<path d="M91.4335 200.347H69.9963C69.553 200.347 69.175 200.033 69.0911 199.598C68.7625 197.894 68.8374 194.084 70.7711 189.024L70.9613 178.751L81.9432 180.62L80.55 189.376C80.55 189.376 84.9718 194.242 87.0715 195.113C88.5481 195.726 91.9015 195.79 92.352 199.319C92.4221 199.865 91.9837 200.347 91.4335 200.347Z" fill="white"/>
<path d="M91.4335 200.347H69.9963C69.553 200.347 69.175 200.033 69.0911 199.598C68.7625 197.894 68.8374 194.084 70.7711 189.024L70.9613 178.751L81.9432 180.62L80.55 189.376C80.55 189.376 84.9718 194.242 87.0715 195.113C88.5481 195.726 91.9015 195.79 92.352 199.319C92.4221 199.865 91.9837 200.347 91.4335 200.347Z" stroke="#1A2E35" stroke-width="1.33333" stroke-miterlimit="10" stroke-linecap="round" stroke-linejoin="round"/>
<path d="M74.3899 192.435C76.6564 194.019 78.3267 194.208 77.2699 191.831C76.2131 189.454 80.5497 189.376 80.5497 189.376C80.5497 189.376 84.9714 194.242 87.0718 195.114C88.5477 195.725 91.9018 195.791 92.3523 199.319C92.4217 199.865 91.9839 200.347 91.4338 200.347H69.9966C69.5527 200.347 69.1747 200.033 69.0913 199.597C68.7628 197.893 68.8377 194.083 70.7714 189.024C72.4254 189.427 72.1229 190.85 74.3899 192.435Z" fill="#1A095A"/>
<path d="M74.3899 192.435C76.6564 194.019 78.3267 194.208 77.2699 191.831C76.2131 189.454 80.5497 189.376 80.5497 189.376C80.5497 189.376 84.9714 194.242 87.0718 195.114C88.5477 195.725 91.9018 195.791 92.3523 199.319C92.4217 199.865 91.9839 200.347 91.4338 200.347H69.9966C69.5527 200.347 69.1747 200.033 69.0913 199.597C68.7628 197.893 68.8377 194.083 70.7714 189.024C72.4254 189.427 72.1229 190.85 74.3899 192.435Z" stroke="#1A2E35" stroke-width="1.33333" stroke-miterlimit="10" stroke-linecap="round" stroke-linejoin="round"/>
<path d="M93.5683 121.941C93.5683 121.941 95.7267 124.155 104.562 125.564C113.396 126.973 131.715 131.402 131.513 138.649C131.312 145.896 114.403 184.545 114.403 184.545C114.403 184.545 105.948 182.935 102.023 180.519C102.023 180.519 108.828 152.941 113.931 145.694C113.931 145.694 91.0241 142.876 78.3561 137.642C65.6881 132.408 73.136 120.497 73.136 120.497L93.5683 121.941Z" fill="#1A2E35"/>
<path d="M93.5683 121.941C93.5683 121.941 95.7267 124.155 104.562 125.564C113.396 126.973 131.715 131.402 131.513 138.649C131.312 145.896 114.403 184.545 114.403 184.545C114.403 184.545 105.948 182.935 102.023 180.519C102.023 180.519 108.828 152.941 113.931 145.694C113.931 145.694 91.0241 142.876 78.3561 137.642C65.6881 132.408 73.136 120.497 73.136 120.497L93.5683 121.941Z" stroke="#1A2E35" stroke-width="1.33333" stroke-miterlimit="10" stroke-linecap="round" stroke-linejoin="round"/>
<path d="M79.1761 120.923C79.1761 120.923 75.9265 126.369 78.356 129.389C80.7855 132.408 94.5659 138.045 93.0102 144.889C91.4546 151.733 86.3094 161.395 82.9535 184.344C82.9535 184.344 75.1493 183.136 69.9153 180.922C69.9153 180.922 69.0481 157.571 75.1179 147.506C75.1179 147.506 57.7365 144.285 55.9755 138.447C54.214 132.61 57.5094 123.682 57.5728 120.497L79.1761 120.923Z" fill="#1A2E35"/>
<path d="M79.1761 120.923C79.1761 120.923 75.9265 126.369 78.356 129.389C80.7855 132.408 94.5659 138.045 93.0102 144.889C91.4546 151.733 86.3094 161.395 82.9535 184.344C82.9535 184.344 75.1493 183.136 69.9153 180.922C69.9153 180.922 69.0481 157.571 75.1179 147.506C75.1179 147.506 57.7365 144.285 55.9755 138.447C54.214 132.61 57.5094 123.682 57.5728 120.497L79.1761 120.923Z" stroke="#1A2E35" stroke-width="1.33333" stroke-miterlimit="10" stroke-linecap="round" stroke-linejoin="round"/>
<path d="M89.6478 129.571C90.0325 129.545 90.4335 129.55 90.8508 129.59" stroke="#424242" stroke-linecap="round" stroke-linejoin="round"/>
<path d="M88.8834 125.967C88.8834 125.967 85.3138 127.017 83.9133 131.669C83.8022 132.038 84.2618 132.32 84.5323 132.046C85.2757 131.295 86.4352 130.371 87.9703 129.887" stroke="#424242" stroke-linecap="round" stroke-linejoin="round"/>
<path d="M115.61 145.443C115.61 143.48 124.065 142.423 121.8 140.612C119.536 138.8 114.402 144.688 114.402 144.688" stroke="#424242" stroke-linecap="round" stroke-linejoin="round"/>
<path d="M74.0674 153.293C74.0674 151.046 82.147 149.821 81.743 147.405C81.3396 144.99 76.2065 149.745 76.2065 149.745" stroke="#424242" stroke-linecap="round" stroke-linejoin="round"/>
<path d="M115.293 184.683L114.403 186.736C114.302 186.969 114.053 187.099 113.805 187.043C111.852 186.602 103.711 184.679 100.852 182.629C100.682 182.507 100.611 182.287 100.66 182.083L101.215 179.795C101.297 179.456 101.677 179.289 101.984 179.457C103.267 180.159 106.85 181.831 114.937 183.961C115.251 184.043 115.422 184.385 115.293 184.683Z" fill="#C4C4C4"/>
<path d="M115.293 184.683L114.403 186.736C114.302 186.969 114.053 187.099 113.805 187.043C111.852 186.602 103.711 184.679 100.852 182.629C100.682 182.507 100.611 182.287 100.66 182.083L101.215 179.795C101.297 179.456 101.677 179.289 101.984 179.457C103.267 180.159 106.85 181.831 114.937 183.961C115.251 184.043 115.422 184.385 115.293 184.683Z" stroke="#1A2E35" stroke-width="1.33333" stroke-miterlimit="10" stroke-linecap="round" stroke-linejoin="round"/>
<path d="M83.9367 182.992C83.9814 182.684 83.6831 182.428 83.3914 182.536C82.8122 182.751 81.8315 182.919 80.358 182.582C78.1193 182.071 71.7089 180.042 69.8024 179.434C69.5325 179.348 69.2613 179.55 69.2613 179.833V182.503C69.2613 182.669 69.3549 182.817 69.5059 182.884C71.0054 183.552 79.0288 186.988 83.2283 186.052C83.3956 186.014 83.5188 185.871 83.5436 185.701L83.9367 182.992Z" fill="#C4C4C4"/>
<path d="M83.9367 182.992C83.9814 182.684 83.6831 182.428 83.3914 182.536C82.8122 182.751 81.8315 182.919 80.358 182.582C78.1193 182.071 71.7089 180.042 69.8024 179.434C69.5325 179.348 69.2613 179.55 69.2613 179.833V182.503C69.2613 182.669 69.355 182.817 69.5059 182.884C71.0054 183.552 79.0288 186.988 83.2283 186.052C83.3956 186.014 83.5188 185.871 83.5436 185.701L83.9367 182.992Z" stroke="#1A2E35" stroke-width="1.33333" stroke-miterlimit="10" stroke-linecap="round" stroke-linejoin="round"/>
<path d="M77.4788 127.095C77.5548 127.922 77.8145 128.716 78.3556 129.389C80.1281 131.591 87.9389 135.186 91.433 139.626" stroke="#424242" stroke-width="1.33333" stroke-linecap="round" stroke-linejoin="round"/>
<path d="M77.8552 124.024C77.7278 124.459 77.6197 124.917 77.5478 125.384" stroke="#424242" stroke-width="1.33333" stroke-linecap="round" stroke-linejoin="round"/>
<path d="M124.105 195.566C124.105 195.566 123.501 196.522 123.048 198.435H101.238C101.238 198.435 101.18 196.973 100.024 195.944" stroke="#1A2E35" stroke-width="1.33333" stroke-miterlimit="10" stroke-linecap="round" stroke-linejoin="round"/>
<path d="M86.2102 195.566C86.2102 195.566 83.1907 195.793 82.0584 198.435H70.6598C70.6598 198.435 70.0559 197.076 70.0559 195.944" stroke="#1A2E35" stroke-width="1.33333" stroke-miterlimit="10" stroke-linecap="round" stroke-linejoin="round"/>
<path d="M104.085 87.786C103.805 88.8525 103.518 89.9081 103.23 90.9407C100.211 101.811 96.2858 122.494 96.2858 122.494C76.9611 126.571 56.5795 122.494 56.5795 122.494C56.4684 117.985 57.0173 112.038 57.6291 105.791C54.4598 104.914 52.1746 101.988 52.0502 97.1307C51.8993 91.2427 52.9664 80.6412 53.56 75.6923C54.0824 71.337 53.711 68.7475 60.4565 65.4471C63.8371 63.4953 69.4504 62.5726 76.3572 61.6516C89.9449 59.8399 99.7498 62.5853 103.23 64.0672C105.989 63.3407 106.756 66.5801 106.756 66.5801C108.285 65.4224 110.059 70.3152 110.059 70.3152C114.528 76.0184 118.044 85.6216 119.213 89.0469C119.469 89.797 119.948 90.4449 120.578 90.9256C123.748 93.343 121.986 96.3317 121.986 96.3317L115.494 98.3216C115.494 98.3216 112.349 99.1399 109.946 95.0038C107.936 91.5434 104.651 85.6778 104.085 87.786Z" fill="#1A095A"/>
<g opacity="0.300003">
<g opacity="0.300003">
<path opacity="0.300003" d="M114.298 95.5914C114.298 95.5914 114.449 92.5725 116.865 92.0441C119.28 91.5157 116.185 90.6141 114.298 91.0652C112.411 91.5157 112.846 89.855 111.232 87.1374C109.618 84.4199 108.826 82.2718 107.448 83.8389C106.07 85.4054 104.667 85.621 104.085 87.786C103.504 89.9504 106.372 95.0032 106.372 95.0032L110.878 98.498L113.166 99.7812H116.583L117.75 96.8282L114.298 95.5914Z" fill="black"/>
</g>
</g>
<path d="M104.086 87.7857C103.805 88.8522 103.518 89.9078 103.23 90.9405C100.211 101.811 96.2862 122.494 96.2862 122.494C76.9614 126.571 56.5798 122.494 56.5798 122.494C56.4687 117.985 57.0177 112.038 57.6294 105.79C54.4602 104.914 52.175 101.988 52.0506 97.1305C51.8996 91.2424 52.9667 80.641 53.5603 75.692C54.0827 71.3367 53.7113 68.7472 60.4569 65.4469C63.8375 63.4951 69.4507 62.5723 76.3575 61.6514C89.9453 59.8397 99.7502 62.585 103.23 64.067C105.989 63.3405 106.757 66.5798 106.757 66.5798C108.285 65.4221 110.059 70.3149 110.059 70.3149C114.529 76.0181 118.045 85.6214 119.213 89.0467C119.469 89.7967 119.948 90.4447 120.578 90.9254C123.748 93.3428 121.986 96.3315 121.986 96.3315L115.494 98.3213C115.494 98.3213 112.349 99.1396 109.946 95.0035C107.936 91.5432 104.651 85.6775 104.086 87.7857Z" stroke="#1A2E35" stroke-width="1.33333" stroke-miterlimit="10" stroke-linecap="round" stroke-linejoin="round"/>
<g opacity="0.300003">
<g opacity="0.300003">
<path opacity="0.300003" d="M56.5804 122.494C56.5001 119.232 56.767 115.211 57.1511 110.875C56.4929 120.068 75.6425 122.945 76.2464 117.962C76.8503 112.977 57.63 105.79 68.0883 108.303C77.2157 110.495 94.8984 108.4 99.2501 107.832C97.5791 115.687 96.2868 122.494 96.2868 122.494C76.962 126.571 56.5804 122.494 56.5804 122.494Z" fill="black"/>
</g>
</g>
<g opacity="0.300003">
<g opacity="0.300003">
<path opacity="0.300003" d="M65.3605 76.2959C65.3605 76.2959 68.0931 84.2976 68.0877 88.5248C68.0816 92.7479 75.7536 95.5856 75.7668 95.5911C71.6591 94.7535 67.6595 93.6489 65.7482 93.097C65.07 92.9013 64.6267 92.2575 64.6883 91.5546C65.0652 87.2204 65.4734 81.3843 65.3599 76.2959H65.3605Z" fill="black"/>
</g>
</g>
<path d="M106.616 74.2812C106.616 74.2812 106.708 80.037 104.602 85.3272C104.406 85.8175 104.964 86.265 105.393 85.9576C106.429 85.216 107.894 83.7045 109.219 80.6596" stroke="#1A2E35" stroke-miterlimit="10" stroke-linecap="round" stroke-linejoin="round"/>
<path d="M55.3718 98.9419C56.9648 93.659 59.7223 92.3352 61.8595 92.2024C62.2031 92.1812 62.3172 91.7319 62.0153 91.5683C60.7748 90.8961 58.3544 90.3659 55.3718 93.6578" stroke="#1A2E35" stroke-miterlimit="10" stroke-linecap="round" stroke-linejoin="round"/>
<path d="M86.0061 83.8168C86.0061 84.3181 86.4126 84.7239 86.9132 84.7239C87.4144 84.7239 87.8209 84.3181 87.8209 83.8168C87.8209 83.3156 87.4144 82.9098 86.9132 82.9098C86.4126 82.9098 86.0061 83.3156 86.0061 83.8168Z" fill="#C4C4C4"/>
<path d="M86.0061 83.8168C86.0061 84.3181 86.4126 84.7239 86.9132 84.7239C87.4144 84.7239 87.8209 84.3181 87.8209 83.8168C87.8209 83.3156 87.4144 82.9098 86.9132 82.9098C86.4126 82.9098 86.0061 83.3156 86.0061 83.8168Z" stroke="#1A2E35" stroke-miterlimit="10" stroke-linecap="round" stroke-linejoin="round"/>
<path d="M84.7764 94.0961C84.7764 94.5974 85.1828 95.0032 85.6841 95.0032C86.1853 95.0032 86.5911 94.5974 86.5911 94.0961C86.5911 93.5949 86.1853 93.1885 85.6841 93.1885C85.1828 93.1885 84.7764 93.5949 84.7764 94.0961Z" fill="#C4C4C4"/>
<path d="M84.7764 94.0961C84.7764 94.5974 85.1828 95.0032 85.6841 95.0032C86.1853 95.0032 86.5911 94.5974 86.5911 94.0961C86.5911 93.5949 86.1853 93.1885 85.6841 93.1885C85.1828 93.1885 84.7764 93.5949 84.7764 94.0961Z" stroke="#1A2E35" stroke-miterlimit="10" stroke-linecap="round" stroke-linejoin="round"/>
<path d="M81.7431 118.869C81.7431 119.37 82.1495 119.777 82.6507 119.777C83.1514 119.777 83.5578 119.37 83.5578 118.869C83.5578 118.368 83.1514 117.962 82.6507 117.962C82.1495 117.962 81.7431 118.368 81.7431 118.869Z" fill="#C4C4C4"/>
<path d="M81.7431 118.869C81.7431 119.37 82.1495 119.777 82.6507 119.777C83.1514 119.777 83.5578 119.37 83.5578 118.869C83.5578 118.368 83.1514 117.962 82.6507 117.962C82.1495 117.962 81.7431 118.368 81.7431 118.869Z" stroke="#1A2E35" stroke-width="1.33333" stroke-miterlimit="10" stroke-linecap="round" stroke-linejoin="round"/>
<path d="M99.0841 100.829C99.0841 100.829 102.05 103.659 100.64 103.703C99.2297 103.747 97.4451 101.81 95.8092 101.584C94.1726 101.357 96.8147 100.357 96.8147 100.357L99.0841 100.829Z" fill="white"/>
<path d="M99.0841 100.829C99.0841 100.829 102.05 103.659 100.64 103.703C99.2297 103.747 97.4451 101.81 95.8092 101.584C94.1726 101.357 96.8147 100.357 96.8147 100.357L99.0841 100.829Z" stroke="#1A2E35" stroke-width="1.33333" stroke-miterlimit="10" stroke-linecap="round" stroke-linejoin="round"/>
<path d="M81.77 97.6509C82.0357 97.4087 82.3956 97.2946 82.7544 97.3236C84.2073 97.4401 88.3694 97.756 89.945 97.6587C92.7314 97.4872 100.949 95.7462 100.949 95.7462C101.139 95.7136 101.335 95.7245 101.52 95.7788L106.608 97.2735C106.794 97.3284 106.964 97.4244 107.107 97.5555L110.186 100.386C110.288 100.48 110.374 100.589 110.44 100.71L111.078 101.88C111.348 102.375 111.257 102.989 110.854 103.384L105.758 103.543C105.443 103.553 105.137 103.445 104.898 103.24L103.388 101.946C103.288 101.859 103.203 101.757 103.133 101.645C102.761 101.048 101.339 99.0507 99.0838 99.244C99.0838 99.244 103.91 101.811 103.004 102.867C102.098 103.924 98.3996 100.905 97.1918 101.207C96.0099 101.502 95.9037 104.471 89.3302 103.398C89.0385 103.35 88.736 103.361 88.4515 103.44L82.4735 105.112C81.7247 105.322 80.9559 104.872 80.7633 104.119C80.3158 102.37 79.9076 99.3484 81.77 97.6509Z" fill="white"/>
<path d="M81.77 97.6509C82.0357 97.4087 82.3956 97.2946 82.7544 97.3236C84.2073 97.4401 88.3694 97.756 89.945 97.6587C92.7314 97.4872 100.949 95.7462 100.949 95.7462C101.139 95.7136 101.335 95.7245 101.52 95.7788L106.608 97.2735C106.794 97.3284 106.964 97.4244 107.107 97.5555L110.186 100.386C110.288 100.48 110.374 100.589 110.44 100.71L111.078 101.88C111.348 102.375 111.257 102.989 110.854 103.384L105.758 103.543C105.443 103.553 105.137 103.445 104.898 103.24L103.388 101.946C103.288 101.859 103.203 101.757 103.133 101.645C102.761 101.048 101.339 99.0507 99.0838 99.244C99.0838 99.244 103.91 101.811 103.004 102.867C102.098 103.924 98.3996 100.905 97.1918 101.207C96.0099 101.502 95.9037 104.471 89.3302 103.398C89.0385 103.35 88.736 103.361 88.4515 103.44L82.4735 105.112C81.7247 105.322 80.9559 104.872 80.7633 104.119C80.3158 102.37 79.9076 99.3484 81.77 97.6509Z" stroke="#1A2E35" stroke-width="1.33333" stroke-miterlimit="10" stroke-linecap="round" stroke-linejoin="round"/>
<path d="M100.238 96.8281L101.521 97.0443C102.145 97.15 102.728 97.4266 103.205 97.8439L104.538 99.01C104.773 99.2153 104.978 99.4515 105.149 99.7123L106.023 101.05C106.119 101.197 106.228 101.336 106.346 101.466C106.866 102.039 108.295 103.739 106.751 103.512" fill="white"/>
<path d="M100.238 96.8281L101.521 97.0443C102.145 97.15 102.728 97.4266 103.205 97.8439L104.538 99.01C104.773 99.2153 104.978 99.4515 105.149 99.7123L106.023 101.05C106.119 101.197 106.228 101.336 106.346 101.466C106.866 102.039 108.295 103.739 106.751 103.512" stroke="#1A2E35" stroke-width="1.33333" stroke-miterlimit="10" stroke-linecap="round" stroke-linejoin="round"/>
<path d="M103.843 97.2813L105.168 97.6394C105.581 97.7511 105.959 97.9649 106.267 98.2614L107.301 99.2536C107.398 99.3479 107.489 99.4493 107.571 99.5586L109.266 101.811C109.266 101.811 110.175 103.405 109.266 103.434" fill="white"/>
<path d="M103.843 97.2813L105.168 97.6394C105.581 97.7511 105.959 97.9649 106.267 98.2614L107.301 99.2536C107.398 99.3479 107.489 99.4493 107.571 99.5586L109.266 101.811C109.266 101.811 110.175 103.405 109.266 103.434" stroke="#1A2E35" stroke-width="1.33333" stroke-miterlimit="10" stroke-linecap="round" stroke-linejoin="round"/>
<path d="M65.3208 75.015C65.5442 80.3788 65.0973 86.8526 64.6879 91.5546C64.6269 92.2575 65.0696 92.9012 65.7477 93.0969C68.3844 93.8584 74.9958 95.675 80.385 96.3857" stroke="#1A2E35" stroke-width="1.33333" stroke-miterlimit="10" stroke-linecap="round" stroke-linejoin="round"/>
<path d="M65.0201 71.2701C65.0992 71.8843 65.1638 72.5299 65.2152 73.2014" stroke="#1A2E35" stroke-miterlimit="10" stroke-linecap="round" stroke-linejoin="round"/>
<path d="M62.9934 65.6144C63.686 66.2098 64.1957 67.3137 64.5623 68.7661" stroke="#1A2E35" stroke-miterlimit="10" stroke-linecap="round" stroke-linejoin="round"/>
<path d="M93.2307 62.0284C93.2307 62.0284 92.8533 60.8206 90.8151 60.1412C88.7769 59.4618 81.7246 58.3736 78.0958 60.1412C74.4657 61.9088 81.4172 71.5023 81.4172 71.5023L84.6626 75.9555L87.5311 78.1072L88.815 74.2815L90.4757 72.5586C90.4757 72.5586 94.0611 69.6152 93.7591 66.7086C93.4572 63.8026 93.2307 62.0284 93.2307 62.0284Z" fill="white"/>
<path d="M78.4075 61.6298C83.2013 76.6796 87.4286 77.3523 87.4286 77.3523C88.8375 71.817 90.0453 73.0248 91.9578 69.5656C93.4923 66.7907 92.973 63.2724 92.7084 61.9903C92.6438 61.6787 92.4464 61.4082 92.1625 61.2638C87.4056 58.8422 81.5852 59.733 79.1847 60.2632C78.5742 60.3979 78.2179 61.0344 78.4075 61.6298ZM75.414 61.7784C75.9805 59.7921 78.5712 59.2353 78.5712 59.2353C90.9511 57.1217 93.5684 61.622 93.5684 61.622C96.0842 68.6374 93.5684 74.2815 93.5684 74.2815C93.5684 74.2815 90.0453 72.8231 89.4414 74.2815C88.8375 75.7393 87.7305 78.8621 87.7305 78.8621C87.7305 78.8621 85.3149 77.6543 83.4024 75.1384C81.4904 72.622 76.9926 75.1384 76.9926 75.1384C74.1059 70.1055 75.414 61.7784 75.414 61.7784Z" fill="#E1FFCA"/>
<g opacity="0.399994">
<g opacity="0.399994">
<path opacity="0.399994" d="M78.4076 61.6303C83.2014 76.6801 87.4287 77.3528 87.4287 77.3528C88.8375 71.8175 90.0453 73.0253 91.9579 69.5661C93.4924 66.7912 92.973 63.2729 92.7085 61.9908C92.6439 61.6792 92.4464 61.4087 92.1626 61.2643C87.4057 58.8427 81.5853 59.7334 79.1848 60.2637C78.5743 60.3983 78.218 61.0348 78.4076 61.6303ZM75.4141 61.7789C75.9805 59.7926 78.5713 59.2358 78.5713 59.2358C90.9512 57.1222 93.5685 61.6224 93.5685 61.6224C96.0843 68.6379 93.5685 74.282 93.5685 74.282C93.5685 74.282 90.0453 72.8236 89.4414 74.282C88.8375 75.7398 87.7306 78.8625 87.7306 78.8625C87.7306 78.8625 85.315 77.6548 83.4025 75.1389C81.4905 72.6225 76.9927 75.1389 76.9927 75.1389C74.106 70.106 75.4141 61.7789 75.4141 61.7789Z" fill="white"/>
</g>
</g>
<path d="M78.4073 61.63C83.201 76.6798 87.4283 77.3526 87.4283 77.3526C88.8372 71.8172 90.045 73.025 91.9576 69.5659C93.4921 66.791 92.9727 63.2727 92.7082 61.9906C92.6436 61.679 92.4461 61.4084 92.1623 61.2641C87.4054 58.8425 81.585 59.7332 79.1845 60.2634C78.574 60.3981 78.2177 61.0346 78.4073 61.63ZM75.4137 61.7786C75.9802 59.7924 78.5709 59.2356 78.5709 59.2356C90.9509 57.1219 93.5682 61.6222 93.5682 61.6222C96.084 68.6377 93.5682 74.2817 93.5682 74.2817C93.5682 74.2817 90.045 72.8233 89.4411 74.2817C88.8372 75.7395 87.7303 78.8623 87.7303 78.8623C87.7303 78.8623 85.3147 77.6545 83.4021 75.1387C81.4902 72.6222 76.9923 75.1387 76.9923 75.1387C74.1057 70.1058 75.4137 61.7786 75.4137 61.7786V61.7786Z" stroke="#1A2E35" stroke-width="1.33333" stroke-miterlimit="10" stroke-linecap="round" stroke-linejoin="round"/>
<path d="M95.6252 38.7811C95.6252 38.7811 106.294 40.9177 100.418 47.8571C93.9017 55.5532 95.6252 38.7811 95.6252 38.7811Z" fill="#1A2E35"/>
<path d="M95.6252 38.7811C95.6252 38.7811 106.294 40.9177 100.418 47.8571C93.9017 55.5532 95.6252 38.7811 95.6252 38.7811Z" stroke="#1A2E35" stroke-width="1.33333" stroke-miterlimit="10" stroke-linecap="round" stroke-linejoin="round"/>
<path d="M99.8325 55.7129C99.8325 55.7129 102.369 45.4467 97.5377 40.5146C92.7065 35.5832 87.4725 34.5765 83.5472 36.9921C79.6218 39.4077 78.0118 45.4467 78.6157 48.567C79.2196 51.6868 78.9249 62.8589 84.3063 67.489C89.687 72.1191 92.9988 70.9777 96.5569 64.6706C98.8952 60.5266 100.014 59.3363 99.8325 55.7129Z" fill="white"/>
<path d="M99.8325 55.7129C99.8325 55.7129 102.369 45.4467 97.5377 40.5146C92.7065 35.5832 87.4725 34.5765 83.5472 36.9921C79.6218 39.4077 78.0118 45.4467 78.6157 48.567C79.2196 51.6868 78.9249 62.8589 84.3063 67.489C89.687 72.1191 92.9988 70.9777 96.5569 64.6706C98.8952 60.5266 100.014 59.3363 99.8325 55.7129Z" stroke="#1A2E35" stroke-width="1.33333" stroke-miterlimit="10" stroke-linecap="round" stroke-linejoin="round"/>
<path d="M81.1336 53.7002C81.1336 53.7002 85.1894 49.674 86.4316 44.9437C87.6738 40.2134 88.378 39.4078 93.0081 41.7231C97.6382 44.0378 104.862 40.9217 102.972 35.0802C100.986 28.9404 94.9206 36.8919 89.0827 34.8785C83.2448 32.8657 79.1045 36.4891 79.0954 41.8233C79.0954 41.8233 75.5675 45.2456 79.1045 54.103L81.1336 53.7002Z" fill="#1A2E35"/>
<path d="M81.1336 53.7002C81.1336 53.7002 85.1894 49.674 86.4316 44.9437C87.6738 40.2134 88.378 39.4078 93.0081 41.7231C97.6382 44.0378 104.862 40.9217 102.972 35.0802C100.986 28.9404 94.9206 36.8919 89.0827 34.8785C83.2448 32.8657 79.1045 36.4891 79.0954 41.8233C79.0954 41.8233 75.5675 45.2456 79.1045 54.103L81.1336 53.7002Z" stroke="#1A2E35" stroke-width="1.33333" stroke-miterlimit="10" stroke-linecap="round" stroke-linejoin="round"/>
<path d="M82.4062 53.025C82.4062 53.025 81.3802 47.3973 78.5255 47.9191C75.6715 48.4414 77.7121 56.7451 81.0698 55.8392" fill="white"/>
<path d="M82.4062 53.025C82.4062 53.025 81.3802 47.3973 78.5255 47.9191C75.6715 48.4414 77.7121 56.7451 81.0698 55.8392" stroke="#1A2E35" stroke-width="1.33333" stroke-miterlimit="10" stroke-linecap="round" stroke-linejoin="round"/>
<path d="M95.9777 54.9332C95.9777 54.9332 97.0961 60.1557 96.7326 61.0537C96.3684 61.9517 92.9105 61.2645 92.9105 61.2645" fill="white"/>
<path d="M95.9777 54.9332C95.9777 54.9332 97.0961 60.1557 96.7326 61.0537C96.3684 61.9517 92.9105 61.2645 92.9105 61.2645" stroke="#1A2E35" stroke-width="1.33333" stroke-miterlimit="10" stroke-linecap="round" stroke-linejoin="round"/>
<path d="M92.4296 63.5387C92.4296 63.5387 89.7217 64.6082 87.3388 61.0537L92.4296 63.5387Z" fill="white"/>
<path d="M92.4296 63.5387C92.4296 63.5387 89.7217 64.6082 87.3388 61.0537" stroke="#1A2E35" stroke-width="1.33333" stroke-miterlimit="10" stroke-linecap="round" stroke-linejoin="round"/>
<path d="M97.8302 55.3687C97.7293 55.8554 97.8562 56.2932 98.114 56.347C98.3713 56.4001 98.663 56.0493 98.7638 55.5625C98.8647 55.0758 98.7379 54.6379 98.48 54.5848C98.2221 54.531 97.9317 54.8819 97.8302 55.3687Z" fill="#1A2E35"/>
<path d="M91.2075 54.8362C91.1066 55.3229 91.2335 55.7608 91.4913 55.8139C91.7486 55.8677 92.0403 55.5162 92.1411 55.03C92.242 54.5433 92.1151 54.1055 91.8573 54.0517C91.5994 53.9986 91.3083 54.3495 91.2075 54.8362Z" fill="#1A2E35"/>
<path d="M96.4379 55.1423C96.3015 56.5101 97.6765 57.768 99.5094 57.951C101.342 58.134 102.939 57.1738 103.076 55.806C103.212 54.4375 101.772 53.8336 99.9394 53.6507C98.1065 53.4677 96.575 53.7739 96.4379 55.1423Z" stroke="#1A2E35" stroke-width="1.33333" stroke-miterlimit="10" stroke-linecap="round" stroke-linejoin="round"/>
<path d="M87.8919 54.2879C87.7548 55.6564 89.1305 56.9137 90.9634 57.0967C92.7962 57.2802 94.3929 56.3194 94.5294 54.9516C94.6665 53.5832 93.2262 52.9799 91.3933 52.7969C89.5605 52.6139 88.029 52.9201 87.8919 54.2879Z" stroke="#1A2E35" stroke-width="1.33333" stroke-miterlimit="10" stroke-linecap="round" stroke-linejoin="round"/>
<path d="M96.4377 55.1423L94.5294 54.9515L96.4377 55.1423Z" fill="white"/>
<path d="M96.4377 55.1423L94.5294 54.9515" stroke="#1A2E35" stroke-width="1.33333" stroke-miterlimit="10" stroke-linecap="round" stroke-linejoin="round"/>
<path d="M88.1268 53.603L81.1064 49.4633L88.1268 53.603Z" fill="white"/>
<path d="M88.1268 53.603L81.1064 49.4633" stroke="#1A2E35" stroke-width="1.33333" stroke-miterlimit="10" stroke-linecap="round" stroke-linejoin="round"/>
<path d="M79.9021 60.042L79.5712 60.8464L79.9021 60.042Z" fill="white"/>
<path d="M79.9021 60.042L79.5712 60.8464" stroke="#1A2E35" stroke-width="1.33333" stroke-miterlimit="10" stroke-linecap="round" stroke-linejoin="round"/>
<path d="M100.396 52.9351C100.396 52.9351 99.3272 51.5745 98.0149 52.2297L100.396 52.9351Z" fill="white"/>
<path d="M100.396 52.9351C100.396 52.9351 99.3272 51.5745 98.0149 52.2297" stroke="#1A2E35" stroke-width="1.33333" stroke-miterlimit="10" stroke-linecap="round" stroke-linejoin="round"/>
<path d="M89.4543 52.3269C89.4543 52.3269 91.333 50.5363 93.1405 51.7925L89.4543 52.3269Z" fill="white"/>
<path d="M89.4543 52.3269C89.4543 52.3269 91.333 50.5363 93.1405 51.7925" stroke="#1A2E35" stroke-width="1.33333" stroke-miterlimit="10" stroke-linecap="round" stroke-linejoin="round"/>
<path d="M98.0242 35.7576C95.1684 36.6659 90.3602 37.7746 86.4318 36.5892C80.4266 34.7775 82.4648 41.5387 81.106 43.4048" stroke="#424242" stroke-width="1.33333" stroke-linecap="round" stroke-linejoin="round"/>
<path d="M100.497 34.8533C100.497 34.8533 100.018 35.0646 99.2056 35.3569" stroke="#424242" stroke-width="1.33333" stroke-linecap="round" stroke-linejoin="round"/>
<path d="M93.2828 39.1238C92.9628 39.0259 92.6276 38.9118 92.2786 38.7814" stroke="#424242" stroke-width="1.33333" stroke-linecap="round" stroke-linejoin="round"/>
<path d="M99.8324 38.3257C99.8324 38.3257 98.5564 40.3041 94.4324 39.4236" stroke="#424242" stroke-width="1.33333" stroke-linecap="round" stroke-linejoin="round"/>
<path d="M84.4968 42.1985C84.2431 43.9166 83.5927 46.4083 81.9368 48.6675" stroke="#424242" stroke-width="1.33333" stroke-linecap="round" stroke-linejoin="round"/>
<path d="M84.6543 40.062C84.6543 40.062 84.6694 40.4678 84.6169 41.1423" stroke="#424242" stroke-width="1.33333" stroke-linecap="round" stroke-linejoin="round"/>
<g opacity="0.300003">
<g opacity="0.300003">
<path opacity="0.300003" d="M79.2823 104.844C79.7685 105.279 79.4858 106.081 78.8336 106.085C74.7561 106.104 63.7537 106.131 59.4871 105.887C54.203 105.585 58.2358 99.8357 62.4849 102.031C66.4006 104.055 74.6377 100.686 79.2823 104.844Z" fill="black"/>
</g>
</g>
<path d="M125.269 99.1829C125.269 99.1829 122.801 92.6065 116.606 93.6506C110.348 94.705 115.146 99.881 118.124 100.344C118.124 100.344 118.576 98.5386 125.269 99.1829Z" fill="white"/>
<path d="M125.269 99.1829C125.269 99.1829 122.801 92.6065 116.606 93.6506C110.348 94.705 115.146 99.881 118.124 100.344C118.124 100.344 118.576 98.5386 125.269 99.1829Z" stroke="#1A2E35" stroke-width="1.33333" stroke-miterlimit="10" stroke-linecap="round" stroke-linejoin="round"/>
<path d="M130.516 102.914C131.334 103.732 133.295 103.802 131.976 102.031C130.516 100.071 128.871 99.4143 127.749 98.913C124.809 97.6014 123.664 97.8641 121.005 97.2813C118.346 96.6991 117.849 97.7801 116.928 98.2844C114.738 99.4855 114.211 99.6939 113.657 100.902C113.104 102.109 112.5 103.681 114.211 103.681C115.771 103.681 115.872 101.103 117.381 101.204C118.891 101.304 119.646 103.681 120.703 103.681H121.106C122.011 103.681 122.06 102.928 121.506 101.744C120.952 100.559 120.351 99.4922 120.351 99.4922C120.351 99.4922 121.664 100.09 122.389 101.631C123.114 103.172 123.247 103.822 124.579 103.822C125.911 103.822 125.82 102.832 124.494 100.646C124.494 100.646 125.688 101.302 126.341 102.536C126.994 103.77 127.334 103.681 128.189 103.681C129.308 103.681 129.233 101.832 127.245 100.624C127.245 100.624 127.686 100.084 130.516 102.914Z" fill="white"/>
<path d="M130.516 102.914C131.334 103.732 133.295 103.802 131.976 102.031C130.516 100.071 128.871 99.4143 127.749 98.913C124.809 97.6014 123.664 97.8641 121.005 97.2813C118.346 96.6991 117.849 97.7801 116.928 98.2844C114.738 99.4855 114.211 99.6939 113.657 100.902C113.104 102.109 112.5 103.681 114.211 103.681C115.771 103.681 115.872 101.103 117.381 101.204C118.891 101.304 119.646 103.681 120.703 103.681H121.106C122.011 103.681 122.06 102.928 121.506 101.744C120.952 100.559 120.351 99.4922 120.351 99.4922C120.351 99.4922 121.664 100.09 122.389 101.631C123.114 103.172 123.247 103.822 124.579 103.822C125.911 103.822 125.82 102.832 124.494 100.646C124.494 100.646 125.688 101.302 126.341 102.536C126.994 103.77 127.334 103.681 128.189 103.681C129.308 103.681 129.233 101.832 127.245 100.624C127.245 100.624 127.686 100.084 130.516 102.914Z" stroke="#1A2E35" stroke-width="1.33333" stroke-miterlimit="10" stroke-linecap="round" stroke-linejoin="round"/>
<path d="M122.752 98.4985C122.752 98.4985 123.534 98.461 124.024 99.7817L122.752 98.4985Z" fill="white"/>
<path d="M122.752 98.4985C122.752 98.4985 123.534 98.461 124.024 99.7817" stroke="#1A2E35" stroke-miterlimit="10" stroke-linecap="round" stroke-linejoin="round"/>
<path d="M23.5207 41.6403C19.6684 44.6683 15.9551 47.9571 12.4041 51.5081" stroke="#1A2E35" stroke-miterlimit="10" stroke-linecap="round" stroke-linejoin="round"/>
<path d="M27.7344 38.4719C26.9958 39.0027 26.2621 39.5426 25.5332 40.0916" stroke="#1A2E35" stroke-miterlimit="10" stroke-linecap="round" stroke-linejoin="round"/>
<path d="M31.9426 35.5768C31.1853 36.075 30.4323 36.5823 29.684 37.0986" stroke="#1A2E35" stroke-miterlimit="10" stroke-linecap="round" stroke-linejoin="round"/>
<path d="M62.8372 20.9618C52.961 24.0398 43.3946 28.3873 34.3947 34.0054" stroke="#1A2E35" stroke-miterlimit="10" stroke-linecap="round" stroke-linejoin="round"/>
<path d="M69.4345 19.1056C68.2116 19.4129 66.9923 19.7397 65.7767 20.0857" stroke="#1A2E35" stroke-miterlimit="10" stroke-linecap="round" stroke-linejoin="round"/>
<path d="M76.2184 17.6004C74.8911 17.8559 73.5673 18.1337 72.2478 18.4326" stroke="#1A2E35" stroke-miterlimit="10" stroke-linecap="round" stroke-linejoin="round"/>
<path d="M82.2651 16.5913C81.1201 16.7537 79.9775 16.9313 78.8361 17.1257" stroke="#1A2E35" stroke-miterlimit="10" stroke-linecap="round" stroke-linejoin="round"/>
<path d="M118.688 16.8345C107.493 15.0965 96.1063 14.902 84.869 16.2505" stroke="#1A2E35" stroke-miterlimit="10" stroke-linecap="round" stroke-linejoin="round"/>
<path d="M123.671 17.7129C122.643 17.51 121.613 17.3204 120.581 17.144" stroke="#1A2E35" stroke-miterlimit="10" stroke-linecap="round" stroke-linejoin="round"/>
<path d="M128.505 18.7678C127.476 18.5214 126.445 18.2889 125.412 18.0691" stroke="#1A2E35" stroke-miterlimit="10" stroke-linecap="round" stroke-linejoin="round"/>
<path d="M134.45 20.3494C133.401 20.042 132.348 19.7491 131.293 19.4701" stroke="#1A2E35" stroke-miterlimit="10" stroke-linecap="round" stroke-linejoin="round"/>
<path d="M170.387 37.625C160.219 30.496 149.215 25.0796 137.778 21.3753" stroke="#1A2E35" stroke-miterlimit="10" stroke-linecap="round" stroke-linejoin="round"/>
<path d="M175.243 41.21C174.298 40.4762 173.345 39.7576 172.385 39.0552" stroke="#1A2E35" stroke-miterlimit="10" stroke-linecap="round" stroke-linejoin="round"/>
<path d="M180.111 45.1943C179.076 44.3024 178.029 43.4303 176.972 42.5776" stroke="#1A2E35" stroke-miterlimit="10" stroke-linecap="round" stroke-linejoin="round"/>
<path d="M186.91 51.5081C185.493 50.0913 184.051 48.7162 182.584 47.3828" stroke="#1A2E35" stroke-miterlimit="10" stroke-linecap="round" stroke-linejoin="round"/>
<path d="M139.685 29.4475C139.685 37.7445 146.411 44.4707 154.708 44.4707C163.005 44.4707 169.732 37.7445 169.732 29.4475C169.732 21.1499 163.005 14.4243 154.708 14.4243C146.411 14.4243 139.685 21.1499 139.685 29.4475Z" fill="#E1FFCA"/>
<g opacity="0.300003">
<g opacity="0.300003">
<path opacity="0.300003" d="M139.915 29.0891C139.915 37.3861 146.641 44.1123 154.938 44.1123C163.236 44.1123 169.962 37.3861 169.962 29.0891C169.962 20.7915 163.236 14.0659 154.938 14.0659C146.641 14.0659 139.915 20.7915 139.915 29.0891Z" fill="white"/>
</g>
</g>
<path d="M139.685 29.4478C139.685 37.7447 146.411 44.4709 154.708 44.4709C163.006 44.4709 169.732 37.7447 169.732 29.4478C169.732 21.1502 163.006 14.4246 154.708 14.4246C146.411 14.4246 139.685 21.1502 139.685 29.4478Z" stroke="#1A2E35" stroke-miterlimit="10" stroke-linecap="round" stroke-linejoin="round"/>
<path d="M183.819 71.7407H192.487C196.475 71.7407 199.708 68.5074 199.708 64.5193V55.8515C199.708 51.8634 196.475 48.6301 192.487 48.6301H183.819C179.831 48.6301 176.598 51.8634 176.598 55.8515V64.5193C176.598 68.5074 179.831 71.7407 183.819 71.7407Z" fill="#E1FFCA"/>
<path d="M183.819 71.7407H192.487C196.475 71.7407 199.708 68.5074 199.708 64.5193V55.8515C199.708 51.8634 196.475 48.6301 192.487 48.6301H183.819C179.831 48.6301 176.598 51.8634 176.598 55.8515V64.5193C176.598 68.5074 179.831 71.7407 183.819 71.7407Z" stroke="#1A2E35" stroke-miterlimit="10" stroke-linecap="round" stroke-linejoin="round"/>
<path d="M196.527 60.7442V59.627L191.907 57.6341V58.8419L195.093 60.1856L191.907 61.5293V62.7371L196.527 60.7442Z" fill="white"/>
<path d="M196.527 60.7442V59.627L191.907 57.6341V58.8419L195.093 60.1856L191.907 61.5293V62.7371L196.527 60.7442Z" stroke="#1A2E35" stroke-miterlimit="10" stroke-linecap="round" stroke-linejoin="round"/>
<path d="M186.787 54.9015H185.353L189.52 65.4697H190.953L186.787 54.9015Z" fill="white"/>
<path d="M186.787 54.9015H185.353L189.52 65.4697H190.953L186.787 54.9015Z" stroke="#1A2E35" stroke-miterlimit="10" stroke-linecap="round" stroke-linejoin="round"/>
<path d="M184.398 61.5293L181.213 60.1856L184.398 58.8419V57.6341L179.778 59.627V60.7442L184.398 62.7371V61.5293Z" fill="white"/>
<path d="M184.398 61.5293L181.213 60.1856L184.398 58.8419V57.6341L179.778 59.627V60.7442L184.398 62.7371V61.5293Z" stroke="#1A2E35" stroke-miterlimit="10" stroke-linecap="round" stroke-linejoin="round"/>
<path d="M35.2986 26.0486C35.2986 33.1306 41.0398 38.8718 48.1212 38.8718C55.2037 38.8718 60.9449 33.1306 60.9449 26.0486C60.9449 18.9661 55.2037 13.2254 48.1212 13.2254C41.0398 13.2254 35.2986 18.9661 35.2986 26.0486Z" fill="#E1FFCA"/>
<g opacity="0.199997">
<g opacity="0.199997">
<path opacity="0.199997" d="M35.2153 26.2974C35.2153 33.3793 40.9565 39.1206 48.0378 39.1206C55.1204 39.1206 60.8616 33.3793 60.8616 26.2974C60.8616 19.2149 55.1204 13.4742 48.0378 13.4742C40.9565 13.4742 35.2153 19.2149 35.2153 26.2974Z" fill="black"/>
</g>
</g>
<path d="M35.2986 26.0486C35.2986 33.1306 41.0399 38.8718 48.1212 38.8718C55.2037 38.8718 60.945 33.1306 60.945 26.0486C60.945 18.9661 55.2037 13.2254 48.1212 13.2254C41.0399 13.2254 35.2986 18.9661 35.2986 26.0486Z" stroke="#1A2E35" stroke-miterlimit="10" stroke-linecap="round" stroke-linejoin="round"/>
<path d="M97.275 29.0122H108.862C113.397 29.0122 117.074 25.3351 117.074 20.7992V9.21278C117.074 4.6769 113.397 0.999756 108.862 0.999756H97.275C92.7392 0.999756 89.062 4.6769 89.062 9.21278V20.7992C89.062 25.3351 92.7392 29.0122 97.275 29.0122Z" fill="#E1FFCA"/>
<path d="M97.275 29.0122H108.862C113.397 29.0122 117.074 25.3351 117.074 20.7992V9.21278C117.074 4.6769 113.397 0.999755 108.862 0.999755H97.275C92.7392 0.999755 89.062 4.6769 89.062 9.21278V20.7992C89.062 25.3351 92.7392 29.0122 97.275 29.0122Z" stroke="#1A2E35" stroke-miterlimit="10" stroke-linecap="round" stroke-linejoin="round"/>
<path d="M1.43124 53.1688C1.43124 60.2326 7.15681 65.9587 14.2212 65.9587C21.285 65.9587 27.0106 60.2326 27.0106 53.1688C27.0106 46.105 21.285 40.3788 14.2212 40.3788C7.15681 40.3788 1.43124 46.105 1.43124 53.1688Z" fill="#E1FFCA"/>
<g opacity="0.300003">
<g opacity="0.300003">
<path opacity="0.300003" d="M1.76746 53.4273C1.76746 60.4911 7.49302 66.2173 14.5574 66.2173C21.6212 66.2173 27.3468 60.4911 27.3468 53.4273C27.3468 46.3635 21.6212 40.6373 14.5574 40.6373C7.49302 40.6373 1.76746 46.3635 1.76746 53.4273Z" fill="white"/>
</g>
</g>
<path d="M1.43173 53.169C1.43173 60.2328 7.1573 65.959 14.2217 65.959C21.2855 65.959 27.0111 60.2328 27.0111 53.169C27.0111 46.1052 21.2855 40.379 14.2217 40.379C7.1573 40.379 1.43173 46.1052 1.43173 53.169Z" stroke="#1A2E35" stroke-miterlimit="10" stroke-linecap="round" stroke-linejoin="round"/>
<path d="M165.419 200.448H167.657L168.261 111.521H165.419V200.448Z" fill="#868686"/>
<path d="M165.419 200.448H167.657L168.261 111.521H165.419V200.448Z" stroke="#1A2E35" stroke-width="1.33333" stroke-miterlimit="10" stroke-linecap="round" stroke-linejoin="round"/>
<path d="M163.181 200.448H165.42V111.521H162.578L163.181 200.448Z" fill="#C4C4C4"/>
<path d="M163.181 200.448H165.42V111.521H162.578L163.181 200.448Z" stroke="#1A2E35" stroke-width="1.33333" stroke-miterlimit="10" stroke-linecap="round" stroke-linejoin="round"/>
<path d="M37.5389 111.521H191.054V106.076H37.5389V111.521Z" fill="#1A2E35" stroke="#1A2E35" stroke-width="1.33333" stroke-miterlimit="10" stroke-linecap="round" stroke-linejoin="round"/>
<path d="M5.45544 111.521H39.8288V106.076H5.45544V111.521Z" fill="#868686" stroke="#1A2E35" stroke-width="1.33333" stroke-miterlimit="10" stroke-linecap="round" stroke-linejoin="round"/>
<path d="M30.5723 120.497H183.191V111.52H30.5723V120.497Z" fill="black" stroke="#1A2E35" stroke-width="1.33333" stroke-miterlimit="10"/>
<path d="M30.5723 120.497H12.8007V111.52H30.5723V120.497Z" fill="black"/>
<g opacity="0.300003">
<path opacity="0.300003" d="M30.572 120.497H12.8004V111.52H30.572V120.497Z" fill="black"/>
</g>
<path d="M30.5723 120.497H12.8007V111.52H30.5723V120.497Z" stroke="#1A2E35" stroke-width="1.33333" stroke-miterlimit="10"/>
<path d="M30.5718 200.448H32.8092L33.4131 111.521H30.5718V200.448Z" fill="#868686"/>
<path d="M30.5718 200.448H32.8092L33.4131 111.521H30.5718V200.448Z" stroke="#1A2E35" stroke-width="1.33333" stroke-miterlimit="10" stroke-linecap="round" stroke-linejoin="round"/>
<path d="M28.3339 200.448H30.572V111.521H27.73L28.3339 200.448Z" fill="#C4C4C4"/>
<path d="M28.3339 200.448H30.572V111.521H27.73L28.3339 200.448Z" stroke="#1A2E35" stroke-width="1.33333" stroke-miterlimit="10" stroke-linecap="round" stroke-linejoin="round"/>
<path d="M183.191 200.448H185.429L186.033 111.521H183.191V200.448Z" fill="#868686"/>
<path d="M183.191 200.448H185.429L186.033 111.521H183.191V200.448Z" stroke="#1A2E35" stroke-width="1.33333" stroke-miterlimit="10" stroke-linecap="round" stroke-linejoin="round"/>
<path d="M180.953 200.448H183.191V111.521H180.349L180.953 200.448Z" fill="#C4C4C4"/>
<path d="M180.953 200.448H183.191V111.521H180.349L180.953 200.448Z" stroke="#1A2E35" stroke-width="1.33333" stroke-miterlimit="10" stroke-linecap="round" stroke-linejoin="round"/>
<path d="M12.8006 200.448H15.038L15.6419 111.521H12.8006V200.448Z" fill="#868686"/>
<path d="M12.8006 200.448H15.038L15.6419 111.521H12.8006V200.448Z" stroke="#1A2E35" stroke-width="1.33333" stroke-miterlimit="10" stroke-linecap="round" stroke-linejoin="round"/>
<path d="M10.5626 200.448H12.8006V111.521H9.95868L10.5626 200.448Z" fill="#C4C4C4"/>
<path d="M10.5626 200.448H12.8006V111.521H9.95868L10.5626 200.448Z" stroke="#1A2E35" stroke-width="1.33333" stroke-miterlimit="10" stroke-linecap="round" stroke-linejoin="round"/>
<path d="M91.8492 105.472H109.841C110.209 105.472 110.507 105.174 110.507 104.805V103.32L91.1825 103.924V104.805C91.1825 105.174 91.4815 105.472 91.8492 105.472Z" fill="#868686"/>
<path d="M91.8492 105.472H109.841C110.209 105.472 110.507 105.174 110.507 104.805V103.32L91.1825 103.924V104.805C91.1825 105.174 91.4815 105.472 91.8492 105.472Z" stroke="#1A2E35" stroke-width="1.33333" stroke-miterlimit="10" stroke-linecap="round" stroke-linejoin="round"/>
<path d="M112.514 105.472H148.684C149.264 105.472 149.829 105.043 150.006 104.468L157.769 79.2617C157.982 78.5703 157.553 77.9567 156.856 77.9567H120.685C120.106 77.9567 119.541 78.3861 119.364 78.9604L111.6 104.167C111.387 104.858 111.817 105.472 112.514 105.472Z" fill="#C4C4C4"/>
<path d="M112.514 105.472H148.684C149.264 105.472 149.829 105.043 150.006 104.468L157.769 79.2617C157.982 78.5703 157.553 77.9567 156.856 77.9567H120.685C120.106 77.9567 119.541 78.3861 119.364 78.9604L111.6 104.167C111.387 104.858 111.817 105.472 112.514 105.472Z" stroke="#1A2E35" stroke-width="1.33333" stroke-miterlimit="10" stroke-linecap="round" stroke-linejoin="round"/>
<path d="M109.975 104.167L117.739 78.9602C117.916 78.3859 118.481 77.9565 119.06 77.9565H120.685C120.106 77.9565 119.541 78.3859 119.364 78.9602L111.6 104.167C111.387 104.858 111.817 105.472 112.514 105.472H110.889C110.192 105.472 109.762 104.858 109.975 104.167Z" fill="#868686"/>
<path d="M109.975 104.167L117.739 78.9602C117.916 78.3859 118.481 77.9565 119.06 77.9565H120.685C120.106 77.9565 119.541 78.3859 119.364 78.9602L111.6 104.167C111.387 104.858 111.817 105.472 112.514 105.472H110.889C110.192 105.472 109.762 104.858 109.975 104.167Z" stroke="#1A2E35" stroke-width="1.33333" stroke-miterlimit="10" stroke-linecap="round" stroke-linejoin="round"/>
<path d="M132.447 91.7142C132.296 92.9498 133.174 93.9517 134.41 93.9517C135.646 93.9517 136.771 92.9498 136.922 91.7142C137.074 90.4786 136.195 89.4768 134.96 89.4768C133.724 89.4768 132.599 90.4786 132.447 91.7142Z" fill="white"/>
<path d="M132.447 91.7142C132.296 92.9498 133.174 93.9517 134.41 93.9517C135.646 93.9517 136.771 92.9498 136.922 91.7142C137.074 90.4786 136.195 89.4768 134.96 89.4768C133.724 89.4768 132.599 90.4786 132.447 91.7142Z" stroke="#1A2E35" stroke-width="1.33333" stroke-miterlimit="10" stroke-linecap="round" stroke-linejoin="round"/>
<path d="M50.3235 30.4723H50.5572C51.0681 30.4723 51.3307 30.2391 51.3307 29.4366V27.2467C51.3307 26.7211 51.5204 26.1666 52.2211 25.9622V25.9333C51.5204 25.7289 51.3307 25.1736 51.3307 24.6484V22.4589C51.3307 21.656 51.0681 21.4228 50.5572 21.4228H50.3235V20.1085H51.141C52.0456 20.1085 52.7614 20.6195 52.7614 21.7293V24.4147C52.7614 25.0865 52.9507 25.2909 53.6806 25.2909V26.6042C52.9507 26.6042 52.7614 26.8086 52.7614 27.48V30.1662C52.7614 31.2752 52.0456 31.7861 51.141 31.7861H50.3235V30.4723Z" fill="white"/>
<path d="M50.1657 30.6262H50.4139C50.9565 30.6262 51.2354 30.384 51.2354 29.551V27.2777C51.2354 26.7321 51.4369 26.1565 52.181 25.9443V25.9143C51.4369 25.7021 51.2354 25.1256 51.2354 24.5805V22.3076C51.2354 21.4741 50.9565 21.232 50.4139 21.232H50.1657V19.8677H51.0339C51.9946 19.8677 52.7548 20.3981 52.7548 21.5502V24.3379C52.7548 25.0352 52.9558 25.2474 53.7311 25.2474V26.6108C52.9558 26.6108 52.7548 26.8229 52.7548 27.5198V30.3084C52.7548 31.4596 51.9946 31.99 51.0339 31.99H50.1657V30.6262Z" stroke="#1A2E35" stroke-miterlimit="10" stroke-linecap="round" stroke-linejoin="round"/>
<path d="M46.4429 30.4723H46.2092C45.6983 30.4723 45.4357 30.2391 45.4357 29.4366V27.2467C45.4357 26.7211 45.246 26.1666 44.5453 25.9622V25.9333C45.246 25.7289 45.4357 25.1736 45.4357 24.6484V22.4589C45.4357 21.656 45.6983 21.4228 46.2092 21.4228H46.4429V20.1085H45.6254C44.7208 20.1085 44.005 20.6195 44.005 21.7293V24.4147C44.005 25.0865 43.8158 25.2909 43.0858 25.2909V26.6042C43.8158 26.6042 44.005 26.8086 44.005 27.48V30.1662C44.005 31.2752 44.7208 31.7861 45.6254 31.7861H46.4429V30.4723Z" fill="white"/>
<path d="M46.6005 30.6262H46.3523C45.8097 30.6262 45.5308 30.384 45.5308 29.551V27.2777C45.5308 26.7321 45.3293 26.1565 44.5852 25.9443V25.9143C45.3293 25.7021 45.5308 25.1256 45.5308 24.5805V22.3076C45.5308 21.4741 45.8097 21.232 46.3523 21.232H46.6005V19.8677H45.7323C44.7716 19.8677 44.0114 20.3981 44.0114 21.5502V24.3379C44.0114 25.0352 43.8104 25.2474 43.0351 25.2474V26.6108C43.8104 26.6108 44.0114 26.8229 44.0114 27.5198V30.3084C44.0114 31.4596 44.7716 31.99 45.7323 31.99H46.6005V30.6262Z" stroke="#1A2E35" stroke-miterlimit="10" stroke-linecap="round" stroke-linejoin="round"/>
<mask id="path-192-outside-1_356_1209" maskUnits="userSpaceOnUse" x="107.998" y="10.926" width="12" height="13" fill="black">
<rect fill="white" x="107.998" y="10.926" width="12" height="13"/>
<path fill-rule="evenodd" clip-rule="evenodd" d="M115.433 19.0803V20.6327C115.433 21.6901 113.606 21.9601 112.598 21.9601H110.798C109.951 21.9001 108.998 21.6226 108.998 20.6327V18.368C108.998 16.8355 110.241 15.5932 111.773 15.5932H112.305C114.331 15.5932 115.973 13.9513 115.973 11.926H117.592C118.035 12.031 118.92 12.8079 118.92 15.0757C118.92 17.5603 116.32 18.4054 113.835 18.4054H112.193V18.9679H115.433V19.0803ZM114.308 20.8351C114.507 20.8351 114.668 20.674 114.668 20.4752C114.668 20.2764 114.507 20.1152 114.308 20.1152C114.109 20.1152 113.948 20.2764 113.948 20.4752C113.948 20.674 114.109 20.8351 114.308 20.8351Z"/>
</mask>
<path fill-rule="evenodd" clip-rule="evenodd" d="M115.433 19.0803V20.6327C115.433 21.6901 113.606 21.9601 112.598 21.9601H110.798C109.951 21.9001 108.998 21.6226 108.998 20.6327V18.368C108.998 16.8355 110.241 15.5932 111.773 15.5932H112.305C114.331 15.5932 115.973 13.9513 115.973 11.926H117.592C118.035 12.031 118.92 12.8079 118.92 15.0757C118.92 17.5603 116.32 18.4054 113.835 18.4054H112.193V18.9679H115.433V19.0803ZM114.308 20.8351C114.507 20.8351 114.668 20.674 114.668 20.4752C114.668 20.2764 114.507 20.1152 114.308 20.1152C114.109 20.1152 113.948 20.2764 113.948 20.4752C113.948 20.674 114.109 20.8351 114.308 20.8351Z" fill="white"/>
<path d="M110.798 21.9601L110.727 22.9576L110.763 22.9601H110.798V21.9601ZM115.973 11.926V10.926H114.973V11.926H115.973ZM117.592 11.926L117.823 10.953L117.709 10.926H117.592V11.926ZM112.193 18.4054V17.4054H111.193V18.4054H112.193ZM112.193 18.9679H111.193V19.9679H112.193V18.9679ZM115.433 18.9679H116.433V17.9679H115.433V18.9679ZM116.433 20.6327V19.0803H114.433V20.6327H116.433ZM112.598 22.9601C113.164 22.9601 113.993 22.8871 114.717 22.6389C115.351 22.4218 116.433 21.8698 116.433 20.6327H114.433C114.433 20.57 114.473 20.5328 114.45 20.5541C114.405 20.5958 114.29 20.671 114.069 20.7469C113.628 20.8981 113.039 20.9601 112.598 20.9601V22.9601ZM110.798 22.9601H112.598V20.9601H110.798V22.9601ZM107.998 20.6327C107.998 21.5304 108.468 22.1542 109.077 22.509C109.618 22.8248 110.251 22.9238 110.727 22.9576L110.869 20.9626C110.498 20.9363 110.23 20.8666 110.084 20.7812C110.053 20.7634 110.035 20.7486 110.025 20.7391C110.015 20.7301 110.012 20.7251 110.011 20.7241C110.011 20.7236 110.009 20.7204 110.006 20.7105C110.003 20.7 109.998 20.6757 109.998 20.6327H107.998ZM107.998 18.368V20.6327H109.998V18.368H107.998ZM111.773 14.5932C109.688 14.5932 107.998 16.2833 107.998 18.368H109.998C109.998 17.3878 110.793 16.5932 111.773 16.5932V14.5932ZM112.305 14.5932H111.773V16.5932H112.305V14.5932ZM114.973 11.926C114.973 13.3991 113.778 14.5932 112.305 14.5932V16.5932C114.883 16.5932 116.973 14.5036 116.973 11.926H114.973ZM117.592 10.926H115.973V12.926H117.592V10.926ZM119.92 15.0757C119.92 12.6344 118.948 11.2199 117.823 10.953L117.362 12.899C117.122 12.8421 117.92 12.9815 117.92 15.0757H119.92ZM113.835 19.4054C115.165 19.4054 116.623 19.1833 117.787 18.551C119.004 17.8897 119.92 16.7535 119.92 15.0757H117.92C117.92 15.8825 117.536 16.4112 116.832 16.7936C116.075 17.205 114.99 17.4054 113.835 17.4054V19.4054ZM112.193 19.4054H113.835V17.4054H112.193V19.4054ZM113.193 18.9679V18.4054H111.193V18.9679H113.193ZM115.433 17.9679H112.193V19.9679H115.433V17.9679ZM116.433 19.0803V18.9679H114.433V19.0803H116.433ZM113.668 20.4752C113.668 20.1217 113.955 19.8351 114.308 19.8351V21.8351C115.059 21.8351 115.668 21.2262 115.668 20.4752H113.668ZM114.308 21.1152C113.955 21.1152 113.668 20.8286 113.668 20.4752H115.668C115.668 19.7241 115.059 19.1152 114.308 19.1152V21.1152ZM114.948 20.4752C114.948 20.8286 114.661 21.1152 114.308 21.1152V19.1152C113.557 19.1152 112.948 19.7241 112.948 20.4752H114.948ZM114.308 19.8351C114.661 19.8351 114.948 20.1217 114.948 20.4752H112.948C112.948 21.2262 113.557 21.8351 114.308 21.8351V19.8351Z" fill="#1A2E35" mask="url(#path-192-outside-1_356_1209)"/>
<mask id="path-194-outside-2_356_1209" maskUnits="userSpaceOnUse" x="104.343" y="6.54028" width="12" height="13" fill="black">
<rect fill="white" x="104.343" y="6.54028" width="12" height="13"/>
<path fill-rule="evenodd" clip-rule="evenodd" d="M108.908 11.386L108.908 9.83361C108.908 8.77621 110.735 8.50623 111.743 8.50623L113.543 8.50623C114.39 8.56623 115.343 8.8437 115.343 9.83361L115.343 12.0983C115.343 13.6308 114.1 14.8731 112.568 14.8731L112.035 14.8731C110.01 14.8731 108.368 16.515 108.368 18.5403L106.748 18.5403C106.306 18.4353 105.421 17.6584 105.421 15.3906C105.421 12.906 108.021 12.0609 110.505 12.0609L112.148 12.0609L112.148 11.4984L108.908 11.4984L108.908 11.386ZM110.033 9.63133C109.834 9.63133 109.673 9.7925 109.673 9.9913C109.673 10.1901 109.834 10.3513 110.033 10.3513C110.232 10.3513 110.393 10.1901 110.393 9.9913C110.393 9.7925 110.232 9.63133 110.033 9.63133Z"/>
</mask>
<path fill-rule="evenodd" clip-rule="evenodd" d="M108.908 11.386L108.908 9.83361C108.908 8.77621 110.735 8.50623 111.743 8.50623L113.543 8.50623C114.39 8.56623 115.343 8.8437 115.343 9.83361L115.343 12.0983C115.343 13.6308 114.1 14.8731 112.568 14.8731L112.035 14.8731C110.01 14.8731 108.368 16.515 108.368 18.5403L106.748 18.5403C106.306 18.4353 105.421 17.6584 105.421 15.3906C105.421 12.906 108.021 12.0609 110.505 12.0609L112.148 12.0609L112.148 11.4984L108.908 11.4984L108.908 11.386ZM110.033 9.63133C109.834 9.63133 109.673 9.7925 109.673 9.9913C109.673 10.1901 109.834 10.3513 110.033 10.3513C110.232 10.3513 110.393 10.1901 110.393 9.9913C110.393 9.7925 110.232 9.63133 110.033 9.63133Z" fill="white"/>
<path d="M111.743 8.50623L111.743 9.50623L111.743 8.50623ZM113.543 8.50623L113.613 7.50873L113.578 7.50623L113.543 7.50623L113.543 8.50623ZM115.343 9.83361L116.343 9.83361L115.343 9.83361ZM115.343 12.0983L114.343 12.0983L115.343 12.0983ZM112.568 14.8731L112.568 15.8731L112.568 14.8731ZM112.035 14.8731L112.035 13.8731L112.035 14.8731ZM108.368 18.5403L108.368 19.5403L109.368 19.5403L109.368 18.5403L108.368 18.5403ZM106.748 18.5403L106.518 19.5133L106.631 19.5403L106.748 19.5403L106.748 18.5403ZM112.148 12.0609L112.148 13.0609L113.148 13.0609L113.148 12.0609L112.148 12.0609ZM112.148 11.4984L113.148 11.4985L113.148 10.4985L112.148 10.4984L112.148 11.4984ZM108.908 11.4984L107.908 11.4984L107.908 12.4984L108.908 12.4984L108.908 11.4984ZM107.908 9.83361L107.908 11.386L109.908 11.386L109.908 9.83361L107.908 9.83361ZM111.743 7.50623C111.177 7.50623 110.348 7.57923 109.624 7.82739C108.99 8.04452 107.908 8.5965 107.908 9.83361L109.908 9.83361C109.908 9.89628 109.868 9.93347 109.891 9.91222C109.936 9.87048 110.05 9.79528 110.272 9.7194C110.713 9.56823 111.302 9.50623 111.743 9.50623L111.743 7.50623ZM113.543 7.50623L111.743 7.50623L111.743 9.50623L113.543 9.50623L113.543 7.50623ZM116.343 9.83361C116.343 8.93593 115.873 8.31213 115.264 7.95734C114.723 7.64146 114.09 7.54247 113.613 7.50873L113.472 9.50374C113.843 9.52999 114.11 9.59973 114.257 9.68507C114.287 9.70295 114.306 9.71771 114.316 9.72723C114.326 9.73625 114.329 9.74122 114.33 9.74216C114.33 9.7427 114.332 9.74594 114.335 9.75582C114.338 9.76628 114.343 9.79059 114.343 9.83361L116.343 9.83361ZM116.343 12.0983L116.343 9.83361L114.343 9.83361L114.343 12.0983L116.343 12.0983ZM112.568 15.8731C114.653 15.8731 116.343 14.183 116.343 12.0983L114.343 12.0983C114.343 13.0785 113.548 13.8731 112.568 13.8731L112.568 15.8731ZM112.035 15.8731L112.568 15.8731L112.568 13.8731L112.035 13.8731L112.035 15.8731ZM109.368 18.5403C109.368 17.0673 110.562 15.8731 112.035 15.8731L112.035 13.8731C109.458 13.8731 107.368 15.9627 107.368 18.5403L109.368 18.5403ZM106.748 19.5403L108.368 19.5403L108.368 17.5403L106.748 17.5403L106.748 19.5403ZM104.421 15.3906C104.421 17.8319 105.393 19.2464 106.518 19.5133L106.979 17.5673C107.219 17.6242 106.421 17.4849 106.421 15.3906L104.421 15.3906ZM110.505 11.0609C109.176 11.0609 107.718 11.283 106.554 11.9153C105.337 12.5766 104.421 13.7128 104.421 15.3906L106.421 15.3906C106.421 14.5838 106.805 14.0551 107.509 13.6727C108.266 13.2613 109.35 13.0609 110.505 13.0609L110.505 11.0609ZM112.148 11.0609L110.505 11.0609L110.505 13.0609L112.148 13.0609L112.148 11.0609ZM111.148 11.4984L111.148 12.0609L113.148 12.0609L113.148 11.4985L111.148 11.4984ZM108.908 12.4984L112.148 12.4984L112.148 10.4984L108.908 10.4984L108.908 12.4984ZM107.908 11.386L107.908 11.4984L109.908 11.4984L109.908 11.386L107.908 11.386ZM110.673 9.9913C110.673 10.3448 110.387 10.6313 110.033 10.6313L110.033 8.63133C109.282 8.63133 108.673 9.24021 108.673 9.9913L110.673 9.9913ZM110.033 9.35127C110.387 9.35127 110.673 9.63782 110.673 9.9913L108.673 9.9913C108.673 10.7424 109.282 11.3513 110.033 11.3513L110.033 9.35127ZM109.393 9.9913C109.393 9.63782 109.68 9.35127 110.033 9.35127L110.033 11.3513C110.784 11.3513 111.393 10.7424 111.393 9.9913L109.393 9.9913ZM110.033 10.6313C109.68 10.6313 109.393 10.3448 109.393 9.9913L111.393 9.9913C111.393 9.24021 110.784 8.63133 110.033 8.63133L110.033 10.6313Z" fill="#1A2E35" mask="url(#path-194-outside-2_356_1209)"/>
<rect x="18.5893" y="47.1777" width="10.983" height="3.13922" rx="1.5" fill="white" stroke="#1A2E35"/>
<rect x="18.5893" y="51.4561" width="10.983" height="3.8523" rx="1.5" fill="white" stroke="#1A2E35"/>
<rect x="18.5893" y="56.4478" width="10.983" height="3.13922" rx="1.5" fill="white" stroke="#1A2E35"/>
<path d="M166.35 29.9804L166.35 29.9804C166.292 29.8622 166.241 29.7455 166.209 29.6155L166.35 29.9804ZM166.35 29.9804C166.978 31.2556 168.765 31.2459 169.39 29.9752C169.507 29.738 169.581 29.4919 169.581 29.2253C169.581 28.9586 169.507 28.7125 169.391 28.4754C169.235 28.1581 169.008 27.8978 168.705 27.7287C168.403 27.5602 168.061 27.5022 167.706 27.5285C167.706 27.5285 167.706 27.5285 167.706 27.5285L167.625 27.5345L166.941 26.847L166.941 26.847L166.285 26.1876C166.383 25.6293 166.15 25.1029 165.802 24.751C165.457 24.4019 164.939 24.1631 164.384 24.2512L163.678 23.5435L163.137 23.0014L163.602 22.5397C163.938 22.2068 164.139 22.0124 164.271 21.8971C164.336 21.8404 164.373 21.8136 164.389 21.8027C164.429 21.7954 164.495 21.7906 164.576 21.7968C164.643 21.8019 164.698 21.8129 164.735 21.8236C164.744 21.8315 164.755 21.8408 164.767 21.8518C164.825 21.9039 164.908 21.9805 165.013 22.0799C165.223 22.2782 165.512 22.5578 165.855 22.8933C166.541 23.5638 167.436 24.4517 168.328 25.3449C169.221 26.238 170.11 27.1352 170.783 27.8241C171.12 28.1688 171.401 28.4599 171.601 28.6718C171.702 28.7781 171.779 28.8621 171.833 28.9219C171.85 28.9405 171.863 28.9555 171.873 28.9673C171.909 29.0677 171.911 29.2259 171.871 29.338C171.869 29.3408 171.866 29.3439 171.863 29.3474C171.837 29.3798 171.795 29.4284 171.732 29.4978C171.606 29.6359 171.412 29.8388 171.132 30.1265C170.572 30.7009 169.677 31.5991 168.31 32.9634C166.845 34.426 165.949 35.3153 165.402 35.8443C165.128 36.1096 164.948 36.2789 164.83 36.3832C164.785 36.4227 164.753 36.4494 164.731 36.467C164.679 36.4783 164.614 36.4841 164.545 36.4806C164.481 36.4773 164.432 36.4669 164.401 36.457C164.391 36.4485 164.38 36.4383 164.367 36.4262C164.31 36.3753 164.231 36.3009 164.13 36.2049C163.928 36.0134 163.648 35.7434 163.316 35.4195C162.651 34.7721 161.78 33.914 160.906 33.0478C160.032 32.1816 159.157 31.3083 158.486 30.6307C158.15 30.2917 157.865 30.0028 157.658 29.7885C157.554 29.6811 157.471 29.594 157.411 29.5293C157.366 29.4821 157.343 29.4556 157.333 29.4444C157.327 29.4378 157.326 29.4365 157.328 29.4393C157.218 29.2896 157.192 29.1574 157.228 28.9933L157.228 28.9933L157.248 28.899L159.604 26.5382L161.71 24.4279L162.239 24.9573L162.239 24.9573M166.35 29.9804L162.239 24.9573M163.058 33.2175L163.058 33.2175C162.704 32.4693 162.937 31.5462 163.633 31.0913V29.2253V27.3533C163.318 27.139 163.045 26.765 162.947 26.4003L163.058 33.2175ZM163.058 33.2175C163.353 33.8397 163.915 34.196 164.604 34.1976C164.734 34.1979 164.868 34.1945 165.011 34.1581C165.152 34.1222 165.273 34.0612 165.391 33.9982L165.391 33.9982M163.058 33.2175L165.391 33.9982M165.391 33.9982C166.476 33.417 166.62 32.0007 165.691 31.2003C165.691 31.2003 165.691 31.2003 165.691 31.2002L165.659 31.1723L165.659 29.2866V28.3782C165.937 28.6568 166.098 28.8195 166.191 28.9206C166.189 28.9366 166.187 28.9513 166.185 28.9643C166.175 29.048 166.169 29.1432 166.169 29.2338L165.391 33.9982ZM162.239 24.9573C162.549 25.2672 162.761 25.4851 162.891 25.6285C162.901 25.6393 162.91 25.6494 162.918 25.6589M162.239 24.9573L162.918 25.6589M162.918 25.6589C162.91 25.7299 162.906 25.8054 162.904 25.8785C162.9 26.0299 162.905 26.2429 162.947 26.4002L162.918 25.6589ZM171.898 28.9975C171.897 28.9974 171.896 28.9953 171.893 28.9915C171.896 28.9957 171.898 28.9977 171.898 28.9975ZM164.698 36.4915C164.698 36.4914 164.7 36.49 164.704 36.4876C164.7 36.4905 164.698 36.4917 164.698 36.4915ZM166.272 29.0163C166.272 29.0163 166.272 29.0156 166.271 29.0143C166.272 29.0157 166.272 29.0163 166.272 29.0163Z" fill="white" stroke="#1A2E35"/>
</svg>
