<svg width="127" height="126" viewBox="0 0 127 126" fill="none" xmlns="http://www.w3.org/2000/svg">
<ellipse cx="63.5" cy="63" rx="63.5" ry="63" fill="white"/>
<path d="M73.25 56.1667L88.8061 48.3904C89.3269 48.1301 89.9055 48.0073 90.4871 48.0335C91.0686 48.0597 91.6339 48.2341 92.1292 48.54C92.6244 48.846 93.0333 49.2735 93.317 49.7819C93.6006 50.2903 93.7497 50.8627 93.75 51.4449V74.5552C93.7497 75.1374 93.6006 75.7098 93.317 76.2182C93.0333 76.7266 92.6244 77.154 92.1292 77.46C91.6339 77.766 91.0686 77.9404 90.4871 77.9666C89.9055 77.9928 89.3269 77.8699 88.8061 77.6097L73.25 69.8334V56.1667Z" stroke="#45286C" stroke-width="5" stroke-linecap="round" stroke-linejoin="round"/>
<path d="M66.4167 42.5H39.0833C35.3094 42.5 32.25 45.5594 32.25 49.3333V76.6667C32.25 80.4406 35.3094 83.5 39.0833 83.5H66.4167C70.1906 83.5 73.25 80.4406 73.25 76.6667V49.3333C73.25 45.5594 70.1906 42.5 66.4167 42.5Z" stroke="#45286C" stroke-width="5" stroke-linecap="round" stroke-linejoin="round"/>
</svg>
