<svg width="127" height="126" viewBox="0 0 127 126" fill="none" xmlns="http://www.w3.org/2000/svg">
<path d="M19.7352 75V54.52L21.9753 56.76H15.2553V52.6H24.9193V75H19.7352ZM38.4105 75.384C36.5758 75.384 34.9332 74.936 33.4825 74.04C32.0318 73.1227 30.8905 71.8 30.0585 70.072C29.2265 68.344 28.8105 66.2533 28.8105 63.8C28.8105 61.3467 29.2265 59.256 30.0585 57.528C30.8905 55.8 32.0318 54.488 33.4825 53.592C34.9332 52.6747 36.5758 52.216 38.4105 52.216C40.2665 52.216 41.9092 52.6747 43.3385 53.592C44.7892 54.488 45.9305 55.8 46.7625 57.528C47.5945 59.256 48.0105 61.3467 48.0105 63.8C48.0105 66.2533 47.5945 68.344 46.7625 70.072C45.9305 71.8 44.7892 73.1227 43.3385 74.04C41.9092 74.936 40.2665 75.384 38.4105 75.384ZM38.4105 71C39.2852 71 40.0425 70.7547 40.6825 70.264C41.3438 69.7733 41.8558 68.9947 42.2185 67.928C42.6025 66.8613 42.7945 65.4853 42.7945 63.8C42.7945 62.1147 42.6025 60.7387 42.2185 59.672C41.8558 58.6053 41.3438 57.8267 40.6825 57.336C40.0425 56.8453 39.2852 56.6 38.4105 56.6C37.5572 56.6 36.7998 56.8453 36.1385 57.336C35.4985 57.8267 34.9865 58.6053 34.6025 59.672C34.2398 60.7387 34.0585 62.1147 34.0585 63.8C34.0585 65.4853 34.2398 66.8613 34.6025 67.928C34.9865 68.9947 35.4985 69.7733 36.1385 70.264C36.7998 70.7547 37.5572 71 38.4105 71ZM60.1293 75.384C58.2946 75.384 56.6519 74.936 55.2013 74.04C53.7506 73.1227 52.6093 71.8 51.7773 70.072C50.9453 68.344 50.5293 66.2533 50.5293 63.8C50.5293 61.3467 50.9453 59.256 51.7773 57.528C52.6093 55.8 53.7506 54.488 55.2013 53.592C56.6519 52.6747 58.2946 52.216 60.1293 52.216C61.9853 52.216 63.6279 52.6747 65.0573 53.592C66.5079 54.488 67.6493 55.8 68.4813 57.528C69.3133 59.256 69.7293 61.3467 69.7293 63.8C69.7293 66.2533 69.3133 68.344 68.4813 70.072C67.6493 71.8 66.5079 73.1227 65.0573 74.04C63.6279 74.936 61.9853 75.384 60.1293 75.384ZM60.1293 71C61.0039 71 61.7613 70.7547 62.4013 70.264C63.0626 69.7733 63.5746 68.9947 63.9373 67.928C64.3213 66.8613 64.5133 65.4853 64.5133 63.8C64.5133 62.1147 64.3213 60.7387 63.9373 59.672C63.5746 58.6053 63.0626 57.8267 62.4013 57.336C61.7613 56.8453 61.0039 56.6 60.1293 56.6C59.2759 56.6 58.5186 56.8453 57.8573 57.336C57.2173 57.8267 56.7053 58.6053 56.3213 59.672C55.9586 60.7387 55.7773 62.1147 55.7773 63.8C55.7773 65.4853 55.9586 66.8613 56.3213 67.928C56.7053 68.9947 57.2173 69.7733 57.8573 70.264C58.5186 70.7547 59.2759 71 60.1293 71ZM81.848 75.384C80.0133 75.384 78.3707 74.936 76.92 74.04C75.4693 73.1227 74.328 71.8 73.496 70.072C72.664 68.344 72.248 66.2533 72.248 63.8C72.248 61.3467 72.664 59.256 73.496 57.528C74.328 55.8 75.4693 54.488 76.92 53.592C78.3707 52.6747 80.0133 52.216 81.848 52.216C83.704 52.216 85.3467 52.6747 86.776 53.592C88.2267 54.488 89.368 55.8 90.2 57.528C91.032 59.256 91.448 61.3467 91.448 63.8C91.448 66.2533 91.032 68.344 90.2 70.072C89.368 71.8 88.2267 73.1227 86.776 74.04C85.3467 74.936 83.704 75.384 81.848 75.384ZM81.848 71C82.7227 71 83.48 70.7547 84.12 70.264C84.7813 69.7733 85.2933 68.9947 85.656 67.928C86.04 66.8613 86.232 65.4853 86.232 63.8C86.232 62.1147 86.04 60.7387 85.656 59.672C85.2933 58.6053 84.7813 57.8267 84.12 57.336C83.48 56.8453 82.7227 56.6 81.848 56.6C80.9947 56.6 80.2373 56.8453 79.576 57.336C78.936 57.8267 78.424 58.6053 78.04 59.672C77.6773 60.7387 77.496 62.1147 77.496 63.8C77.496 65.4853 77.6773 66.8613 78.04 67.928C78.424 68.9947 78.936 69.7733 79.576 70.264C80.2373 70.7547 80.9947 71 81.848 71ZM100.333 71.192V56.408H104.461V71.192H100.333ZM94.7965 65.752V61.848H110.029V65.752H94.7965Z" fill="#45286C"/>
</svg>
