<svg width="127" height="126" viewBox="0 0 127 126" fill="none" xmlns="http://www.w3.org/2000/svg">
<ellipse cx="63.5" cy="63" rx="63.5" ry="63" fill="white"/>
<path d="M56.75 32.8C51.4705 34.0239 46.6146 36.638 42.686 40.3713C38.7574 44.1045 35.8991 48.8208 34.4076 54.031C32.9162 59.2413 32.8459 64.7557 34.204 70.0022C35.5621 75.2488 38.2992 80.0365 42.1314 83.8687C45.9635 87.7008 50.7512 90.4379 55.9978 91.796C61.2444 93.1542 66.7588 93.0839 71.969 91.5924C77.1792 90.1009 81.8956 87.2427 85.6288 83.314C89.362 79.3854 91.9761 74.5295 93.2 69.25C93.2 68.3549 92.8444 67.4965 92.2115 66.8635C91.5786 66.2306 90.7201 65.875 89.825 65.875H66.875C65.0848 65.875 63.3679 65.1638 62.1021 63.898C60.8362 62.6321 60.125 60.9152 60.125 59.125V35.5C60.0831 35.1002 59.9622 34.7126 59.7694 34.3598C59.5765 34.007 59.3155 33.6961 59.0016 33.4449C58.6877 33.1938 58.327 33.0074 57.9405 32.8967C57.554 32.786 57.1493 32.7531 56.75 32.8Z" stroke="#45286C" stroke-width="5" stroke-linecap="round" stroke-linejoin="round"/>
<path d="M73.625 33.8125C77.9103 35.3214 81.8026 37.7724 85.0151 40.9849C88.2276 44.1974 90.6786 48.0897 92.1875 52.375H77C76.1049 52.375 75.2465 52.0194 74.6135 51.3865C73.9806 50.7535 73.625 49.8951 73.625 49V33.8125Z" stroke="#45286C" stroke-width="5" stroke-linecap="round" stroke-linejoin="round"/>
</svg>
