<svg width="127" height="126" viewBox="0 0 127 126" fill="none" xmlns="http://www.w3.org/2000/svg">
<ellipse cx="63.5" cy="63" rx="63.5" ry="63" fill="white"/>
<path d="M80.6668 37.5625C84.0236 39.8847 86.8944 42.8856 89.1074 46.3856C91.3205 49.8855 92.8304 53.8127 93.5468 57.9321C94.7942 58.7689 95.8033 59.9365 96.4697 61.3138C97.136 62.6912 97.4354 64.2284 97.3368 65.7661C97.2383 67.3039 96.7453 68.7864 95.909 70.0601C95.0726 71.3338 93.9233 72.3524 92.5801 73.0104C90.6368 79.2847 86.8242 84.7571 81.6914 88.6394C76.5586 92.5217 70.3705 94.6135 64.0184 94.6135C57.6664 94.6135 51.4783 92.5217 46.3455 88.6394C41.2126 84.7571 37.4 79.2847 35.4568 73.0104C34.1135 72.3524 32.9642 71.3338 32.1279 70.0601C31.2916 68.7864 30.7986 67.3039 30.7 65.7661C30.6014 64.2284 30.9008 62.6912 31.5672 61.3138C32.2336 59.9365 33.2427 58.7689 34.4901 57.9321C35.1922 53.8944 36.6569 50.0405 38.7998 46.5922C40.9428 43.1439 43.7217 40.1692 46.9768 37.8392" stroke="#45286C" stroke-width="5" stroke-linecap="round" stroke-linejoin="round"/>
<path d="M55.6667 77.3333C56.753 78.4835 58.0496 79.3973 59.4805 80.0211C60.9114 80.6449 62.448 80.9663 64.0001 80.9663C65.5522 80.9663 67.0887 80.6449 68.5197 80.0211C69.9506 79.3973 71.2472 78.4835 72.3334 77.3333" stroke="#45286C" stroke-width="5" stroke-linecap="round" stroke-linejoin="round"/>
<path d="M52.3333 28.9167C57.3333 32.3751 60.6666 41.0209 60.6666 46.2084" stroke="#45286C" stroke-width="5" stroke-linecap="round" stroke-linejoin="round"/>
<path d="M65.6667 28.9167C70.6667 35.8334 72.3334 41.0209 72.3334 46.2084" stroke="#45286C" stroke-width="5" stroke-linecap="round" stroke-linejoin="round"/>
<path d="M54 63.5H54.0327" stroke="#45286C" stroke-width="5" stroke-linecap="round" stroke-linejoin="round"/>
<path d="M74 63.5H74.0327" stroke="#45286C" stroke-width="5" stroke-linecap="round" stroke-linejoin="round"/>
</svg>
