<svg width="134" height="147" viewBox="0 0 134 147" fill="none" xmlns="http://www.w3.org/2000/svg">
<path d="M68.0001 92.4858C49.473 92.4858 26.4875 98.7559 12.6596 105.084C4.71716 108.719 5.3301 117.232 12.0641 122.795L14.2924 124.635C23.9192 132.588 35.1978 138.294 47.3076 141.34L48.0667 141.531C61.148 144.82 74.8439 144.787 87.9094 141.436C100.015 138.33 111.236 132.464 120.695 124.295L123.228 122.107C129.298 116.865 129.951 109.089 122.744 105.569C109.611 99.1542 86.8235 92.4858 68.0001 92.4858Z" fill="#1A095A" stroke="#1A095A" stroke-width="1.3"/>
<path d="M41.0982 59.944C28.1291 46.4891 28.1291 25.4539 41.0982 11.9991C54.4996 -1.90431 77.0431 -1.90431 90.4445 11.9991C103.414 25.4539 103.414 46.4891 90.4445 59.944C77.0431 73.8474 54.4996 73.8474 41.0982 59.944Z" fill="#1A095A" stroke="#1A095A" stroke-width="1.3"/>
</svg>
