<svg width="132" height="494" viewBox="0 0 132 494" fill="none" xmlns="http://www.w3.org/2000/svg">
<g filter="url(#filter0_i_318_797)">
<path d="M101 458.06L2.99999 493.9L2.99999 474.72L82.66 447L2.99999 419.14L2.99999 400.24L101 436.08L101 458.06ZM102.68 359.368C102.68 366.554 101.467 372.901 99.04 378.408C96.52 383.914 92.9733 388.254 88.4 391.428C83.7333 394.601 78.0867 396.234 71.46 396.328L71.46 377.428C76.0333 377.241 79.9067 375.608 83.08 372.528C86.16 369.354 87.7 365.014 87.7 359.508C87.7 354.748 86.58 350.968 84.34 348.168C82.0067 345.368 78.9267 343.968 75.1 343.968C71.0867 343.968 67.96 345.228 65.72 347.748C63.48 350.174 61.66 353.441 60.26 357.548C58.86 361.654 57.3667 366.041 55.78 370.708C53.1667 378.268 49.8067 384.054 45.7 388.068C41.5933 391.988 36.1333 393.948 29.32 393.948C23.5333 394.041 18.5867 392.688 14.48 389.888C10.28 386.994 7.05999 383.074 4.81999 378.128C2.48666 373.181 1.31999 367.488 1.31999 361.048C1.31999 354.514 2.48666 348.774 4.81999 343.828C7.15332 338.788 10.42 334.868 14.62 332.068C18.82 329.174 23.8133 327.634 29.6 327.448L29.6 346.628C26.1467 346.721 23.1133 348.074 20.5 350.688C17.7933 353.208 16.44 356.754 16.44 361.328C16.3467 365.248 17.3267 368.561 19.38 371.268C21.34 373.881 24.2333 375.188 28.06 375.188C31.3267 375.188 33.94 374.161 35.9 372.108C37.7667 370.054 39.3533 367.254 40.66 363.708C41.9667 360.161 43.3667 356.101 44.86 351.528C46.54 346.674 48.5 342.241 50.74 338.228C52.98 334.214 55.9667 330.994 59.7 328.568C63.34 326.141 68.0533 324.928 73.84 324.928C78.9733 324.928 83.7333 326.234 88.12 328.848C92.5067 331.461 96.0533 335.334 98.76 340.468C101.373 345.601 102.68 351.901 102.68 359.368ZM102.68 275.692C102.68 282.786 101.14 289.039 98.06 294.452C94.98 299.866 90.6867 304.159 85.18 307.332C79.6733 310.412 73.3733 311.952 66.28 311.952C59.1867 311.952 52.8867 310.412 47.38 307.332C41.8733 304.159 37.58 299.866 34.5 294.452C31.42 289.039 29.88 282.786 29.88 275.692C29.88 266.826 32.2133 259.359 36.88 253.292C41.4533 247.226 47.8 243.352 55.92 241.672L55.92 260.572C52.56 261.506 49.9467 263.372 48.08 266.172C46.12 268.879 45.14 272.099 45.14 275.832C45.14 280.779 47.0067 284.979 50.74 288.432C54.4733 291.886 59.6533 293.612 66.28 293.612C72.9067 293.612 78.0867 291.886 81.82 288.432C85.5533 284.979 87.42 280.779 87.42 275.832C87.42 272.099 86.4867 268.879 84.62 266.172C82.7533 263.372 80.0933 261.506 76.64 260.572L76.64 241.672C84.48 243.352 90.78 247.226 95.54 253.292C100.3 259.359 102.68 266.826 102.68 275.692ZM101 225.767L31.56 225.767L31.56 209.807L44.58 208.127C40.1 205.607 36.5533 202.201 33.94 197.907C31.2333 193.521 29.88 188.387 29.88 182.507L48.78 182.507L48.78 187.547C48.78 191.467 49.3867 194.967 50.6 198.047C51.8133 201.127 53.9133 203.554 56.9 205.327C59.8867 207.007 64.04 207.847 69.36 207.847L101 207.847L101 225.767ZM20.78 160.599C20.78 163.866 19.8 166.573 17.84 168.719C15.88 170.773 13.4067 171.799 10.42 171.799C7.43332 171.799 5.00665 170.773 3.13998 168.719C1.17998 166.573 0.199981 163.866 0.199981 160.599C0.199981 157.333 1.17998 154.673 3.13998 152.619C5.00665 150.473 7.43332 149.399 10.42 149.399C13.4066 149.399 15.88 150.473 17.84 152.619C19.8 154.673 20.78 157.333 20.78 160.599ZM101 169.559L31.56 169.559L31.56 151.639L101 151.639L101 169.559ZM131.8 132.935L31.56 132.935L31.56 116.975L41.5 115.015C38.42 112.775 35.7133 109.835 33.38 106.195C31.0466 102.462 29.88 97.6552 29.88 91.7751C29.88 85.2418 31.4666 79.4085 34.64 74.2751C37.8133 69.1418 42.1533 65.0818 47.66 62.0951C53.1666 59.1085 59.42 57.6151 66.42 57.6151C73.42 57.6151 79.6733 59.1085 85.18 62.0951C90.5933 65.0818 94.8866 69.1418 98.06 74.2751C101.14 79.4085 102.68 85.2418 102.68 91.7751C102.68 97.0018 101.7 101.575 99.74 105.495C97.78 109.415 95.0266 112.588 91.48 115.015L131.8 115.015L131.8 132.935ZM87 95.5551C87 89.8618 85.0866 85.1485 81.26 81.4151C77.4333 77.6818 72.4866 75.8151 66.42 75.8151C60.3533 75.8151 55.36 77.6818 51.44 81.4151C47.52 85.1485 45.56 89.8618 45.56 95.5552C45.56 101.342 47.52 106.102 51.44 109.835C55.2666 113.475 60.2133 115.295 66.28 115.295C72.3466 115.295 77.34 113.475 81.26 109.835C85.0866 106.102 87 101.342 87 95.5551ZM101 13.4014C101 20.6814 99.2266 26.5147 95.68 30.9014C92.1333 35.2881 85.8333 37.4814 76.78 37.4814L46.54 37.4814L46.54 49.3814L31.56 49.3814L31.56 37.4814L12.94 35.3814L12.94 19.5614L31.56 19.5614L31.56 0.801401L46.54 0.8014L46.54 19.5614L76.92 19.5614C80.28 19.5614 82.6133 18.8614 83.92 17.4614C85.1333 15.9681 85.74 13.4481 85.74 9.9014L85.74 1.2214L101 1.2214L101 13.4014Z" fill="#E8EAFF"/>
</g>
<defs>
<filter id="filter0_i_318_797" x="0.199951" y="0.80127" width="131.6" height="497.099" filterUnits="userSpaceOnUse" color-interpolation-filters="sRGB">
<feFlood flood-opacity="0" result="BackgroundImageFix"/>
<feBlend mode="normal" in="SourceGraphic" in2="BackgroundImageFix" result="shape"/>
<feColorMatrix in="SourceAlpha" type="matrix" values="0 0 0 0 0 0 0 0 0 0 0 0 0 0 0 0 0 0 127 0" result="hardAlpha"/>
<feOffset dy="4"/>
<feGaussianBlur stdDeviation="2"/>
<feComposite in2="hardAlpha" operator="arithmetic" k2="-1" k3="1"/>
<feColorMatrix type="matrix" values="0 0 0 0 0 0 0 0 0 0 0 0 0 0 0 0 0 0 0.25 0"/>
<feBlend mode="normal" in2="shape" result="effect1_innerShadow_318_797"/>
</filter>
</defs>
</svg>
